SplineFontDB: 3.0
FontName: GiveYouGlory
FullName: Give You Glory
FamilyName: Give You Glory
Weight: Normal
Copyright: Copyright (c) 2010 by Kimberly Geswein. All rights reserved.
Version: 001.001
ItalicAngle: 0
UnderlinePosition: -52
UnderlineWidth: 51
Ascent: 800
Descent: 200
sfntRevision: 0x00010042
LayerCount: 2
Layer: 0 1 "Back"  1
Layer: 1 1 "Fore"  0
NeedsXUIDChange: 1
XUID: [1021 288 713564382 13949277]
FSType: 0
OS2Version: 2
OS2_WeightWidthSlopeOnly: 0
OS2_UseTypoMetrics: 1
CreationTime: 1307065580
ModificationTime: 1307076463
PfmFamily: 17
TTFWeight: 400
TTFWidth: 5
LineGap: 0
VLineGap: 0
Panose: 2 0 0 0 0 0 0 0 0 0
OS2TypoAscent: 196
OS2TypoAOffset: 1
OS2TypoDescent: -407
OS2TypoDOffset: 1
OS2TypoLinegap: 0
OS2WinAscent: -24
OS2WinAOffset: 1
OS2WinDescent: -14
OS2WinDOffset: 1
HheadAscent: -24
HheadAOffset: 1
HheadDescent: 14
HheadDOffset: 1
OS2SubXSize: 700
OS2SubYSize: 650
OS2SubXOff: 0
OS2SubYOff: 140
OS2SupXSize: 700
OS2SupYSize: 650
OS2SupXOff: 0
OS2SupYOff: 477
OS2StrikeYSize: 50
OS2StrikeYPos: 250
OS2Vendor: 'pyrs'
OS2CodePages: 00000093.00000000
OS2UnicodeRanges: a000002f.0000004a.00000000.00000000
MarkAttachClasses: 1
DEI: 91125
LangName: 1033 "" "" "Regular" "KimberlyGeswein: Give You Glory: 2010" "GiveYouGlory" "Version 1.001" "" "Give You Glory is a trademark of Kimberly Geswein." "Kimberly Geswein" "Kimberly Geswein" "Copyright (c) 2010 by Kimberly Geswein. All rights reserved." "http://kimberlygeswein.com" "http://kimberlygeswein.com" "Copyright (c) 2010, Kimberly Geswein (kimberlygeswein.com)+AA0ACgANAAoA-This Font Software is licensed under the SIL Open Font License, Version 1.1.  This license is copied below, and is also available with a FAQ at:  http://scripts.sil.org/OFL" "http://scripts.sil.org/OFL" 
Encoding: UnicodeBmp
UnicodeInterp: none
NameList: Adobe Glyph List
DisplaySize: -36
AntiAlias: 1
FitToEm: 1
WinInfo: 34 34 13
BeginPrivate: 2
BlueValues 22 [-3 0 559 559 788 788]
OtherBlues 11 [-581 -514]
EndPrivate

StartChar: E
Encoding: 69 69 4
Width: 727
Flags: HMW
HStem: 702 46
LayerCount: 2
Fore
SplineSet
644.663100303 134.118713715 m 0,0,1
 588.091450824 79.0752856304 588.091450824 79.0752856304 448.564777583 36.7288297892 c 128,-1,2
 309.038104342 -5.61762605204 309.038104342 -5.61762605204 230.700407215 -5.61762605204 c 128,-1,3
 152.362710087 -5.61762605204 152.362710087 -5.61762605204 117.681355043 15.191186974 c 128,-1,4
 83 36 83 36 67.4705882353 131.602941176 c 128,-1,5
 51.9411764706 227.205882353 51.9411764706 227.205882353 51.9411764706 318.583044983 c 0,6,7
 51.9411764706 402.176470588 51.9411764706 402.176470588 57.5 532.5 c 2,8,-1
 62 638 l 1,9,10
 59.5334178574 631.696512302 59.5334178574 631.696512302 52.9237405047 631.696512302 c 128,-1,11
 46.314063152 631.696512302 46.314063152 631.696512302 29.7785880147 643.137675433 c 128,-1,12
 13.2431128774 654.578838563 13.2431128774 654.578838563 13.2431128774 670.121363827 c 0,13,14
 13.2431128774 685.186969666 13.2431128774 685.186969666 31 693 c 0,15,16
 69 710 69 710 151.5 724 c 128,-1,17
 234 738 234 738 244 740 c 1,18,-1
 717 757 l 1,19,20
 731.315789474 764.605263158 731.315789474 764.605263158 746.309210526 764.605263158 c 128,-1,21
 761.302631579 764.605263158 761.302631579 764.605263158 776.243548799 753.195835462 c 128,-1,22
 791.184466019 741.786407767 791.184466019 741.786407767 791.184466019 728.883495146 c 128,-1,23
 791.184466019 715.980582524 791.184466019 715.980582524 780 702 c 1,24,25
 734.742857143 704.057142857 734.742857143 704.057142857 647.828571429 704.057142857 c 128,-1,26
 560.914285714 704.057142857 560.914285714 704.057142857 394 696.5 c 0,27,28
 140 685 140 685 118 646 c 0,29,30
 103.186046512 618.488372093 103.186046512 618.488372093 99.5930232558 589.744186047 c 0,31,32
 92.6666666667 534.333333333 92.6666666667 534.333333333 92.6666666667 521.666666667 c 128,-1,33
 92.6666666667 509 92.6666666667 509 93.3333333333 492 c 128,-1,34
 94 475 94 475 94.5 459 c 128,-1,35
 95 443 95 443 98 415.5 c 128,-1,36
 101 388 101 388 102 376.5 c 0,37,38
 106.538461538 324.307692308 106.538461538 324.307692308 110 307 c 1,39,40
 132 306 132 306 134.5 305.5 c 128,-1,41
 137 305 137 305 145 308.5 c 128,-1,42
 153 312 153 312 165 315 c 0,43,44
 225 325 225 325 410 362 c 0,45,46
 472.413043478 375.239130435 472.413043478 375.239130435 476.5 387.5 c 0,47,48
 481.297297297 401.891891892 481.297297297 401.891891892 504 410 c 0,49,50
 511.078019623 412.313967954 511.078019623 412.313967954 516.26164248 412.313967954 c 0,51,52
 530.445548624 412.313967954 530.445548624 412.313967954 530.445548624 394.98860884 c 0,53,54
 530.414623178 365.356192634 530.414623178 365.356192634 496.728644819 337.727062056 c 0,55,56
 475.583690044 320.38403849 475.583690044 320.38403849 449 315 c 0,57,58
 351 294 351 294 157 260 c 0,59,60
 155 259 155 259 144.5 254 c 128,-1,61
 134 249 134 249 123.5 244 c 128,-1,62
 113 239 113 239 107.5 234 c 128,-1,63
 102 229 102 229 102 228 c 0,64,65
 105.204545455 149.488636364 105.204545455 149.488636364 130 87.5 c 0,66,67
 139 65 139 65 162.5 55.5 c 0,68,69
 201.305921053 39.8125 201.305921053 39.8125 215.965460526 39.8125 c 128,-1,70
 230.625 39.8125 230.625 39.8125 262.3125 45.90625 c 0,71,72
 301.648820239 53.4709269691 301.648820239 53.4709269691 355.32441012 69.2354634845 c 128,-1,73
 409 85 409 85 417 87 c 128,-1,74
 425 89 425 89 462.5 98 c 128,-1,75
 500 107 500 107 521 113.5 c 128,-1,76
 542 120 542 120 568 134 c 128,-1,77
 594 148 594 148 606 166 c 0,78,79
 610 172 610 172 603 185 c 128,-1,80
 596 198 596 198 606 213 c 1,81,82
 665.459680944 197.64770533 665.459680944 197.64770533 665.459680944 170.442676146 c 0,83,84
 665.459680944 154.353497418 665.459680944 154.353497418 644.663100303 134.118713715 c 0,0,1
EndSplineSet
EndChar

StartChar: F
Encoding: 70 70 5
Width: 709
Flags: HMW
HStem: 606 64<27 133 39 133>
VStem: 126 55
LayerCount: 2
Fore
SplineSet
188.5 552.03125 m 2,0,-1
 180 106.055555556 l 2,1,2
 180 63.6666666667 180 63.6666666667 181 32 c 1,3,-1
 165 0 l 2,4,5
 164.75 -0.25 164.75 -0.25 163.25 -0.25 c 0,6,7
 148.25 -0.25 148.25 -0.25 137.625 10.375 c 128,-1,8
 127 21 127 21 126 24 c 0,9,10
 124.608695652 44.1739130435 124.608695652 44.1739130435 124.608695652 76.7391304348 c 128,-1,11
 124.608695652 109.304347826 124.608695652 109.304347826 130.804347826 174.152173913 c 128,-1,12
 137 239 137 239 145.5 299.5 c 0,13,14
 155.628571429 371.591596639 155.628571429 371.591596639 155.628571429 447.238655462 c 128,-1,15
 155.628571429 522.885714286 155.628571429 522.885714286 141 575 c 1,16,-1
 133 606 l 1,17,-1
 39 606 l 2,18,19
 23.3636363636 606 23.3636363636 606 23.3636363636 631.388429752 c 0,20,21
 23.3636363636 650.545454545 23.3636363636 650.545454545 31 662 c 1,22,-1
 39 670 l 1,23,-1
 133 670 l 1,24,-1
 133 725 l 2,25,26
 133 740.076663734 133 740.076663734 139.165921942 740.076663734 c 0,27,28
 148.028706215 740.076663734 148.028706215 740.076663734 169.630695718 708.927272727 c 1,29,-1
 188 678 l 1,30,31
 238 669.666666667 238 669.666666667 269.5 669.666666667 c 128,-1,32
 301 669.666666667 301 669.666666667 325 670.333333333 c 128,-1,33
 349 671 349 671 370 671.5 c 128,-1,34
 391 672 391 672 434.5 677 c 128,-1,35
 478 682 478 682 490.5 683.5 c 128,-1,36
 503 685 503 685 555 692.5 c 0,37,38
 615.253968254 701.19047619 615.253968254 701.19047619 616.707482993 701.19047619 c 0,39,40
 629.761904762 701.19047619 629.761904762 701.19047619 643.741608119 686.832943013 c 128,-1,41
 657.721311475 672.475409836 657.721311475 672.475409836 657.721311475 665.098360656 c 128,-1,42
 657.721311475 657.721311475 657.721311475 657.721311475 653 653 c 0,43,44
 622 622 622 622 523.5 617 c 0,45,46
 478.727272727 614.727272727 478.727272727 614.727272727 436.433884298 614.727272727 c 1,47,-1
 296.65625 619.5 l 1,48,49
 236 619.5 236 619.5 188 606 c 1,50,51
 188.5 582 188.5 582 188.5 552.03125 c 2,0,-1
220 371 m 0,52,53
 219 371 219 371 212 378 c 1,54,55
 229.85483871 432.225806452 229.85483871 432.225806452 255.581165453 432.225806452 c 0,56,57
 268.758064516 432.225806452 268.758064516 432.225806452 284 418 c 1,58,59
 285.777777778 417.888888889 285.777777778 417.888888889 296.555555556 417.888888889 c 128,-1,60
 307.333333333 417.888888889 307.333333333 417.888888889 369.666666667 425.444444444 c 128,-1,61
 432 433 432 433 497 442 c 0,62,63
 599.142857143 456.142857143 599.142857143 456.142857143 640.642857143 456.142857143 c 128,-1,64
 682.142857143 456.142857143 682.142857143 456.142857143 685 449 c 1,65,66
 688.063929752 444.867257544 688.063929752 444.867257544 688.063929752 440.666116894 c 0,67,68
 688.063929752 424.774062817 688.063929752 424.774062817 644.220509222 407.903262149 c 0,69,70
 551.119470999 372.078295965 551.119470999 372.078295965 385.655795005 359.982550095 c 0,71,72
 343.946298588 356.933497389 343.946298588 356.933497389 293.695234803 356.933497389 c 128,-1,73
 243.444171018 356.933497389 243.444171018 356.933497389 220 371 c 0,52,53
EndSplineSet
EndChar

StartChar: G
Encoding: 71 71 6
Width: 796
Flags: HW
LayerCount: 2
Fore
SplineSet
201 -23 m 0,0,1
 63.514623561 11.8200561739 63.514623561 11.8200561739 34.3347499771 181.956646255 c 0,2,3
 26.8183267923 225.782011248 26.8183267923 225.782011248 26.8183267923 272.274978797 c 0,4,5
 26.8183267923 383.369863592 26.8183267923 383.369863592 74.486613618 523.682839925 c 128,-1,6
 122.154900444 663.995816259 122.154900444 663.995816259 201.342994866 729.536556552 c 0,7,8
 240.813471548 762.204652437 240.813471548 762.204652437 280.533347354 762.204652437 c 0,9,10
 324.364971028 762.204652437 324.364971028 762.204652437 365 705 c 1,11,12
 429 617.888888889 429 617.888888889 429 511.814814815 c 0,13,14
 429 498.555555556 429 498.555555556 428 485 c 1,15,16
 403.314969537 454.051603598 403.314969537 454.051603598 376.09995004 454.051603598 c 128,-1,17
 348.884930544 454.051603598 348.884930544 454.051603598 319.776816049 470.842925632 c 128,-1,18
 290.668701554 487.634247665 290.668701554 487.634247665 281.860417682 509.031689181 c 0,19,20
 277.345298657 520 277.345298657 520 287 520 c 2,21,-1
 373 520 l 1,22,23
 373.533333333 524.533333333 373.533333333 524.533333333 373.533333333 535.433333333 c 128,-1,24
 373.533333333 546.333333333 373.533333333 546.333333333 368.766666667 576.666666667 c 0,25,26
 353.896995708 671.291845494 353.896995708 671.291845494 320 707.5 c 0,27,28
 304.092307692 724.492307692 304.092307692 724.492307692 290.923076923 724.492307692 c 128,-1,29
 277.753846154 724.492307692 277.753846154 724.492307692 270 722 c 0,30,31
 184 693 184 693 117.634543021 457.88898738 c 1,32,33
 76.4262295082 318.851524026 76.4262295082 318.851524026 76.4262295082 228.72084398 c 128,-1,34
 76.4262295082 138.590163934 76.4262295082 138.590163934 104.713114754 90.7950819672 c 128,-1,35
 133 43 133 43 180 18.5 c 0,36,37
 211.547945205 2.05479452055 211.547945205 2.05479452055 239.914383562 2.05479452055 c 0,38,39
 319.559153176 2.05479452055 319.559153176 2.05479452055 413 51 c 0,40,41
 476 84 476 84 538 147.5 c 128,-1,42
 600 211 600 211 646 292 c 0,43,44
 650 299 650 299 662.5 317 c 0,45,46
 687.70661157 353.297520661 687.70661157 353.297520661 693 378 c 0,47,48
 692.696061818 378.072945164 692.696061818 378.072945164 686.901324908 378.072945164 c 128,-1,49
 681.106587998 378.072945164 681.106587998 378.072945164 571.211013383 340.303669133 c 128,-1,50
 461.315438768 302.534393102 461.315438768 302.534393102 428.462717201 302.534393102 c 128,-1,51
 395.609995634 302.534393102 395.609995634 302.534393102 393.458044053 314.162268274 c 0,52,53
 388.360704706 341.705279076 388.360704706 341.705279076 449 374.5 c 0,54,55
 480.289156627 391.421686747 480.289156627 391.421686747 496.168674699 391.421686747 c 128,-1,56
 512.048192771 391.421686747 512.048192771 391.421686747 520 386 c 1,57,58
 548 391 548 391 626.5 424 c 128,-1,59
 705 457 705 457 740 457 c 0,60,61
 766.5 457 766.5 457 773.25 451 c 0,62,63
 785 440.555555556 785 440.555555556 785 436.444444444 c 128,-1,64
 785 432.333333333 785 432.333333333 784 427.666666667 c 128,-1,65
 783 423 783 423 782 418 c 128,-1,66
 781 413 781 413 776.5 405 c 128,-1,67
 772 397 772 397 770 393 c 128,-1,68
 768 389 768 389 762.5 381 c 128,-1,69
 757 373 757 373 756 371 c 0,70,71
 657.879740376 200.620634452 657.879740376 200.620634452 604.126697965 133.186178746 c 0,72,73
 469.318282937 -35.9341479211 469.318282937 -35.9341479211 301.570120504 -35.9341479211 c 0,74,75
 253.455155458 -35.9341479211 253.455155458 -35.9341479211 201 -23 c 0,0,1
EndSplineSet
EndChar

StartChar: H
Encoding: 72 72 7
Width: 717
Flags: HMW
VStem: 129 44 583 55
LayerCount: 2
Fore
SplineSet
637.111111111 183.271604938 m 1,0,-1
 640.285714286 119.642857143 l 1,1,2
 640.285714286 88.1428571429 640.285714286 88.1428571429 630 55 c 1,3,4
 618.333333333 46.6666666667 618.333333333 46.6666666667 606.208333333 46.6666666667 c 128,-1,5
 594.083333333 46.6666666667 594.083333333 46.6666666667 583 63 c 1,6,7
 582.219512195 74.512195122 582.219512195 74.512195122 582.219512195 110.353658537 c 128,-1,8
 582.219512195 146.195121951 582.219512195 146.195121951 594.909756098 241.564227642 c 128,-1,9
 607.6 336.933333333 607.6 336.933333333 607.6 376.566666667 c 128,-1,10
 607.6 416.2 607.6 416.2 606 433 c 1,11,12
 461.261538462 384.753846154 461.261538462 384.753846154 238.586982249 384.753846154 c 0,13,14
 202.8 384.753846154 202.8 384.753846154 165 386 c 1,15,16
 161.909090909 352 161.909090909 352 149.954545455 285.5 c 128,-1,17
 138 219 138 219 128 141.5 c 128,-1,18
 118 64 118 64 111 24 c 0,19,20
 106.956521739 3.10869565217 106.956521739 3.10869565217 93.8298676749 3.10869565217 c 0,21,22
 87.4782608696 3.10869565217 87.4782608696 3.10869565217 79 8 c 0,23,24
 75 11 75 11 65.5 26.5 c 128,-1,25
 56 42 56 42 54.3888888889 49.6111111111 c 128,-1,26
 52.7777777778 57.2222222222 52.7777777778 57.2222222222 52.7777777778 71.962962963 c 0,27,28
 52.7777777778 123.555555556 52.7777777778 123.555555556 83.8888888889 245.777777778 c 128,-1,29
 115 368 115 368 118 397 c 1,30,-1
 39 397 l 2,31,32
 33 397 33 397 25.99375 412.4875 c 128,-1,33
 18.9875 427.975 18.9875 427.975 18.9875 437.05 c 128,-1,34
 18.9875 446.125 18.9875 446.125 24.6604166667 454.229166667 c 128,-1,35
 30.3333333333 462.333333333 30.3333333333 462.333333333 44.8888888889 462.333333333 c 128,-1,36
 59.4444444444 462.333333333 59.4444444444 462.333333333 79 457 c 1,37,-1
 118 449 l 1,38,-1
 126 473 l 1,39,40
 129.5 478.25 129.5 478.25 129.5 543.875 c 128,-1,41
 129.5 609.5 129.5 609.5 129.25 619.75 c 128,-1,42
 129 630 129 630 125 649 c 0,43,44
 116.416666667 689.770833333 116.416666667 689.770833333 116.416666667 706.010416667 c 128,-1,45
 116.416666667 722.25 116.416666667 722.25 116.708333333 733.625 c 128,-1,46
 117 745 117 745 126 755.5 c 128,-1,47
 135 766 135 766 153 762 c 0,48,49
 157 761 157 761 162.5 750.5 c 128,-1,50
 168 740 168 740 167.692307692 730.692307692 c 128,-1,51
 167.384615385 721.384615385 167.384615385 721.384615385 167.384615385 701.360946746 c 2,52,-1
 173.615384615 486.159763314 l 2,53,54
 173.615384615 465.923076923 173.615384615 465.923076923 173 449 c 1,55,56
 246.516129032 430.967741935 246.516129032 430.967741935 318.516129032 430.967741935 c 0,57,58
 497.915461624 430.967741935 497.915461624 430.967741935 574 480 c 0,59,60
 603.134234553 498.578352469 603.134234553 498.578352469 622.85495513 623.517503214 c 128,-1,61
 642.575675706 748.45665396 642.575675706 748.45665396 651.418279201 767.615807793 c 128,-1,62
 660.260882696 786.774961627 660.260882696 786.774961627 670.278204402 786.774961627 c 0,63,64
 684.602217985 786.774961627 684.602217985 786.774961627 704 753 c 1,65,-1
 704 730 l 1,66,67
 697 632 697 632 671.5 464 c 0,68,69
 637.111111111 237.437908497 637.111111111 237.437908497 637.111111111 183.271604938 c 1,0,-1
EndSplineSet
EndChar

StartChar: I
Encoding: 73 73 8
Width: 134
Flags: HMW
VStem: 32 55
LayerCount: 2
Fore
SplineSet
102 614 m 1,0,1
 84.3333333333 485.622222222 84.3333333333 485.622222222 84.3333333333 265.555555556 c 0,2,3
 84.3333333333 176 84.3333333333 176 87 102 c 1,4,5
 102 113 102 113 111 111 c 1,6,7
 111.680851064 104.361702128 111.680851064 104.361702128 111.680851064 97.564056134 c 0,8,9
 111.680851064 64.4255319149 111.680851064 64.4255319149 97.3476197765 31.7163630797 c 128,-1,10
 83.0143884892 -0.992805755396 83.0143884892 -0.992805755396 63.7642979142 -0.992805755396 c 0,11,12
 47.9928057554 -0.992805755396 47.9928057554 -0.992805755396 32 15 c 1,13,14
 31 50 31 50 31 95.5555555556 c 2,15,-1
 40.1428571429 584.979591837 l 2,16,17
 40.1428571429 600.571428571 40.1428571429 600.571428571 40 614 c 1,18,19
 43.4296564195 654.012658228 43.4296564195 654.012658228 72.2996314693 654.012658228 c 0,20,21
 92.253164557 654.012658228 92.253164557 654.012658228 102 623 c 1,22,-1
 102 614 l 1,0,1
EndSplineSet
EndChar

StartChar: J
Encoding: 74 74 9
Width: 672
Flags: HW
LayerCount: 2
Fore
SplineSet
483 270 m 0,0,1
 455.482758621 91.1379310345 455.482758621 91.1379310345 376.97826087 36.1847826087 c 0,2,3
 332.956521739 5.36956521739 332.956521739 5.36956521739 287.943143813 5.36956521739 c 128,-1,4
 242.929765886 5.36956521739 242.929765886 5.36956521739 220 24 c 1,5,6
 152 88 152 88 115.5 135 c 0,7,8
 44.7142857143 226.148727984 44.7142857143 226.148727984 44.7142857143 353.897959184 c 0,9,10
 44.7142857143 376.714285714 44.7142857143 376.714285714 47 401 c 1,11,12
 51 415 51 415 62 410 c 1,13,14
 77 294 77 294 115 216.5 c 128,-1,15
 153 139 153 139 236 63 c 1,16,17
 257.224489796 46.6734693878 257.224489796 46.6734693878 281.11453561 46.6734693878 c 0,18,19
 315.271750806 46.6734693878 315.271750806 46.6734693878 346 71 c 0,20,21
 417 126 417 126 443 235.5 c 0,22,23
 457.537634409 296.725806452 457.537634409 296.725806452 457.537634409 351.615591398 c 128,-1,24
 457.537634409 406.505376344 457.537634409 406.505376344 448.5 455 c 0,25,26
 428 565 428 565 375 634 c 1,27,28
 362.058823529 635.882352941 362.058823529 635.882352941 327.970588235 635.882352941 c 128,-1,29
 293.882352941 635.882352941 293.882352941 635.882352941 204.892789374 615.037950664 c 128,-1,30
 115.903225806 594.193548387 115.903225806 594.193548387 63.6056191467 594.193548387 c 0,31,32
 53.5483870968 594.193548387 53.5483870968 594.193548387 45 595 c 1,33,34
 32.5496240931 609.986563592 32.5496240931 609.986563592 32.5496240931 621.348695212 c 0,35,36
 32.5496240931 648.712874655 32.5496240931 648.712874655 104.764669997 655.054514444 c 0,37,38
 116.497661552 656.084859369 116.497661552 656.084859369 133.350749304 656.831531743 c 0,39,40
 203.910336654 659.957658858 203.910336654 659.957658858 320 682 c 1,41,42
 353 687 353 687 359 690 c 1,43,-1
 611 721.5 l 2,44,45
 823 748 823 748 856 752 c 1,46,47
 929.076923077 776.038461538 929.076923077 776.038461538 933.736686391 776.038461538 c 0,48,49
 966.860722313 776.038461538 966.860722313 776.038461538 966.860722313 739.442043926 c 0,50,51
 966.860722313 727.650690546 966.860722313 727.650690546 951.952571383 709.920953405 c 128,-1,52
 937.044420453 692.191216263 937.044420453 692.191216263 914.15683227 689.906846588 c 1,53,54
 904.045112605 690.349611591 904.045112605 690.349611591 903 697 c 1,55,-1
 840 697 l 1,56,-1
 478 650 l 1,57,-1
 446 643 l 1,58,59
 483.6992 588.5456 483.6992 588.5456 491.5 422.5 c 0,60,61
 492.290322581 405.677419355 492.290322581 405.677419355 492.290322581 368.032258065 c 128,-1,62
 492.290322581 330.387096774 492.290322581 330.387096774 483 270 c 0,0,1
EndSplineSet
EndChar

StartChar: K
Encoding: 75 75 10
Width: 757
Flags: HMW
HStem: 754 20G<529 568>
VStem: 32 55
LayerCount: 2
Fore
SplineSet
412.278344895 165.353581746 m 0,0,1
 553.440231101 79.5105843788 553.440231101 79.5105843788 645.591606538 79.5105843788 c 128,-1,2
 737.742981976 79.5105843788 737.742981976 79.5105843788 826 156 c 1,3,4
 839.428284937 149.179283842 839.428284937 149.179283842 839.428284937 135.242706483 c 128,-1,5
 839.428284937 121.306129125 839.428284937 121.306129125 809.992717732 94.9896581442 c 0,6,7
 753.89681429 44.8378739171 753.89681429 44.8378739171 670.691484023 21.8063604958 c 0,8,9
 637.322095418 12.5696022372 637.322095418 12.5696022372 618.488640159 12.5696022372 c 128,-1,10
 599.655184899 12.5696022372 599.655184899 12.5696022372 590 14 c 0,11,12
 546 21 546 21 480 60 c 128,-1,13
 414 99 414 99 355.5 145 c 0,14,15
 193.465183752 272.411992263 193.465183752 272.411992263 95 317 c 1,16,17
 81 245.25 81 245.25 81 199.625 c 0,18,19
 81 132 81 132 87 24 c 1,20,21
 90.1051667256 6.25619013963 90.1051667256 6.25619013963 77.6232088685 6.25619013963 c 0,22,23
 52.2239221968 6.25619013963 52.2239221968 6.25619013963 32 32 c 1,24,-1
 32 55 l 1,25,-1
 39.5 162.5 l 2,26,27
 49.8 310.133333333 49.8 310.133333333 49.8 364.266666667 c 128,-1,28
 49.8 418.4 49.8 418.4 44.9 499.2 c 128,-1,29
 40 580 40 580 40 583.173976758 c 128,-1,30
 40 586.347953516 40 586.347953516 32.4196913036 625.64342841 c 128,-1,31
 24.8393826072 664.938903303 24.8393826072 664.938903303 24.8393826072 708.333588728 c 128,-1,32
 24.8393826072 751.728274152 24.8393826072 751.728274152 46.9156627492 751.728274152 c 0,33,34
 51.0620738516 751.728274152 51.0620738516 751.728274152 56 750 c 1,35,36
 87.3572710952 723.868940754 87.3572710952 723.868940754 92 504.5 c 0,37,38
 94 410 94 410 95 403 c 1,39,40
 99.6052631579 401.684210526 99.6052631579 401.684210526 105.474376731 401.684210526 c 0,41,42
 144.210526316 401.684210526 144.210526316 401.684210526 253.968991828 467.965094391 c 128,-1,43
 363.72745734 534.245978257 363.72745734 534.245978257 408.949020308 573.134484842 c 0,44,45
 505.511726607 656.174061394 505.511726607 656.174061394 521 766 c 0,46,47
 521 768 521 768 524.5 771 c 128,-1,48
 528 774 528 774 530.5 774.5 c 128,-1,49
 533 775 533 775 548 775 c 128,-1,50
 563 775 563 775 568 774 c 1,51,52
 587.592592593 756.962962963 587.592592593 756.962962963 587.592592593 734.120713306 c 0,53,54
 587.592592593 642.693270736 587.592592593 642.693270736 378.5 492.5 c 0,55,56
 317.050761421 448.360406091 317.050761421 448.360406091 277 427 c 1,57,58
 214 397 214 397 151 364 c 1,59,-1
 139 352 l 1,60,61
 355.324332037 199.988307217 355.324332037 199.988307217 412.278344895 165.353581746 c 0,0,1
EndSplineSet
EndChar

StartChar: L
Encoding: 76 76 11
Width: 693
Flags: HW
LayerCount: 2
Fore
SplineSet
551 8 m 0,0,1
 480.565217391 15.0434782609 480.565217391 15.0434782609 424.098662207 15.0434782609 c 128,-1,2
 367.632107023 15.0434782609 367.632107023 15.0434782609 243.882720178 7.45507246377 c 128,-1,3
 120.133333333 -0.133333333333 120.133333333 -0.133333333333 84.65 -0.133333333333 c 128,-1,4
 49.1666666667 -0.133333333333 49.1666666667 -0.133333333333 39 8 c 1,5,6
 20 15 20 15 16.5588235294 21.8823529412 c 128,-1,7
 13.1176470588 28.7647058824 13.1176470588 28.7647058824 13.1176470588 36.7058823529 c 128,-1,8
 13.1176470588 44.6470588235 13.1176470588 44.6470588235 19.0588235294 73.8235294118 c 128,-1,9
 25 103 25 103 46 193.5 c 128,-1,10
 67 284 67 284 78.5 338.5 c 0,11,12
 103.333333333 456.188405797 103.333333333 456.188405797 103.333333333 574.222222222 c 0,13,14
 103.333333333 599 103.333333333 599 102 623 c 1,15,16
 109.101687752 636.611568191 109.101687752 636.611568191 116.496753208 636.611568191 c 0,17,18
 127.259559654 636.611568191 127.259559654 636.611568191 138.643798828 607.779541016 c 128,-1,19
 150.065400978 578.852887373 150.065400978 578.852887373 150.065400978 561.551806097 c 0,20,21
 150.065400978 403.107384597 150.065400978 403.107384597 86 102 c 0,22,23
 79.7209302326 68.511627907 79.7209302326 68.511627907 111 56 c 0,24,25
 143.5 43 143.5 43 175.25 43 c 128,-1,26
 207 43 207 43 222.5 43.5 c 128,-1,27
 238 44 238 44 259 45.5 c 0,28,29
 417.421052632 56.8157894737 417.421052632 56.8157894737 457 63 c 1,30,31
 470 76 470 76 536 87 c 128,-1,32
 602 98 602 98 625.2 112.5 c 128,-1,33
 648.4 127 648.4 127 657.3 127 c 128,-1,34
 666.2 127 666.2 127 669 126 c 1,35,-1
 669 102 l 1,36,37
 575 16 575 16 559 0 c 1,38,39
 559 2 559 2 555.5 5 c 128,-1,40
 552 8 552 8 551 8 c 0,0,1
EndSplineSet
EndChar

StartChar: M
Encoding: 77 77 12
Width: 985
Flags: HW
LayerCount: 2
Fore
SplineSet
31 71 m 1,0,1
 53.4516129032 232.651612903 53.4516129032 232.651612903 53.4516129032 465.258064516 c 0,2,3
 53.4516129032 562.032258065 53.4516129032 562.032258065 47 633 c 0,4,5
 46 643 46 643 36.5 667 c 0,6,7
 15.1 721.063157895 15.1 721.063157895 15.1 733.206578947 c 128,-1,8
 15.1 745.35 15.1 745.35 16 751.5 c 0,9,10
 19 772 19 772 39 782 c 0,11,12
 40 783 40 783 43 783 c 128,-1,13
 46 783 46 783 47 782 c 2,14,-1
 86 743 l 1,15,16
 85.0384615385 730.692307692 85.0384615385 730.692307692 85.0384615385 692.826923077 c 128,-1,17
 85.0384615385 654.961538462 85.0384615385 654.961538462 102 554 c 1,18,19
 140 650 140 650 191 689 c 0,20,21
 226.203539823 715.920353982 226.203539823 715.920353982 259.262980656 715.920353982 c 0,22,23
 319.390448581 715.920353982 319.390448581 715.920353982 374.5 635 c 0,24,25
 414 577 414 577 433 492 c 1,26,27
 460.338582677 507.377952756 460.338582677 507.377952756 499.5 583 c 0,28,29
 514 611 514 611 538.5 641.5 c 128,-1,30
 563 672 563 672 591 688 c 1,31,32
 645.927835052 716.226804124 645.927835052 716.226804124 698.527686258 716.226804124 c 0,33,34
 784.773195876 716.226804124 784.773195876 716.226804124 852 649 c 0,35,36
 905 596 905 596 922 523 c 1,37,38
 931.11627907 474.162790698 931.11627907 474.162790698 931.11627907 414.360465116 c 0,39,40
 931.11627907 207.787790698 931.11627907 207.787790698 905 87 c 1,41,42
 911 83 911 83 925.5 95 c 128,-1,43
 940 107 940 107 952 102 c 1,44,45
 953.951807229 95.4939759036 953.951807229 95.4939759036 953.951807229 88.3530265641 c 0,46,47
 953.951807229 62.5662650602 953.951807229 62.5662650602 930.596204366 31.3056889211 c 128,-1,48
 907.240601504 0.0451127819549 907.240601504 0.0451127819549 887.05093561 0.0451127819549 c 0,49,50
 876.37593985 0.0451127819549 876.37593985 0.0451127819549 870.687969925 4.52255639098 c 128,-1,51
 865 9 865 9 858.5 16 c 128,-1,52
 852 23 852 23 850 24 c 1,53,54
 848.338983051 37.2881355932 848.338983051 37.2881355932 848.338983051 81.0677966102 c 128,-1,55
 848.338983051 124.847457627 848.338983051 124.847457627 865.801070473 271.528991971 c 128,-1,56
 883.263157895 418.210526316 883.263157895 418.210526316 883.263157895 460.605263158 c 128,-1,57
 883.263157895 503 883.263157895 503 882 515 c 0,58,59
 875 580 875 580 834 617.5 c 0,60,61
 787.228461538 660.278846154 787.228461538 660.278846154 721.593934911 660.278846154 c 0,62,63
 677.480769231 660.278846154 677.480769231 660.278846154 627.240384615 640.639423077 c 128,-1,64
 577 621 577 621 541.5 575.5 c 128,-1,65
 506 530 506 530 483 435.5 c 128,-1,66
 460 341 460 341 443.5 225 c 128,-1,67
 427 109 427 109 422 89.5 c 0,68,69
 415.205128205 63 415.205128205 63 410.102564103 62.5 c 128,-1,70
 405 62 405 62 389.5 62 c 128,-1,71
 374 62 374 62 368.142857143 64.6428571429 c 128,-1,72
 362.285714286 67.2857142857 362.285714286 67.2857142857 362.285714286 95.2857142857 c 128,-1,73
 362.285714286 123.285714286 362.285714286 123.285714286 363.142857143 160.142857143 c 128,-1,74
 364 197 364 197 369.5 266 c 128,-1,75
 375 335 375 335 380.5 403 c 128,-1,76
 386 471 386 471 386 483 c 0,77,78
 383 544 383 544 365.5 588 c 0,79,80
 335.631651885 663.097560976 335.631651885 663.097560976 274.156454491 663.097560976 c 0,81,82
 237.622481442 663.097560976 237.622481442 663.097560976 205.311240721 626.548780488 c 128,-1,83
 173 590 173 590 152.5 538.5 c 128,-1,84
 132 487 132 487 124 366.5 c 128,-1,85
 116 246 116 246 104 142.5 c 128,-1,86
 92 39 92 39 62 15 c 1,87,88
 46 27 46 27 31 63 c 1,89,-1
 31 71 l 1,0,1
EndSplineSet
EndChar

StartChar: N
Encoding: 78 78 13
Width: 851
Flags: HW
LayerCount: 2
Fore
SplineSet
828.981423168 740.328979026 m 0,0,1
 828.981423168 720.961486147 828.981423168 720.961486147 803.5 723 c 0,2,3
 791 724 791 724 788 732 c 1,4,-1
 780 725 l 2,5,6
 774 719 774 719 758 616.5 c 128,-1,7
 742 514 742 514 735 337 c 128,-1,8
 728 160 728 160 717 79 c 1,9,10
 707.900801762 55.6020616736 707.900801762 55.6020616736 693.755587222 55.6020616736 c 0,11,12
 667.144831651 55.6020616736 667.144831651 55.6020616736 622.675616984 138.410181886 c 0,13,14
 600.453106617 179.791715687 600.453106617 179.791715687 591 205 c 1,15,16
 417 426 417 426 221 614 c 1,17,18
 189.441176471 638.735294118 189.441176471 638.735294118 171.705017301 638.735294118 c 0,19,20
 168.647058824 638.735294118 168.647058824 638.735294118 166 638 c 1,21,22
 158 613 158 613 150 575 c 1,23,24
 144 530 144 530 119 327.5 c 128,-1,25
 94 125 94 125 79 15 c 1,26,27
 63 0 63 0 49.25 0 c 128,-1,28
 35.5 0 35.5 0 26.75 11.5 c 0,29,30
 16.75 24.6428571429 16.75 24.6428571429 16.75 48.4464285714 c 128,-1,31
 16.75 72.25 16.75 72.25 19.375 97.625 c 128,-1,32
 22 123 22 123 27 155 c 128,-1,33
 32 187 32 187 38 219 c 128,-1,34
 44 251 44 251 49.5 276 c 0,35,36
 63 337.363636364 63 337.363636364 63 339 c 0,37,38
 102 560 102 560 102 693 c 1,39,40
 132 710.142857143 132 710.142857143 152 706.571428571 c 128,-1,41
 172 703 172 703 184 699.5 c 128,-1,42
 196 696 196 696 210.5 685.5 c 128,-1,43
 225 675 225 675 234.5 668 c 128,-1,44
 244 661 244 661 258 646 c 128,-1,45
 272 631 272 631 278.5 624 c 0,46,47
 308.4 591.8 308.4 591.8 315 583 c 0,48,49
 467 412 467 412 567 292 c 0,50,51
 584 271 584 271 662 166 c 1,52,53
 687 248 687 248 694.5 360 c 128,-1,54
 702 472 702 472 707.5 589 c 128,-1,55
 713 706 713 706 733 787 c 0,56,57
 740.623994428 818.189068116 740.623994428 818.189068116 759.954970477 818.189068116 c 0,58,59
 769.662604228 818.189068116 769.662604228 818.189068116 782.322562793 810.323653892 c 0,60,61
 812.573922783 791.529004927 812.573922783 791.529004927 825.39052789 756.934964967 c 0,62,63
 828.981423168 747.242571881 828.981423168 747.242571881 828.981423168 740.328979026 c 0,0,1
EndSplineSet
EndChar

StartChar: O
Encoding: 79 79 14
Width: 662
Flags: HW
LayerCount: 2
Fore
SplineSet
396.120705451 36.2297297297 m 0,0,1
 334.241410902 1.45945945946 334.241410902 1.45945945946 239.324324324 1.45945945946 c 0,2,3
 209.27027027 1.45945945946 209.27027027 1.45945945946 164.135135135 10.7297297297 c 128,-1,4
 119 20 119 20 77.5 62 c 128,-1,5
 36 104 36 104 24 158 c 1,6,7
 22.875 180.5 22.875 180.5 22.875 202.595703125 c 0,8,9
 22.875 298.34375 22.875 298.34375 46.4375 396.671875 c 128,-1,10
 70 495 70 495 126 630 c 0,11,12
 126 632 126 632 129 635 c 128,-1,13
 132 638 132 638 135.5 638.5 c 128,-1,14
 139 639 139 639 154 639 c 128,-1,15
 169 639 169 639 173 638 c 1,16,17
 174.282051282 629.282051282 174.282051282 629.282051282 174.282051282 610.102564103 c 128,-1,18
 174.282051282 590.923076923 174.282051282 590.923076923 161.641025641 546.461538462 c 128,-1,19
 149 502 149 502 126 453.5 c 0,20,21
 73.1962481962 342.152958153 73.1962481962 342.152958153 57 247 c 0,22,23
 54.5384615385 232.538461538 54.5384615385 232.538461538 54.5384615385 209.269230769 c 128,-1,24
 54.5384615385 186 54.5384615385 186 67 154.5 c 0,25,26
 85 109 85 109 133.760869565 79.9130434783 c 128,-1,27
 182.52173913 50.8260869565 182.52173913 50.8260869565 241.761814745 50.8260869565 c 0,28,29
 341.050724638 50.8260869565 341.050724638 50.8260869565 410 111 c 1,30,31
 576.186024034 251.878507684 576.186024034 251.878507684 576.186024034 428.939021858 c 0,32,33
 576.186024034 555.170746326 576.186024034 555.170746326 500.509886948 641.761951044 c 0,34,35
 423.298465105 730.109880693 423.298465105 730.109880693 341.337127315 730.109880693 c 128,-1,36
 259.375789524 730.109880693 259.375789524 730.109880693 205 662 c 1,37,38
 184.549884144 651.942565972 184.549884144 651.942565972 186.754915101 663.206431255 c 0,39,40
 190.903853486 684.400275658 190.903853486 684.400275658 235.138829171 724.627785008 c 128,-1,41
 279.373804856 764.855294359 279.373804856 764.855294359 307 772 c 0,42,43
 317.893617021 774.723404255 317.893617021 774.723404255 336.276595745 774.723404255 c 128,-1,44
 354.659574468 774.723404255 354.659574468 774.723404255 392.829787234 761.861702128 c 128,-1,45
 431 749 431 749 457 725 c 0,46,47
 462 720 462 720 479 704.5 c 128,-1,48
 496 689 496 689 503.5 681.5 c 128,-1,49
 511 674 511 674 526.5 659 c 128,-1,50
 542 644 542 644 550.5 633.5 c 128,-1,51
 559 623 559 623 570.5 608.5 c 0,52,53
 635.820512821 526.1393534 635.820512821 526.1393534 635.820512821 408.500657462 c 0,54,55
 635.820512821 308.461538462 635.820512821 308.461538462 577 206 c 0,56,57
 519.261390263 105.42306691 519.261390263 105.42306691 396.120705451 36.2297297297 c 0,0,1
EndSplineSet
EndChar

StartChar: P
Encoding: 80 80 15
Width: 578
Flags: HW
LayerCount: 2
Fore
SplineSet
170.611205521 -68.886190065 m 128,-1,1
 159.961703235 -68.886190065 159.961703235 -68.886190065 143 -41 c 1,2,3
 133 29 133 29 118.5 139 c 128,-1,4
 104 249 104 249 97 293.5 c 0,5,6
 74.5176470588 436.423529412 74.5176470588 436.423529412 34 612 c 0,7,8
 31.9914209593 623.900830816 31.9914209593 623.900830816 31.9914209593 635.255111796 c 0,9,10
 31.9914209593 706.192396283 31.9914209593 706.192396283 110.201919279 755.676096701 c 128,-1,11
 188.412417599 805.159797119 188.412417599 805.159797119 290.704750377 805.159797119 c 0,12,13
 434.47109807 805.159797119 434.47109807 805.159797119 499.876608818 719.11053111 c 0,14,15
 538.572443397 668.201240362 538.572443397 668.201240362 538.572443397 595.593483719 c 0,16,17
 538.572443397 559.480588052 538.572443397 559.480588052 529 518 c 1,18,19
 499.338028169 419.126760563 499.338028169 419.126760563 462 375 c 0,20,21
 440 349 440 349 417 334 c 128,-1,22
 394 319 394 319 354.5 308.5 c 0,23,24
 289.809283552 291.303733602 289.809283552 291.303733602 167 282 c 1,25,-1
 135 298 l 1,26,-1
 135 290 l 1,27,28
 138 274 138 274 151.5 183.5 c 128,-1,29
 165 93 165 93 167 77 c 1,30,31
 181.260707807 38.1071605275 181.260707807 38.1071605275 181.260707807 -15.3895147688 c 128,-1,0
 181.260707807 -68.886190065 181.260707807 -68.886190065 170.611205521 -68.886190065 c 128,-1,1
210.263888889 336.541666667 m 2,32,-1
 280.75 332.75 l 2,33,34
 297.75 332.75 297.75 332.75 315.5 334.5 c 0,35,36
 351 338 351 338 389 369 c 128,-1,37
 427 400 427 400 457.5 462 c 0,38,39
 495.674418605 539.600457491 495.674418605 539.600457491 495.674418605 601.323147647 c 0,40,41
 495.674418605 670.655104454 495.674418605 670.655104454 439.5 713.5 c 0,42,43
 388.545454545 752.363636364 388.545454545 752.363636364 305.82231405 752.363636364 c 0,44,45
 209.080808081 752.363636364 209.080808081 752.363636364 138.5 703.5 c 0,46,47
 106 681 106 681 90 651 c 1,48,49
 88.6666666667 644.333333333 88.6666666667 644.333333333 88.6666666667 635.166666667 c 128,-1,50
 88.6666666667 626 88.6666666667 626 89.3333333333 611 c 128,-1,51
 90 596 90 596 95.5 553.5 c 128,-1,52
 101 511 101 511 106 477.5 c 128,-1,53
 111 444 111 444 116 411 c 128,-1,54
 121 378 121 378 122.5 365.5 c 128,-1,55
 124 353 124 353 128 344 c 128,-1,56
 132 335 132 335 135 313 c 1,57,58
 154 333 154 333 184.5 335.5 c 0,59,60
 197.208333333 336.541666667 197.208333333 336.541666667 210.263888889 336.541666667 c 2,32,-1
EndSplineSet
EndChar

StartChar: Q
Encoding: 81 81 16
Width: 614
Flags: HW
LayerCount: 2
Fore
SplineSet
570.116973266 1.42186072385 m 0,0,1
 600.865478852 1.42186072385 600.865478852 1.42186072385 600.865478852 -47.862309797 c 0,2,3
 600.865478852 -79.8990932823 600.865478852 -79.8990932823 583.569736072 -105.666962603 c 128,-1,4
 566.273993292 -131.434831924 566.273993292 -131.434831924 550.589129979 -131.434831924 c 128,-1,5
 534.904266666 -131.434831924 534.904266666 -131.434831924 512.452133333 -111.217415962 c 128,-1,6
 490 -91 490 -91 442 -28 c 128,-1,7
 394 35 394 35 362 63 c 0,8,9
 360.181818182 63.7272727273 360.181818182 63.7272727273 348.954545455 63.7272727273 c 128,-1,10
 337.727272727 63.7272727273 337.727272727 63.7272727273 268.429425837 47.8373205742 c 128,-1,11
 199.131578947 31.9473684211 199.131578947 31.9473684211 190.434210526 31.9473684211 c 128,-1,12
 181.736842105 31.9473684211 181.736842105 31.9473684211 176.829746235 31.3465218722 c 128,-1,13
 171.922650366 30.7456753233 171.922650366 30.7456753233 163.254738728 30.7456753233 c 0,14,15
 68.4024297241 30.7456753233 68.4024297241 30.7456753233 22.5793433839 180.948060944 c 0,16,17
 -9.88379252684 287.358188415 -9.88379252684 287.358188415 -9.88379252684 424.544080222 c 0,18,19
 -9.88379252684 477.951590632 -9.88379252684 477.951590632 -4.96366640057 536.023488444 c 0,20,21
 9.64612903075 708.46186209 9.64612903075 708.46186209 54.532143952 765.578706708 c 0,22,23
 69.0210150835 784.015598523 69.0210150835 784.015598523 81.7602905094 784.015598523 c 128,-1,24
 94.4995659353 784.015598523 94.4995659353 784.015598523 105 776 c 0,25,26
 105.159758433 775.76036235 105.159758433 775.76036235 101.903943731 760.037459295 c 0,27,28
 50.4636810078 511.623363916 50.4636810078 511.623363916 50.4636810078 368.098995307 c 0,29,30
 50.4636810078 71.3941160701 50.4636810078 71.3941160701 193.23934291 71.3941160701 c 0,31,32
 233.070273264 71.3941160701 233.070273264 71.3941160701 284 94 c 1,33,34
 288.333333333 94 288.333333333 94 304.166666667 104 c 128,-1,35
 320 114 320 114 323 118 c 0,36,37
 324 120 324 120 324 122.5 c 128,-1,38
 324 125 324 125 323 126 c 0,39,40
 297 156 297 156 261 217.5 c 128,-1,41
 225 279 225 279 206.454545455 335.795454545 c 128,-1,42
 187.909090909 392.590909091 187.909090909 392.590909091 187.909090909 417.75 c 128,-1,43
 187.909090909 442.909090909 187.909090909 442.909090909 194.787878788 453.454545455 c 128,-1,44
 201.666666667 464 201.666666667 464 206.777777778 464 c 0,45,46
 228.40625 464 228.40625 464 264 330 c 0,47,48
 281 266 281 266 284 260 c 0,49,50
 305 216 305 216 346 150 c 1,51,52
 353.494493539 147.464269103 353.494493539 147.464269103 360.677123832 147.464269103 c 0,53,54
 395.568465143 147.464269103 395.568465143 147.464269103 425.287828233 212.055190664 c 128,-1,55
 455.007191323 276.646112224 455.007191323 276.646112224 455.007191323 367.462166255 c 0,56,57
 455.007191323 566.754629322 455.007191323 566.754629322 338.559891289 654.93816037 c 0,58,59
 271.35928118 705.828022877 271.35928118 705.828022877 173.284870261 705.828022877 c 0,60,61
 154.696946495 705.828022877 154.696946495 705.828022877 135 704 c 1,62,63
 133 709 133 709 136 724 c 128,-1,64
 139 739 139 739 143 741 c 1,65,66
 159.258064516 743.064516129 159.258064516 743.064516129 190.629032258 743.064516129 c 128,-1,67
 222 743.064516129 222 743.064516129 276 723.032258065 c 128,-1,68
 330 703 330 703 377.5 660.5 c 128,-1,69
 425 618 425 618 459.5 558.5 c 0,70,71
 514.647058824 463.391304348 514.647058824 463.391304348 514.647058824 369.342560554 c 0,72,73
 514.647058824 253.31092437 514.647058824 253.31092437 440 168 c 0,74,75
 412.571428571 136.653061224 412.571428571 136.653061224 405.785714286 115.326530612 c 128,-1,76
 399 94 399 94 401 87 c 1,77,78
 406.434817011 81.0392329561 406.434817011 81.0392329561 426.627689919 54.6744578812 c 0,79,80
 517.574476521 -64.0699913822 517.574476521 -64.0699913822 544.956662767 -64.0699913822 c 0,81,82
 561.206702851 -64.0699913822 561.206702851 -64.0699913822 561.206702851 -29.8593488314 c 0,83,84
 561.206702851 -17.2524041052 561.206702851 -17.2524041052 559 0 c 1,85,86
 564.986781995 1.42186072385 564.986781995 1.42186072385 570.116973266 1.42186072385 c 0,0,1
EndSplineSet
EndChar

StartChar: R
Encoding: 82 82 17
Width: 636
Flags: HW
LayerCount: 2
Fore
SplineSet
132 607 m 1,0,1
 240.105083702 792.376071365 240.105083702 792.376071365 334.894736787 792.376071365 c 4,2,3
 386.2494992 792.376071365 386.2494992 792.376071365 412.569063484 733.444740288 c 0,4,5
 429.466491468 695.610226304 429.466491468 695.610226304 429.466491468 653.276627148 c 128,-1,6
 429.466491468 610.943027992 429.466491468 610.943027992 414.779971624 564.893124543 c 0,7,8
 375.890489457 442.954304591 375.890489457 442.954304591 257.14255796 383.363033708 c 0,9,10
 216.261769704 362.84782897 216.261769704 362.84782897 168 352 c 1,11,-1
 168 344 l 1,12,13
 231.879960317 317.103174603 231.879960317 317.103174603 339.5 203 c 0,14,15
 381 159 381 159 424.5 118 c 0,16,17
 513.834146341 33.8 513.834146341 33.8 589.26 33.8 c 0,18,19
 598.2 33.8 598.2 33.8 607 35 c 0,20,21
 608.78082234 35 608.78082234 35 649.490155395 78.4424340912 c 128,-1,22
 690.113168378 121.792752842 690.113168378 121.792752842 702.501362812 121.792752842 c 0,23,24
 707.937723289 121.792752842 707.937723289 121.792752842 707.937723289 109.362685714 c 128,-1,25
 707.937723289 96.932618585 707.937723289 96.932618585 688.968861644 47.4663092925 c 0,26,27
 653.309291667 -45.5254237288 653.309291667 -45.5254237288 591.476587188 -45.5254237288 c 0,28,29
 519.989295272 -45.5254237288 519.989295272 -45.5254237288 430 34 c 0,30,31
 359.650215415 96.1695770755 359.650215415 96.1695770755 311.825107707 148.084788538 c 128,-1,32
 264 200 264 200 254.5 209.5 c 128,-1,33
 245 219 245 219 230 234.5 c 128,-1,34
 215 250 215 250 206 258.5 c 0,35,36
 184.869565217 278.456521739 184.869565217 278.456521739 168 289 c 1,37,-1
 165 8 l 2,38,39
 165 -3 165 -3 150 0 c 0,40,41
 148 1 148 1 142 3 c 2,42,-1
 131.5 6.5 l 2,43,44
 127 8 127 8 126 8 c 0,45,46
 124 9 124 9 121 15 c 128,-1,47
 118 21 118 21 118 24 c 0,48,49
 101.111111111 150.017094017 101.111111111 150.017094017 101.111111111 288.432098765 c 1,50,-1
 102.266666667 352.884444444 l 1,51,52
 102.266666667 481.668686869 102.266666667 481.668686869 45 709 c 0,53,54
 43.5655720157 711.868855969 43.5655720157 711.868855969 43.5655720157 717.646292045 c 128,-1,55
 43.5655720157 723.423728121 43.5655720157 723.423728121 54.4925445279 731.746172501 c 128,-1,56
 65.41951704 740.068616881 65.41951704 740.068616881 75.9097950635 740.068616881 c 128,-1,57
 86.4000730869 740.068616881 86.4000730869 740.068616881 95.1512672474 726.675575716 c 128,-1,58
 103.902461408 713.282534551 103.902461408 713.282534551 108.951230704 690.141267275 c 128,-1,59
 114 667 114 667 123 607 c 1,60,-1
 132 607 l 1,0,1
153 407 m 1,61,62
 246.047944226 426.510052822 246.047944226 426.510052822 324.680693303 529.835720488 c 0,63,64
 394.628519031 621.749151976 394.628519031 621.749151976 394.628519031 693.493553159 c 0,65,66
 394.628519031 743.600482084 394.628519031 743.600482084 349.701680158 743.600482084 c 0,67,68
 339.665019632 743.600482084 339.665019632 743.600482084 328 741 c 0,69,70
 272 728 272 728 235.5 687.5 c 128,-1,71
 199 647 199 647 171 583 c 1,72,73
 167 567 167 567 160 540 c 0,74,75
 145.111111111 482.571428571 145.111111111 482.571428571 145.111111111 465.48015873 c 0,76,77
 145.111111111 436.977777778 145.111111111 436.977777778 153 407 c 1,61,62
EndSplineSet
EndChar

StartChar: S
Encoding: 83 83 18
Width: 504
Flags: HW
LayerCount: 2
Fore
SplineSet
355.016393443 -1.47540983607 m 0,0,1
 328.344262295 -1.47540983607 328.344262295 -1.47540983607 288.172131148 9.26229508197 c 128,-1,2
 248 20 248 20 191 71 c 128,-1,3
 134 122 134 122 108 180.5 c 0,4,5
 99.2207792208 200.253246753 99.2207792208 200.253246753 99.2207792208 218.467279474 c 0,6,7
 99.2207792208 254.194805195 99.2207792208 254.194805195 133 284 c 1,8,9
 154.381394168 299.550104849 154.381394168 299.550104849 176.68300292 299.550104849 c 128,-1,10
 198.984611673 299.550104849 198.984611673 299.550104849 198.984611673 285.890002106 c 0,11,12
 198.984611673 281.237350971 198.984611673 281.237350971 197 275 c 1,13,14
 147.984389608 253.27416188 147.984389608 253.27416188 147.984389608 213.649528893 c 0,15,16
 147.984389608 193.535282689 147.984389608 193.535282689 160.61462467 168.808914251 c 0,17,18
 190.401780859 110.494227703 190.401780859 110.494227703 264.539309122 66.3487078738 c 0,19,20
 321.653674245 32.3397059942 321.653674245 32.3397059942 362.585646276 32.3397059942 c 0,21,22
 427.42717648 32.3397059942 427.42717648 32.3397059942 433 102 c 0,23,24
 433.803278689 114.737704918 433.803278689 114.737704918 433.803278689 126.948669712 c 0,25,26
 433.803278689 221.147540984 433.803278689 221.147540984 386 284 c 1,27,28
 335.680851064 346.89893617 335.680851064 346.89893617 255 388.5 c 0,29,30
 223 405 223 405 191 423 c 0,31,32
 119.671755725 463.122137405 119.671755725 463.122137405 82 546 c 1,33,34
 66.4752475248 584.811881188 66.4752475248 584.811881188 66.4752475248 615.237623762 c 128,-1,35
 66.4752475248 645.663366337 66.4752475248 645.663366337 76.5 669.5 c 0,36,37
 99 723 99 723 156.5 753 c 0,38,39
 200.730769231 776.076923077 200.730769231 776.076923077 249.399408284 776.076923077 c 0,40,41
 264 776.076923077 264 776.076923077 279 774 c 0,42,43
 337.65604301 766.179194265 337.65604301 766.179194265 376.230682085 705.409556913 c 0,44,45
 401.143324986 666.162727626 401.143324986 666.162727626 401.143324986 641.842898963 c 0,46,47
 401.143324986 565.440348754 401.143324986 565.440348754 329.59366968 565.440348754 c 0,48,49
 313.984806643 565.440348754 313.984806643 565.440348754 295 569 c 1,50,51
 291 584 291 584 299.5 595 c 128,-1,52
 308 606 308 606 320.5 611.5 c 0,53,54
 353.652173913 626.086956522 353.652173913 626.086956522 350 648 c 0,55,56
 337.473507595 722.020182392 337.473507595 722.020182392 274.624950509 736.548320916 c 0,57,58
 260.367133804 739.844172813 260.367133804 739.844172813 246.365076195 739.844172813 c 0,59,60
 203.87875315 739.844172813 203.87875315 739.844172813 163.747184754 709.499513798 c 0,61,62
 111.650848582 670.107942019 111.650848582 670.107942019 111.650848582 612.10340636 c 0,63,64
 111.650848582 554.563939637 111.650848582 554.563939637 161 498 c 0,65,66
 197 456 197 456 238 432.5 c 128,-1,67
 279 409 279 409 321.5 386 c 128,-1,68
 364 363 364 363 399.5 325 c 128,-1,69
 435 287 435 287 455.5 237 c 0,70,71
 477.054054054 184.429136454 477.054054054 184.429136454 477.054054054 138.1875412 c 0,72,73
 477.054054054 -1.47540983607 477.054054054 -1.47540983607 355.016393443 -1.47540983607 c 0,0,1
EndSplineSet
EndChar

StartChar: T
Encoding: 84 84 19
Width: 656
Flags: HMW
VStem: 394 47
LayerCount: 2
Fore
SplineSet
420 688 m 1,0,-1
 430 622 l 1,1,2
 444 470 444 470 444.583333333 379.875 c 128,-1,3
 445.166666667 289.75 445.166666667 289.75 445.166666667 212.625 c 128,-1,4
 445.166666667 135.5 445.166666667 135.5 441 8 c 1,5,6
 435.944444444 -1.38888888889 435.944444444 -1.38888888889 430.458333333 -1.38888888889 c 0,7,8
 413.472222222 -1.38888888889 413.472222222 -1.38888888889 402 15 c 1,9,10
 384.203703704 45.4259259259 384.203703704 45.4259259259 384.203703704 84.8425925926 c 128,-1,11
 384.203703704 124.259259259 384.203703704 124.259259259 394 166 c 1,12,13
 395 200 395 200 399.5 286.5 c 0,14,15
 405.095238095 394.052910053 405.095238095 394.052910053 405.095238095 438.05026455 c 128,-1,16
 405.095238095 482.047619048 405.095238095 482.047619048 396.047619048 552.523809524 c 128,-1,17
 387 623 387 623 364 681 c 1,18,19
 353.411764706 682.058823529 353.411764706 682.058823529 336.117647059 682.058823529 c 128,-1,20
 318.823529412 682.058823529 318.823529412 682.058823529 283.411764706 677.529411765 c 128,-1,21
 248 673 248 673 215.5 664.5 c 128,-1,22
 183 656 183 656 135.5 643 c 128,-1,23
 88 630 88 630 73 626 c 1,24,25
 64 613 64 613 47.5 617 c 0,26,27
 21.5862068966 623.282131661 21.5862068966 623.282131661 21.5862068966 647.953626635 c 0,28,29
 21.5862068966 656.172413793 21.5862068966 656.172413793 26 665 c 1,30,31
 97.4202608131 688.806753604 97.4202608131 688.806753604 342.080992829 726.468018377 c 128,-1,32
 586.741724846 764.12928315 586.741724846 764.12928315 718.425592009 764.12928315 c 128,-1,33
 850.109459172 764.12928315 850.109459172 764.12928315 850.109459172 724.326183866 c 0,34,35
 850.109459172 709.109459172 850.109459172 709.109459172 829 688 c 1,36,-1
 822 688 l 2,37,38
 821 688 821 688 806.5 695.5 c 128,-1,39
 792 703 792 703 790 705 c 1,40,41
 739.724137931 706.24137931 739.724137931 706.24137931 694.413793103 706.24137931 c 0,42,43
 520.724137931 706.24137931 520.724137931 706.24137931 420 688 c 1,0,-1
EndSplineSet
EndChar

StartChar: U
Encoding: 85 85 20
Width: 835
Flags: HMW
VStem: 62 28
LayerCount: 2
Fore
SplineSet
102 8 m 1,0,1
 87 18 87 18 78.5 44 c 128,-1,2
 70 70 70 70 68 93 c 128,-1,3
 66 116 66 116 64.5 149 c 0,4,5
 57.0112866817 313.751693002 57.0112866817 313.751693002 24 583 c 0,6,7
 23 588 23 588 23 603 c 128,-1,8
 23 618 23 618 24 623 c 1,9,10
 32 633.666666667 32 633.666666667 40.8888888889 633.666666667 c 128,-1,11
 49.7777777778 633.666666667 49.7777777778 633.666666667 63.3888888889 610.333333333 c 128,-1,12
 77 587 77 587 79 567 c 2,13,-1
 102 150 l 2,14,15
 107.196950812 65.5495493068 107.196950812 65.5495493068 139.961239381 65.5495493068 c 0,16,17
 168.229599321 65.5495493068 168.229599321 65.5495493068 224.870652536 138.530509698 c 128,-1,18
 281.511705751 211.511470089 281.511705751 211.511470089 341.695258746 336.656053678 c 0,19,20
 391.414383657 440.041096162 391.414383657 440.041096162 425 536 c 1,21,22
 442.567326698 595.728910772 442.567326698 595.728910772 450.53265872 612.347792016 c 128,-1,23
 458.497990742 628.96667326 458.497990742 628.96667326 468.808308329 628.96667326 c 0,24,25
 483.480390218 628.96667326 483.480390218 628.96667326 497 583 c 1,26,27
 494.538461538 566.384615385 494.538461538 566.384615385 494.538461538 545.961538462 c 128,-1,28
 494.538461538 525.538461538 494.538461538 525.538461538 496.269230769 491.269230769 c 128,-1,29
 498 457 498 457 501.5 398.5 c 128,-1,30
 505 340 505 340 521 280.5 c 128,-1,31
 537 221 537 221 557.5 174 c 128,-1,32
 578 127 578 127 612.090909091 102.454545455 c 128,-1,33
 646.181818182 77.9090909091 646.181818182 77.9090909091 683.892561983 77.9090909091 c 0,34,35
 692.272727273 77.9090909091 692.272727273 77.9090909091 703.636363636 79.4545454545 c 128,-1,36
 715 81 715 81 731.5 99 c 0,37,38
 766.445121951 137.12195122 766.445121951 137.12195122 788.694824509 137.12195122 c 0,39,40
 796.195121951 137.12195122 796.195121951 137.12195122 804 134 c 1,41,42
 804.857142857 125.714285714 804.857142857 125.714285714 804.857142857 117.959183673 c 0,43,44
 804.857142857 71.4285714286 804.857142857 71.4285714286 773.203219316 43.291750503 c 128,-1,45
 741.549295775 15.1549295775 741.549295775 15.1549295775 695.691727832 15.1549295775 c 0,46,47
 613.076116272 15.1549295775 613.076116272 15.1549295775 552.5 96.5 c 0,48,49
 530.339087546 126.258939581 530.339087546 126.258939581 511.169543773 178.12946979 c 128,-1,50
 492 230 492 230 484 272.5 c 128,-1,51
 476 315 476 315 473 332 c 128,-1,52
 470 349 470 349 464 395.5 c 128,-1,53
 458 442 458 442 457 449 c 1,54,-1
 449 465 l 1,55,56
 430.611111111 409.833333333 430.611111111 409.833333333 386.805555556 319.916666667 c 128,-1,57
 343 230 343 230 323 195 c 128,-1,58
 303 160 303 160 280 124 c 128,-1,59
 257 88 257 88 234.5 63 c 0,60,61
 176.288 -1.68 176.288 -1.68 138.96 -1.68 c 1,62,-1
 102 8 l 1,0,1
EndSplineSet
EndChar

StartChar: V
Encoding: 86 86 21
Width: 583
Flags: HW
LayerCount: 2
Fore
SplineSet
331 39 m 0,0,1
 326 49 326 49 302 103 c 128,-1,2
 278 157 278 157 269.5 174.5 c 128,-1,3
 261 192 261 192 239 238.5 c 128,-1,4
 217 285 217 285 203 310 c 128,-1,5
 189 335 189 335 168.5 372.5 c 0,6,7
 136.573770492 430.901639344 136.573770492 430.901639344 87 497 c 0,8,9
 85 499 85 499 68 514.5 c 0,10,11
 24.7944664032 553.893280632 24.7944664032 553.893280632 17.5596157177 571.698329442 c 128,-1,12
 10.3247650321 589.503378251 10.3247650321 589.503378251 10.3247650321 598.264422531 c 0,13,14
 10.3247650321 611.631094905 10.3247650321 611.631094905 23.535248232 611.631094905 c 0,15,16
 50.2962404327 611.631094905 50.2962404327 611.631094905 81.5454753145 577.507185048 c 0,17,18
 99.346316492 558.068811533 99.346316492 558.068811533 158.173158246 436.034405766 c 128,-1,19
 217 314 217 314 260 235 c 128,-1,20
 303 156 303 156 347 102 c 1,21,22
 354 109 354 109 354 111 c 0,23,24
 362 125 362 125 368 152.5 c 128,-1,25
 374 180 374 180 397.5 309.5 c 128,-1,26
 421 439 421 439 426 465 c 1,27,28
 433 481 433 481 438.5 522.5 c 128,-1,29
 444 564 444 564 455.283316576 580.457551383 c 128,-1,30
 466.566633152 596.915102767 466.566633152 596.915102767 514.635774311 607.671846042 c 0,31,32
 530.792067691 611.287244528 530.792067691 611.287244528 542.100993915 611.287244528 c 128,-1,33
 553.409920138 611.287244528 553.409920138 611.287244528 553.409920138 604.20166392 c 0,34,35
 553.409920138 601.819840276 553.409920138 601.819840276 534.704960069 569.409920138 c 128,-1,36
 516 537 516 537 506.624978111 522.133892611 c 128,-1,37
 497.249956223 507.267785223 497.249956223 507.267785223 461.824127923 324.774928321 c 0,38,39
 400.683586807 9.81512198274 400.683586807 9.81512198274 358.326469756 9.81512198274 c 0,40,41
 344.281740894 9.81512198274 344.281740894 9.81512198274 331 39 c 0,0,1
EndSplineSet
EndChar

StartChar: W
Encoding: 87 87 22
Width: 906
Flags: HMW
VStem: 39 40
LayerCount: 2
Fore
SplineSet
78.8461538462 290.236686391 m 2,0,1
 78.8461538462 283.846153846 78.8461538462 283.846153846 94 102 c 1,2,3
 94 87 94 87 98.5 82.5 c 128,-1,4
 103 78 103 78 106.5 78 c 128,-1,5
 110 78 110 78 110 79 c 0,6,7
 160 122 160 122 197 182 c 128,-1,8
 234 242 234 242 274 333 c 128,-1,9
 314 424 314 424 331 457 c 1,10,11
 340.951219512 471.097560976 340.951219512 471.097560976 353.653182629 471.097560976 c 0,12,13
 372.495934959 471.097560976 372.495934959 471.097560976 386 449 c 0,14,15
 410 409 410 409 427 346.5 c 128,-1,16
 444 284 444 284 465.5 226.5 c 128,-1,17
 487 169 487 169 527 126 c 0,18,19
 597.739287298 49.9741467477 597.739287298 49.9741467477 657.724359064 49.9741467477 c 0,20,21
 699.027730131 49.9741467477 699.027730131 49.9741467477 735.232355304 86.0192219116 c 0,22,23
 802.590682217 153.0807077 802.590682217 153.0807077 825.415834989 306.345096331 c 0,24,25
 833.546107892 360.937559233 833.546107892 360.937559233 833.546107892 420.488736351 c 128,-1,26
 833.546107892 480.039913469 833.546107892 480.039913469 815.387840508 526.236301717 c 128,-1,27
 797.229573123 572.432689965 797.229573123 572.432689965 771 583 c 0,28,29
 769 584 769 584 764.5 584 c 128,-1,30
 760 584 760 584 760 583 c 2,31,-1
 760 544 l 2,32,33
 760 541 760 541 751.5 544 c 0,34,35
 726 553 726 553 724 567 c 1,36,-1
 724 646 l 1,37,38
 736.20329189 649.011201895 736.20329189 649.011201895 747.530303039 649.011201895 c 0,39,40
 809.615009616 649.011201895 809.615009616 649.011201895 845.373898069 558.546639879 c 0,41,42
 876.246582317 480.443433105 876.246582317 480.443433105 876.246582317 376.514479429 c 0,43,44
 876.246582317 335.120578281 876.246582317 335.120578281 871.349087358 289.629804175 c 0,45,46
 853.011542329 119.30004874 853.011542329 119.30004874 778.719855093 40.152212405 c 0,47,48
 734.69369021 -6.75176598483 734.69369021 -6.75176598483 679.46668748 -6.75176598483 c 0,49,50
 648.494730987 -6.75176598483 648.494730987 -6.75176598483 607.247365494 11.1241170076 c 128,-1,51
 566 29 566 29 524.5 69.5 c 128,-1,52
 483 110 483 110 452 165 c 0,53,54
 398.887517147 259.231824417 398.887517147 259.231824417 361 371 c 1,55,-1
 354 378 l 1,56,57
 349.743475414 375.770391883 349.743475414 375.770391883 300.977638986 273.704704602 c 0,58,59
 174.678914767 9.36460434915 174.678914767 9.36460434915 102.166476871 9.36460434915 c 0,60,61
 80.073222884 9.36460434915 80.073222884 9.36460434915 62 32 c 1,62,63
 54 44 54 44 54 47 c 2,64,-1
 24 465 l 1,65,66
 16 487.5 16 487.5 16 503 c 0,67,68
 16 533.349206349 16 533.349206349 46.8772990678 533.349206349 c 0,69,70
 85.4516129032 533.349206349 85.4516129032 533.349206349 85.4516129032 451.138397503 c 1,71,-1
 78.8461538462 290.236686391 l 2,0,1
EndSplineSet
EndChar

StartChar: X
Encoding: 88 88 23
Width: 559
Flags: HW
LayerCount: 2
Fore
SplineSet
169 -1 m 128,-1,1
 166 -1 166 -1 155 8 c 128,-1,2
 144 17 144 17 142 22.5 c 128,-1,3
 140 28 140 28 140 43 c 128,-1,4
 140 58 140 58 141 63 c 1,5,6
 148 75 148 75 165.5 97.5 c 128,-1,7
 183 120 183 120 198 140 c 128,-1,8
 213 160 213 160 231 187 c 0,9,10
 269.5625 244.84375 269.5625 244.84375 269.5625 290.728515625 c 0,11,12
 269.5625 310 269.5625 310 259 323 c 1,13,14
 146.52 499.754285714 146.52 499.754285714 77.5 573 c 0,15,16
 53 599 53 599 31.9166666667 615.9375 c 128,-1,17
 10.8333333333 632.875 10.8333333333 632.875 10.8333333333 642.270833333 c 128,-1,18
 10.8333333333 651.666666667 10.8333333333 651.666666667 15 670 c 1,19,20
 33.7514910537 687.188866799 33.7514910537 687.188866799 71.5 658.5 c 0,21,22
 100.292134831 636.617977528 100.292134831 636.617977528 144 564.5 c 0,23,24
 154 548 154 548 180.5 509.5 c 128,-1,25
 207 471 207 471 246 411.5 c 0,26,27
 290.85 343.075 290.85 343.075 299 339 c 0,28,29
 300 338 300 338 303 338 c 128,-1,30
 306 338 306 338 307 339 c 2,31,-1
 464 662 l 2,32,33
 481.188778546 697.12489529 481.188778546 697.12489529 508.098765432 710.312757202 c 0,34,35
 515.941687015 714.15636245 515.941687015 714.15636245 521.728690974 714.15636245 c 0,36,37
 538.007828994 714.15636245 538.007828994 714.15636245 538.007828994 684.306905479 c 0,38,39
 538.007828994 674.62063939 538.007828994 674.62063939 536 662 c 1,40,41
 495 612 495 612 463.5 556 c 128,-1,42
 432 500 432 500 390.5 407.5 c 128,-1,43
 349 315 349 315 338 292 c 1,44,-1
 338 275 l 1,45,-1
 464 87 l 1,46,-1
 472 79 l 1,47,48
 475 83 475 83 482.5 112 c 128,-1,49
 490 141 490 141 499.5 160.5 c 128,-1,50
 509 180 509 180 519 173 c 1,51,52
 532.066666667 158.066666667 532.066666667 158.066666667 532.066666667 120.92 c 0,53,54
 532.066666667 75.7303703704 532.066666667 75.7303703704 512.152145215 43.4245911258 c 128,-1,55
 492.237623762 11.1188118812 492.237623762 11.1188118812 472.579649054 11.1188118812 c 0,56,57
 465.03960396 11.1188118812 465.03960396 11.1188118812 457 15 c 0,58,59
 441 23 441 23 410.5 83 c 128,-1,60
 380 143 380 143 354.156779661 186.525423729 c 128,-1,61
 328.313559322 230.050847458 328.313559322 230.050847458 313.400603275 230.050847458 c 0,62,63
 309.983050847 230.050847458 309.983050847 230.050847458 307 228 c 1,64,65
 302 218 302 218 289 197.5 c 0,66,67
 266 161.230769231 266 161.230769231 266 138.333333333 c 0,68,69
 266 132.333333333 266 132.333333333 267 126 c 1,70,71
 213 33 213 33 173 0 c 0,72,0
 172 -1 172 -1 169 -1 c 128,-1,1
EndSplineSet
EndChar

StartChar: Y
Encoding: 89 89 24
Width: 646
Flags: HW
LayerCount: 2
Fore
SplineSet
465 15 m 0,0,1
 437.608695652 42.3913043478 437.608695652 42.3913043478 437.608695652 143.099243856 c 0,2,3
 437.608695652 184.086956522 437.608695652 184.086956522 443.804347826 236.543478261 c 0,4,5
 465.111111111 416.940740741 465.111111111 416.940740741 465.111111111 435.525925926 c 128,-1,6
 465.111111111 454.111111111 465.111111111 454.111111111 465 457 c 1,7,-1
 457 457 l 1,8,9
 426 405 426 405 393.5 377 c 128,-1,10
 361 349 361 349 342.965277778 344.576388889 c 128,-1,11
 324.930555556 340.152777778 324.930555556 340.152777778 311.319444444 340.152777778 c 128,-1,12
 297.708333333 340.152777778 297.708333333 340.152777778 274.354166667 349.576388889 c 128,-1,13
 251 359 251 359 230.5 376 c 128,-1,14
 210 393 210 393 187 423.5 c 0,15,16
 155.134078212 465.75698324 155.134078212 465.75698324 123 524 c 1,17,-1
 17 683 l 1,18,19
 10.5 696 10.5 696 10.5 707.375 c 128,-1,20
 10.5 718.75 10.5 718.75 17.13 728.695 c 128,-1,21
 23.76 738.64 23.76 738.64 33.64 738.64 c 128,-1,22
 43.52 738.64 43.52 738.64 56.26 729.82 c 128,-1,23
 69 721 69 721 85.5 688.5 c 128,-1,24
 102 656 102 656 121.5 616 c 128,-1,25
 141 576 141 576 166.5 536 c 128,-1,26
 192 496 192 496 233 464.5 c 128,-1,27
 274 433 274 433 324 425 c 0,28,29
 331.741935484 423.623655914 331.741935484 423.623655914 339.21748179 423.623655914 c 0,30,31
 375.193548387 423.623655914 375.193548387 423.623655914 408.096774194 458.811827957 c 128,-1,32
 441 494 441 494 462.5 552.5 c 128,-1,33
 484 611 484 611 503 669.5 c 0,34,35
 542.842809365 792.173913043 542.842809365 792.173913043 579.29584121 792.173913043 c 0,36,37
 584.565217391 792.173913043 584.565217391 792.173913043 590 790 c 1,38,39
 585 740 585 740 558.5 561.5 c 128,-1,40
 532 383 532 383 523 283.625 c 128,-1,41
 514 184.25 514 184.25 514 131.375 c 128,-1,42
 514 78.5 514 78.5 517.471698113 56.2971698113 c 128,-1,43
 520.943396226 34.0943396226 520.943396226 34.0943396226 520.943396226 29.8294766821 c 0,44,45
 520.943396226 11.4905660377 520.943396226 11.4905660377 503.5 5 c 0,46,47
 496.884615385 2.53846153846 496.884615385 2.53846153846 486.826923077 2.53846153846 c 128,-1,48
 476.769230769 2.53846153846 476.769230769 2.53846153846 465 15 c 0,0,1
EndSplineSet
EndChar

StartChar: Z
Encoding: 90 90 25
Width: 780
Flags: HW
LayerCount: 2
Fore
SplineSet
574.251606979 424.484848485 m 2,0,-1
 557.53125 424.5625 l 2,1,2
 510.5 424.5625 510.5 424.5625 461.75 421.28125 c 128,-1,3
 413 418 413 418 381 393 c 1,4,5
 225.414756282 252.071337212 225.414756282 252.071337212 225.414756282 152.646134194 c 0,6,7
 225.414756282 73.4496623431 225.414756282 73.4496623431 313.0552019 49.5070246595 c 0,8,9
 343.57705437 41.1687095131 343.57705437 41.1687095131 376.491107918 41.1687095131 c 0,10,11
 442.667714952 41.1687095131 442.667714952 41.1687095131 518.514710709 74.8760552468 c 0,12,13
 630.905889049 124.824089021 630.905889049 124.824089021 701 228 c 1,14,15
 702 255 702 255 703.5 256.5 c 128,-1,16
 705 258 705 258 700.5 270 c 128,-1,17
 696 282 696 282 693.64677396 290.62621067 c 128,-1,18
 691.29354792 299.25242134 691.29354792 299.25242134 698.597059766 298.604588836 c 0,19,20
 717.275870964 296.947750142 717.275870964 296.947750142 738.092029767 270.665378661 c 128,-1,21
 758.90818857 244.38300718 758.90818857 244.38300718 758.90818857 218.245431649 c 128,-1,22
 758.90818857 192.107856118 758.90818857 192.107856118 737.905014705 170.235128595 c 128,-1,23
 716.901840841 148.362401071 716.901840841 148.362401071 683.45092042 128.181200536 c 128,-1,24
 650 108 650 108 637 100.5 c 128,-1,25
 624 93 624 93 580 68.5 c 128,-1,26
 536 44 536 44 514 35 c 0,27,28
 424.416873449 -1.6476426799 424.416873449 -1.6476426799 380.5 -5.5 c 0,29,30
 364.666666667 -6.88888888889 364.666666667 -6.88888888889 348.611111111 -6.88888888889 c 0,31,32
 243.72345679 -6.88888888889 243.72345679 -6.88888888889 184.5 47.5 c 0,33,34
 160 70 160 70 156.029411765 91.4411764706 c 128,-1,35
 152.058823529 112.882352941 152.058823529 112.882352941 152.058823529 126.235294118 c 128,-1,36
 152.058823529 139.588235294 152.058823529 139.588235294 154.529411765 158.294117647 c 128,-1,37
 157 177 157 177 175 211 c 128,-1,38
 193 245 193 245 209 271 c 128,-1,39
 225 297 225 297 249.5 334 c 128,-1,40
 274 371 274 371 287 393 c 1,41,42
 285.777777778 393.111111111 285.777777778 393.111111111 279.527777778 393.111111111 c 128,-1,43
 273.277777778 393.111111111 273.277777778 393.111111111 250.138888889 385.555555556 c 128,-1,44
 227 378 227 378 206 370 c 0,45,46
 177.379032258 359.096774194 177.379032258 359.096774194 158.786290323 359.096774194 c 128,-1,47
 140.193548387 359.096774194 140.193548387 359.096774194 136 370 c 1,48,49
 129.740740741 381.074074074 129.740740741 381.074074074 129.740740741 390.046296296 c 128,-1,50
 129.740740741 399.018518519 129.740740741 399.018518519 140.37037037 408.509259259 c 128,-1,51
 151 418 151 418 184 424.5 c 128,-1,52
 217 431 217 431 254.5 438.5 c 128,-1,53
 292 446 292 446 330 464.5 c 128,-1,54
 368 483 368 483 388.5 512.5 c 128,-1,55
 409 542 409 542 449.5 608.5 c 128,-1,56
 490 675 490 675 514 709 c 1,57,58
 510.857142857 709.428571429 510.857142857 709.428571429 497 709.428571429 c 128,-1,59
 483.142857143 709.428571429 483.142857143 709.428571429 425.571428571 692.714285714 c 128,-1,60
 368 676 368 676 299.5 653.5 c 0,61,62
 126.88 596.8 126.88 596.8 68.44 596.8 c 128,-1,63
 10 596.8 10 596.8 10 630 c 0,64,65
 10 645.87654321 10 645.87654321 123.5 672.5 c 0,66,67
 164 682 164 682 168 685 c 1,68,69
 408 749 408 749 561 779 c 0,70,71
 565.900118922 780.07968722 565.900118922 780.07968722 569.877307346 780.07968722 c 0,72,73
 587.01622278 780.07968722 587.01622278 780.07968722 587.01622278 760.029783142 c 0,74,75
 587.01622278 725.599239051 587.01622278 725.599239051 554 669 c 1,76,77
 460 533 460 533 428 480 c 1,78,79
 424 476 424 476 420 464 c 1,80,81
 474.296296296 464 474.296296296 464 543.648148148 481.5 c 128,-1,82
 613 499 613 499 625 519 c 1,83,84
 648.904977376 500.407239819 648.904977376 500.407239819 664 465.5 c 0,85,86
 672 447 672 447 656 440 c 1,87,88
 625.939393939 424.484848485 625.939393939 424.484848485 574.251606979 424.484848485 c 2,0,-1
EndSplineSet
EndChar

StartChar: a
Encoding: 97 97 26
Width: 524
Flags: HW
LayerCount: 2
Fore
SplineSet
323.684516132 456.948995759 m 2,0,-1
 322.202123695 364.344209418 l 1,1,2
 322.202123695 178.156410069 322.202123695 178.156410069 359.668656489 109.179105526 c 0,3,4
 386.2660295 60.2123354133 386.2660295 60.2123354133 431.055888459 60.2123354133 c 0,5,6
 462.923298685 60.2123354133 462.923298685 60.2123354133 504 85 c 1,7,8
 518 97 518 97 523 112.5 c 128,-1,9
 528 128 528 128 526 135.5 c 128,-1,10
 524 143 524 143 528 148 c 128,-1,11
 532 153 532 153 546 143 c 1,12,13
 561.870502169 122.169965904 561.870502169 122.169965904 561.870502169 99.3259870084 c 128,-1,14
 561.870502169 76.4820081131 561.870502169 76.4820081131 544.452507965 51.4795120619 c 0,15,16
 508.757514953 0.241469872801 508.757514953 0.241469872801 440.862589437 0.241469872801 c 128,-1,17
 372.96766392 0.2414698728 372.96766392 0.2414698728 325.431410085 83.0255110581 c 0,18,19
 300.481079688 126.476330435 300.481079688 126.476330435 286 190 c 1,20,21
 266.402597403 133.657467532 266.402597403 133.657467532 232.701298701 90.8287337662 c 128,-1,22
 199 48 199 48 173.5 28.5 c 128,-1,23
 148 9 148 9 117 9 c 128,-1,24
 86 9 86 9 59 37 c 0,25,26
 7.94019956118 90.0236389172 7.94019956118 90.0236389172 7.94019956118 253.308150898 c 128,-1,27
 7.94019956118 416.59266288 7.94019956118 416.59266288 54.3925864114 529.483159357 c 128,-1,28
 100.844973262 642.373655834 100.844973262 642.373655834 171.147132791 642.373655834 c 0,29,30
 196.779094261 642.373655834 196.779094261 642.373655834 224 628 c 1,31,32
 250 613 250 613 281.5 561 c 0,33,34
 323.684516132 491.362068608 323.684516132 491.362068608 323.684516132 456.948995759 c 2,0,-1
97 518 m 128,-1,36
 65 453 65 453 53.8671875 384.421875 c 128,-1,37
 42.734375 315.84375 42.734375 315.84375 42.734375 234.9921875 c 128,-1,38
 42.734375 154.140625 42.734375 154.140625 68 100 c 0,39,40
 86.741060479 59.1486996299 86.741060479 59.1486996299 113.698415659 59.1486996299 c 0,41,42
 132.523795561 59.1486996299 132.523795561 59.1486996299 155.356079531 79.070969657 c 0,43,44
 210.911457631 127.545719069 210.911457631 127.545719069 247.416999735 245.838266172 c 0,45,46
 273.698399175 331.000504615 273.698399175 331.000504615 273.698399175 394.334559974 c 0,47,48
 273.698399175 549.578428655 273.698399175 549.578428655 180 602 c 0,49,50
 179 603 179 603 172 603 c 1,51,35
 129 583 129 583 97 518 c 128,-1,36
EndSplineSet
EndChar

StartChar: b
Encoding: 98 98 27
Width: 512
Flags: HMW
VStem: 102 55
LayerCount: 2
Fore
SplineSet
165 47 m 1,0,1
 162.526315789 -2.55795384874e-13 162.526315789 -2.55795384874e-13 143.111111111 0 c 0,2,3
 136 0 136 0 126 8 c 1,4,5
 114 15 114 15 102 47 c 1,6,7
 103.285714286 88.3571428571 103.285714286 88.3571428571 103.285714286 126.086734694 c 0,8,9
 103.285714286 264.428571429 103.285714286 264.428571429 86 354 c 0,10,11
 85 361 85 361 74 411.5 c 0,12,13
 39.3582089552 570.537313433 39.3582089552 570.537313433 29.9325955239 617.335310607 c 128,-1,14
 20.5069820925 664.13330778 20.5069820925 664.13330778 20.5069820925 690.653734348 c 128,-1,15
 20.5069820925 717.174160916 20.5069820925 717.174160916 32.7741420403 717.174160916 c 128,-1,16
 45.0413019881 717.174160916 45.0413019881 717.174160916 71 685 c 1,17,18
 71 628 71 628 79 591 c 1,19,20
 85 552 85 552 100.5 471.5 c 128,-1,21
 116 391 116 391 118 386 c 2,22,-1
 126 371 l 1,23,24
 140 429 140 429 171 478.5 c 128,-1,25
 202 528 202 528 252 536 c 0,26,27
 271.211860224 538.930622746 271.211860224 538.930622746 289.017462415 538.930622746 c 0,28,29
 387.748085573 538.930622746 387.748085573 538.930622746 443.241719936 448.825322129 c 0,30,31
 487.897771821 376.317060134 487.897771821 376.317060134 487.897771821 280.602381848 c 0,32,33
 487.897771821 121.662123878 487.897771821 121.662123878 399.805594236 46.0462071036 c 0,34,35
 353.347074921 6.16748431269 353.347074921 6.16748431269 294.716386343 6.16748431269 c 128,-1,36
 236.085697765 6.16748431269 236.085697765 6.16748431269 165 47 c 1,0,1
201.08 133.3408 m 0,37,38
 201.08 85.2266666667 201.08 85.2266666667 236 71 c 0,39,40
 263.90625 59.71875 263.90625 59.71875 286.6640625 59.71875 c 0,41,42
 358.74609375 59.71875 358.74609375 59.71875 401 118 c 0,43,44
 454.801456551 192.137892281 454.801456551 192.137892281 454.801456551 272.971897589 c 0,45,46
 454.801456551 306.957084598 454.801456551 306.957084598 445.291354783 342.125896 c 0,47,48
 422.321364216 427.070020239 422.321364216 427.070020239 360.131341441 467.396843976 c 0,49,50
 328.168383542 488.123071621 328.168383542 488.123071621 297.950647829 488.123071621 c 128,-1,51
 267.732912117 488.123071621 267.732912117 488.123071621 239.537165566 465.129034327 c 0,52,53
 156.087517382 397.074644666 156.087517382 397.074644666 156.087517382 167.555748018 c 0,54,55
 156.087517382 143.169312201 156.087517382 143.169312201 157 118 c 1,56,57
 162.468023256 154.453488372 162.468023256 154.453488372 185.5 169 c 0,58,59
 195 175 195 175 197 173 c 2,60,-1
 205 166 l 1,61,62
 201.08 149.2 201.08 149.2 201.08 133.3408 c 0,37,38
EndSplineSet
EndChar

StartChar: c
Encoding: 99 99 28
Width: 410
Flags: HW
LayerCount: 2
Fore
SplineSet
398.652776185 214.234903596 m 0,0,1
 405.86471531 214.234903596 405.86471531 214.234903596 405.86471531 199.914524764 c 128,-1,2
 405.86471531 185.594145931 405.86471531 185.594145931 391.932357655 143.797072965 c 128,-1,3
 378 102 378 102 335 58 c 128,-1,4
 292 14 292 14 238.5 -3 c 0,5,6
 221.009615385 -8.55769230769 221.009615385 -8.55769230769 194.668269231 -8.55769230769 c 128,-1,7
 168.326923077 -8.55769230769 168.326923077 -8.55769230769 134 15 c 1,8,9
 95 44 95 44 65.5 118.5 c 0,10,11
 22.4912280702 227.115373179 22.4912280702 227.115373179 22.4912280702 327.119883041 c 0,12,13
 22.4912280702 376.561403509 22.4912280702 376.561403509 34.5 422 c 0,14,15
 53 492 53 492 102 512 c 0,16,17
 113.37831864 516.510324506 113.37831864 516.510324506 123.874365178 516.510324506 c 0,18,19
 158.327042164 516.510324506 158.327042164 516.510324506 180.847242962 472.640945837 c 128,-1,20
 203.36744376 428.771567168 203.36744376 428.771567168 203.36744376 397.614635003 c 128,-1,21
 203.36744376 366.457702838 203.36744376 366.457702838 193.030344036 366.457702838 c 0,22,23
 187.927217371 366.457702838 187.927217371 366.457702838 176.162020413 377.332027963 c 128,-1,24
 164.396823456 388.206353088 164.396823456 388.206353088 142 433 c 0,25,26
 133.18363196 450.921797327 133.18363196 450.921797327 122.729286158 450.921797327 c 128,-1,27
 112.274940355 450.921797327 112.274940355 450.921797327 99.9099991239 423.109044777 c 0,28,29
 71.3464773235 358.860444729 71.3464773235 358.860444729 71.3464773235 250.091313834 c 0,30,31
 71.3464773235 97.2359857698 71.3464773235 97.2359857698 135.609507834 56.4529088126 c 0,32,33
 154.783904592 44.2843121505 154.783904592 44.2843121505 178.024960236 44.2843121505 c 128,-1,34
 201.266015881 44.2843121505 201.266015881 44.2843121505 228 55 c 0,35,36
 238.350492504 59.4359253587 238.350492504 59.4359253587 309.168876831 136.835414478 c 128,-1,37
 379.987261158 214.234903596 379.987261158 214.234903596 398.652776185 214.234903596 c 0,0,1
EndSplineSet
EndChar

StartChar: d
Encoding: 100 100 29
Width: 418
Flags: HMW
VStem: 315 64<79 158 158 158>
LayerCount: 2
Fore
SplineSet
79 24 m 0,0,1
 34.8243896815 79.2195128981 34.8243896815 79.2195128981 17.0880872938 220.760525174 c 0,2,3
 10.175131081 275.927988989 10.175131081 275.927988989 10.175131081 322.502149531 c 0,4,5
 10.175131081 412.315333639 10.175131081 412.315333639 36.1559934205 470.788703769 c 128,-1,6
 62.13685576 529.2620739 62.13685576 529.2620739 109.696909155 529.2620739 c 0,7,8
 140.794164075 529.2620739 140.794164075 529.2620739 181 504 c 0,9,10
 254 460 254 460 292 386 c 1,11,12
 293 392 293 392 293 413.5 c 128,-1,13
 293 435 293 435 284.5 514 c 128,-1,14
 276 593 276 593 276 630 c 1,15,16
 274 652 274 652 274 691.5 c 128,-1,17
 274 731 274 731 276 732 c 2,18,-1
 284 740 l 2,19,20
 290.222222222 746.222222222 290.222222222 746.222222222 297.111111111 746.222222222 c 128,-1,21
 304 746.222222222 304 746.222222222 314.5 732.611111111 c 128,-1,22
 325 719 325 719 334.5 681 c 0,23,24
 349 623 349 623 352.5 597 c 128,-1,25
 356 571 356 571 356 468.5 c 0,26,27
 356 177.5 356 177.5 362 173 c 1,28,-1
 379 166 l 1,29,-1
 379 55 l 2,30,31
 379 45.141587189 379 45.141587189 369.98206344 45.141587189 c 128,-1,32
 360.964126879 45.141587189 360.964126879 45.141587189 337.98206344 56.9543959612 c 128,-1,33
 315 68.7672047335 315 68.7672047335 315 79 c 2,34,-1
 315 158 l 1,35,36
 244.986641221 34.643129771 244.986641221 34.643129771 168 12 c 0,37,38
 146.75 5.75 146.75 5.75 128.1875 5.75 c 128,-1,39
 109.625 5.75 109.625 5.75 95 8 c 0,40,41
 94 9 94 9 87.5 16 c 128,-1,42
 81 23 81 23 79 24 c 0,0,1
95 71 m 1,43,44
 103 63 103 63 111.40625 62.4375 c 128,-1,45
 119.8125 61.875 119.8125 61.875 128.34375 61.875 c 0,46,47
 165.3125 61.875 165.3125 61.875 200.65625 85.4375 c 0,48,49
 264.128099174 127.752066116 264.128099174 127.752066116 291.5 242 c 0,50,51
 300.620689655 280.068965517 300.620689655 280.068965517 300.620689655 301.293103448 c 128,-1,52
 300.620689655 322.517241379 300.620689655 322.517241379 300 331 c 1,53,54
 248.757719715 293.042755344 248.757719715 293.042755344 241.5 320 c 0,55,56
 238 333 238 333 237.5 349.5 c 0,57,58
 235.979020979 399.692307692 235.979020979 399.692307692 221 418 c 0,59,60
 164.247316249 484.165323983 164.247316249 484.165323983 125.128516512 484.165323983 c 0,61,62
 95.6847293896 484.165323983 95.6847293896 484.165323983 76.2309143837 446.681254044 c 0,63,64
 49.4883726129 395.153093331 49.4883726129 395.153093331 49.4883726129 302.411824025 c 0,65,66
 49.4883726129 270.067229301 49.4883726129 270.067229301 52.7411926709 232.709691999 c 0,67,68
 62.9098395501 115.92622463 62.9098395501 115.92622463 95 71 c 1,43,44
EndSplineSet
EndChar

StartChar: e
Encoding: 101 101 30
Width: 449
Flags: HMW
VStem: 118 47
LayerCount: 2
Fore
SplineSet
6.01060194639 254.729764999 m 0,0,1
 6.01060194639 275.525813962 6.01060194639 275.525813962 102 292 c 1,2,3
 108 292 108 292 119.5 298 c 128,-1,4
 131 304 131 304 135 310 c 128,-1,5
 139 316 139 316 146 341.5 c 128,-1,6
 153 367 153 367 158.5 395.5 c 128,-1,7
 164 424 164 424 174.5 456 c 0,8,9
 196.258762441 522.312418866 196.258762441 522.312418866 233.5 540.5 c 0,10,11
 242.352941176 544.823529412 242.352941176 544.823529412 254.647058824 544.823529412 c 128,-1,12
 266.941176471 544.823529412 266.941176471 544.823529412 284 536 c 1,13,14
 289 532 289 532 304 517 c 128,-1,15
 319 502 319 502 323 497 c 1,16,17
 323.888888889 484.777777778 323.888888889 484.777777778 323.888888889 458.888888889 c 128,-1,18
 323.888888889 433 323.888888889 433 311.444444444 397 c 128,-1,19
 299 361 299 361 275.5 338.5 c 128,-1,20
 252 316 252 316 227.5 299 c 0,21,22
 168.297450425 257.920679887 168.297450425 257.920679887 165 220 c 0,23,24
 163.769230769 201.538461538 163.769230769 201.538461538 163.769230769 175.538461538 c 128,-1,25
 163.769230769 149.538461538 163.769230769 149.538461538 171.384615385 120.769230769 c 128,-1,26
 179 92 179 92 220 63 c 0,27,28
 230.128835914 55.9538532772 230.128835914 55.9538532772 244.800284374 55.9538532772 c 0,29,30
 290.556910632 55.9538532772 290.556910632 55.9538532772 380.497808735 124.489053921 c 0,31,32
 430.29539975 162.4349491 430.29539975 162.4349491 433.456506913 162.4349491 c 128,-1,33
 436.617614076 162.4349491 436.617614076 162.4349491 436.617614076 159.89343724 c 128,-1,34
 436.617614076 157.351925381 436.617614076 157.351925381 433 150 c 0,35,36
 367.333333333 -4.00396825397 367.333333333 -4.00396825397 274.16595805 -4.00396825397 c 0,37,38
 215.003968254 -4.00396825397 215.003968254 -4.00396825397 163 48 c 0,39,40
 151.333333333 59.6666666667 151.333333333 59.6666666667 140.666666667 86.3333333333 c 128,-1,41
 130 113 130 113 127 135.5 c 128,-1,42
 124 158 124 158 123 167.5 c 128,-1,43
 122 177 122 177 120.5 203 c 128,-1,44
 119 229 119 229 118 237 c 1,45,46
 92.9814185406 232.426710916 92.9814185406 232.426710916 67.5032016671 232.426710916 c 128,-1,47
 42.0249847936 232.426710916 42.0249847936 232.426710916 24.01779337 240.129342054 c 128,-1,48
 6.01060194639 247.831973191 6.01060194639 247.831973191 6.01060194639 254.729764999 c 0,0,1
188 371 m 1,49,-1
 181 331 l 1,50,51
 182 330 182 330 184.5 330 c 128,-1,52
 187 330 187 330 199.5 338 c 128,-1,53
 212 346 212 346 228 362 c 0,54,55
 282.795075967 416.795075967 282.795075967 416.795075967 282.795075967 457.281999315 c 0,56,57
 282.795075967 482.921514331 282.795075967 482.921514331 265.288593169 482.921514331 c 0,58,59
 233.265159385 482.921514331 233.265159385 482.921514331 204.744027785 418.645969044 c 0,60,61
 195.318863931 397.405313006 195.318863931 397.405313006 188 371 c 1,49,-1
EndSplineSet
EndChar

StartChar: f
Encoding: 102 102 31
Width: 473
Flags: HMW
VStem: 158 47<24 284 284 284>
LayerCount: 2
Fore
SplineSet
192.753206503 -2.89924326855 m 0,0,1
 162.053876319 -2.89924326855 162.053876319 -2.89924326855 158 24 c 1,2,-1
 158 284 l 1,3,4
 150.115384615 284.961538462 150.115384615 284.961538462 127.596153846 284.961538462 c 128,-1,5
 105.076923077 284.961538462 105.076923077 284.961538462 78.3203408189 275.844428224 c 128,-1,6
 51.5637585608 266.727317985 51.5637585608 266.727317985 48.3104063833 266.727317985 c 0,7,8
 35.2180043199 266.727317985 35.2180043199 266.727317985 27.0395508911 283.366615001 c 128,-1,9
 18.8610974622 300.005912017 18.8610974622 300.005912017 18.8610974622 310.323518341 c 128,-1,10
 18.8610974622 320.641124664 18.8610974622 320.641124664 25.6134579489 325.480347893 c 128,-1,11
 32.3658184355 330.319571122 32.3658184355 330.319571122 39 331 c 2,12,-1
 104.209876543 329.444444444 l 1,13,14
 152.481481481 329.444444444 152.481481481 329.444444444 158 346 c 1,15,16
 152.857142857 407.714285714 152.857142857 407.714285714 152.857142857 462.357142857 c 128,-1,17
 152.857142857 517 152.857142857 517 153 533.5 c 0,18,19
 154 649 154 649 173 725 c 0,20,21
 180 752 180 752 191.03030303 759.484848485 c 128,-1,22
 202.060606061 766.96969697 202.060606061 766.96969697 213.378787879 766.96969697 c 0,23,24
 272.774127833 766.96969697 272.774127833 766.96969697 329.887063916 700.984848485 c 128,-1,25
 387 635 387 635 394 583 c 0,26,27
 395.711696397 567.594732429 395.711696397 567.594732429 377.649065976 560.105032254 c 0,28,29
 370.871362007 557.29464587 370.871362007 557.29464587 364.939805018 557.29464587 c 0,30,31
 348.831703476 557.29464587 348.831703476 557.29464587 340.010214358 576.487783594 c 128,-1,32
 331.18872524 595.680921318 331.18872524 595.680921318 331.09436262 610.340460659 c 0,33,34
 330.941880456 634.029059772 330.941880456 634.029059772 323 638 c 1,35,-1
 252 709 l 1,36,37
 230.854368932 713.699029126 230.854368932 713.699029126 224.927184466 708.849514563 c 128,-1,38
 219 704 219 704 215.5 699.5 c 128,-1,39
 212 695 212 695 209 686.5 c 128,-1,40
 206 678 206 678 204 671 c 128,-1,41
 202 664 202 664 201 654.5 c 128,-1,42
 200 645 200 645 199.5 639 c 128,-1,43
 199 633 199 633 198 625 c 128,-1,44
 197 617 197 617 193.5 577.25 c 128,-1,45
 190 537.5 190 537.5 190 472.5 c 128,-1,46
 190 407.5 190 407.5 197 354 c 1,47,48
 198.116533138 353.776693372 198.116533138 353.776693372 287.877285804 384.794684429 c 128,-1,49
 377.638038471 415.812675486 377.638038471 415.812675486 417.777248947 415.812675486 c 128,-1,50
 457.916459423 415.812675486 457.916459423 415.812675486 457.916459423 391.811674189 c 0,51,52
 457.916459423 379.832918847 457.916459423 379.832918847 449 362 c 0,53,54
 443.222222222 352.611111111 443.222222222 352.611111111 430.916666667 352.611111111 c 128,-1,55
 418.611111111 352.611111111 418.611111111 352.611111111 410 354 c 0,56,57
 409 354 409 354 355.5 336.5 c 128,-1,58
 302 319 302 319 295.5 316.5 c 128,-1,59
 289 314 289 314 260 307 c 128,-1,60
 231 300 231 300 228 299 c 2,61,-1
 205 292 l 1,62,-1
 205 8 l 2,63,64
 205 -2.89924326855 205 -2.89924326855 192.753206503 -2.89924326855 c 0,0,1
EndSplineSet
EndChar

StartChar: g
Encoding: 103 103 32
Width: 435
Flags: HW
LayerCount: 2
Fore
SplineSet
209 -575 m 0,0,1
 155 -550 155 -550 122 -485 c 128,-1,2
 89 -420 89 -420 80.8181818182 -350.909090909 c 128,-1,3
 72.6363636364 -281.818181818 72.6363636364 -281.818181818 72.6363636364 -247.295454545 c 128,-1,4
 72.6363636364 -212.772727273 72.6363636364 -212.772727273 73.8181818182 -172.886363636 c 128,-1,5
 75 -133 75 -133 85 -89 c 0,6,7
 87 -81 87 -81 107.620689655 -40.6551724138 c 128,-1,8
 128.24137931 -0.310344827586 128.24137931 -0.310344827586 128.24137931 9.89655172414 c 128,-1,9
 128.24137931 20.1034482759 128.24137931 20.1034482759 127 23 c 1,10,-1
 106 23 l 2,11,12
 62 23 62 23 23 120 c 1,13,14
 19.6666666667 162 19.6666666667 162 19.6666666667 212.833333333 c 128,-1,15
 19.6666666667 263.666666667 19.6666666667 263.666666667 30.8333333333 293.833333333 c 128,-1,16
 42 324 42 324 55 352.5 c 128,-1,17
 68 381 68 381 87.5 414.5 c 128,-1,18
 107 448 107 448 128.5 475 c 0,19,20
 179.595679012 539.166666667 179.595679012 539.166666667 234.940972222 539.166666667 c 0,21,22
 259.5 539.166666667 259.5 539.166666667 288.25 518.083333333 c 128,-1,23
 317 497 317 497 345 449 c 1,24,25
 355 447 355 447 376 451 c 128,-1,26
 397 455 397 455 399 449 c 1,27,28
 403 387.333333333 403 387.333333333 403 315.333333333 c 128,-1,29
 403 243.333333333 403 243.333333333 387 202 c 1,30,31
 382 72 382 72 378 -150 c 1,32,33
 370 -219 370 -219 367 -276 c 1,34,35
 347.689655172 -391.862068966 347.689655172 -391.862068966 329.844827586 -441.431034483 c 128,-1,36
 312 -491 312 -491 295.5 -524.5 c 0,37,38
 267.950436497 -580.433962264 267.950436497 -580.433962264 231.128871485 -580.433962264 c 0,39,40
 220.320754717 -580.433962264 220.320754717 -580.433962264 209 -575 c 0,0,1
178 -494 m 0,41,42
 199.685964796 -519.628867486 199.685964796 -519.628867486 219.032305367 -519.628867486 c 0,43,44
 262.97313581 -519.628867486 262.97313581 -519.628867486 294.844585923 -387.417657782 c 0,45,46
 315.304383629 -302.488651434 315.304383629 -302.488651434 325.152191815 -202.244325717 c 128,-1,47
 335 -102 335 -102 335.5 -71.5 c 128,-1,48
 336 -41 336 -41 336 26 c 128,-1,49
 336 93 336 93 335 112 c 1,50,-1
 313 112 l 1,51,-1
 188 23 l 1,52,53
 135 -16 135 -16 117.5 -123 c 0,54,55
 108.993055556 -175.013888889 108.993055556 -175.013888889 108.993055556 -228.635416667 c 128,-1,56
 108.993055556 -282.256944444 108.993055556 -282.256944444 118.5 -337.5 c 0,57,58
 137 -445 137 -445 178 -494 c 0,41,42
85 97 m 1,59,60
 123.705882353 85.4705882353 123.705882353 85.4705882353 145.558823529 85.4705882353 c 128,-1,61
 167.411764706 85.4705882353 167.411764706 85.4705882353 175 86 c 0,62,63
 249.22943038 91.1787974684 249.22943038 91.1787974684 304 165 c 0,64,65
 339 212.173913043 339 212.173913043 339 287.84 c 0,66,67
 339 304.8 339 304.8 335.5 334.9 c 128,-1,68
 332 365 332 365 307.5 410.5 c 128,-1,69
 283 456 283 456 242 494 c 1,70,71
 234.975609756 495.975609756 234.975609756 495.975609756 227.975312314 495.975609756 c 0,72,73
 203.085365854 495.975609756 203.085365854 495.975609756 175.042682927 467.487804878 c 0,74,75
 126.42670537 418.100145138 126.42670537 418.100145138 88 274 c 0,76,77
 72.4848484848 215.818181818 72.4848484848 215.818181818 72.4848484848 167.881313131 c 128,-1,78
 72.4848484848 119.944444444 72.4848484848 119.944444444 85 97 c 1,59,60
EndSplineSet
EndChar

StartChar: h
Encoding: 104 104 33
Width: 527
Flags: HMW
VStem: 55 40
LayerCount: 2
Fore
SplineSet
432.731343284 33.5052350189 m 2,0,-1
 434.200843133 113.975757863 l 1,1,2
 434.200843133 391.841918295 434.200843133 391.841918295 362.766129134 495.862046955 c 0,3,4
 331.582380681 541.27046738 331.582380681 541.27046738 294.720678842 541.27046738 c 0,5,6
 272.94060003 541.27046738 272.94060003 541.27046738 249.178264252 525.41772052 c 0,7,8
 176.719481818 477.07774475 176.719481818 477.07774475 132.570110738 317.29571627 c 0,9,10
 99.4385495701 197.388503081 99.4385495701 197.388503081 95 47 c 1,11,12
 91.1181782552 34.966352591 91.1181782552 34.966352591 83.5130512925 34.966352591 c 128,-1,13
 75.9079243299 34.966352591 75.9079243299 34.966352591 61.4385008663 47.9705697687 c 128,-1,14
 46.9690774027 60.9747869464 46.9690774027 60.9747869464 46.9690774027 77.6393875885 c 1,15,-1
 55 181 l 1,16,17
 56 209 56 209 56 306.5 c 128,-1,18
 56 404 56 404 55.5 449.5 c 128,-1,19
 55 495 55 495 47 551 c 1,20,21
 42 610 42 610 36.6785714286 647.428571429 c 128,-1,22
 31.3571428571 684.857142857 31.3571428571 684.857142857 31.3571428571 690.474489796 c 0,23,24
 31.3571428571 715.78125 31.3571428571 715.78125 42.7410714286 715.78125 c 128,-1,25
 54.125 715.78125 54.125 715.78125 71 693 c 1,26,27
 75 650 75 650 81.5 540.5 c 128,-1,28
 88 431 88 431 95 371 c 1,29,30
 153 555 153 555 252 583 c 0,31,32
 275.578947368 589.736842105 275.578947368 589.736842105 300.210526316 589.736842105 c 128,-1,33
 324.842105263 589.736842105 324.842105263 589.736842105 348 577 c 0,34,35
 388 555 388 555 408.5 511 c 128,-1,36
 429 467 429 467 442 404 c 128,-1,37
 455 341 455 341 458 285 c 0,38,39
 466.366459627 128.826086957 466.366459627 128.826086957 473 94 c 0,40,41
 476.464480874 74.9453551913 476.464480874 74.9453551913 501.5 72 c 0,42,43
 521.470588235 69.6505190311 521.470588235 69.6505190311 521.470588235 58.5899653979 c 128,-1,44
 521.470588235 47.5294117647 521.470588235 47.5294117647 506.949579832 25.8871548619 c 128,-1,45
 492.428571429 4.24489795918 492.428571429 4.24489795918 462.579957356 4.24489795918 c 128,-1,46
 432.731343284 4.24489795918 432.731343284 4.24489795918 432.731343284 33.5052350189 c 2,0,-1
EndSplineSet
EndChar

StartChar: i
Encoding: 105 105 34
Width: 111
Flags: HW
LayerCount: 2
Fore
SplineSet
50.625 1.75 m 0,0,1
 30.3571428571 1.75 30.3571428571 1.75 24 24 c 1,2,3
 19.1 35.2 19.1 35.2 19.1 112.675 c 0,4,5
 19.1 456.866666667 19.1 456.866666667 32 497 c 1,6,7
 43 502 43 502 57 489 c 128,-1,8
 71 476 71 476 71 465 c 2,9,-1
 71 24 l 2,10,11
 71 10 71 10 63.5 5.875 c 128,-1,12
 56 1.75 56 1.75 50.625 1.75 c 0,0,1
71 701 m 1,13,14
 96.1775161461 669.348265416 96.1775161461 669.348265416 96.1775161461 651.617921438 c 128,-1,15
 96.1775161461 633.88757746 96.1775161461 633.88757746 68.6183731148 633.88757746 c 0,16,17
 53.5102790772 633.88757746 53.5102790772 633.88757746 39.0664202681 644.258603975 c 0,18,19
 33.5570644846 649.026498946 33.5570644846 649.026498946 31.7785322423 653.513249473 c 128,-1,20
 30 658 30 658 30 673.5 c 128,-1,21
 30 689 30 689 32 693 c 1,22,23
 48.5 701.642857143 48.5 701.642857143 57.8214285714 701.642857143 c 128,-1,24
 67.1428571429 701.642857143 67.1428571429 701.642857143 71 701 c 1,13,14
EndSplineSet
EndChar

StartChar: j
Encoding: 106 106 35
Width: 150
Flags: HMW
VStem: 102 40<-260 -71 -267 -7>
LayerCount: 2
Fore
SplineSet
-24 -488 m 1,0,1
 -63 -461 -63 -461 -91.1447368421 -417.875 c 128,-1,2
 -119.289473684 -374.75 -119.289473684 -374.75 -119.289473684 -338.994806094 c 0,3,4
 -119.289473684 -330.921052632 -119.289473684 -330.921052632 -118 -323 c 1,5,6
 -112 -320 -112 -320 -98 -339 c 128,-1,7
 -84 -358 -84 -358 -67.5 -385 c 0,8,9
 -29.3812824957 -447.376083189 -29.3812824957 -447.376083189 11 -460.5 c 0,10,11
 14.768115942 -461.724637681 14.768115942 -461.724637681 18.5539802562 -461.724637681 c 0,12,13
 34.8623188406 -461.724637681 34.8623188406 -461.724637681 53.4311594203 -436.362318841 c 128,-1,14
 72 -411 72 -411 87 -348.5 c 128,-1,15
 102 -286 102 -286 102 -260 c 2,16,-1
 102 -7 l 1,17,18
 46.6486486486 270.621621622 46.6486486486 270.621621622 46.6486486486 326.837837838 c 0,19,20
 46.6486486486 335.621621622 46.6486486486 335.621621622 48 339 c 0,21,22
 57.606814441 362.788302425 57.606814441 362.788302425 70.9859977922 362.788302425 c 0,23,24
 77.3383377477 362.788302425 77.3383377477 362.788302425 84.5410760555 357.425748108 c 0,25,26
 103.066101112 343.633569513 103.066101112 343.633569513 103.066101112 318.249517411 c 0,27,28
 103.066101112 311.930717644 103.066101112 311.930717644 102 307 c 1,29,30
 108 268 108 268 123.5 122 c 128,-1,31
 139 -24 139 -24 141 -54.5 c 128,-1,32
 143 -85 143 -85 143 -160.5 c 128,-1,33
 143 -236 143 -236 142 -261.5 c 128,-1,34
 141 -287 141 -287 137.5 -314 c 128,-1,35
 134 -341 134 -341 126 -375.5 c 128,-1,36
 118 -410 118 -410 105 -437 c 0,37,38
 71.5308641975 -506.512820513 71.5308641975 -506.512820513 30.2393162393 -506.512820513 c 0,39,40
 6.20512820513 -506.512820513 6.20512820513 -506.512820513 -24 -488 c 1,0,1
16 520 m 1,41,42
 -12.4164103687 537.262305364 -12.4164103687 537.262305364 -12.4164103687 548.512668182 c 0,43,44
 -12.4164103687 555.245700356 -12.4164103687 555.245700356 -1.40930743236 560.198562348 c 128,-1,45
 9.597795504 565.151424339 9.597795504 565.151424339 23.7835655965 565.151424339 c 128,-1,46
 37.9693356889 565.151424339 37.9693356889 565.151424339 57.3717452978 558.494273749 c 128,-1,47
 76.7741549067 551.837123158 76.7741549067 551.837123158 76.7741549067 539.33259862 c 0,48,49
 76.7741549067 524.182769938 76.7741549067 524.182769938 48 505 c 1,50,51
 38 509 38 509 16 520 c 1,41,42
EndSplineSet
EndChar

StartChar: k
Encoding: 107 107 36
Width: 612
Flags: HW
LayerCount: 2
Fore
SplineSet
60 22 m 1,0,1
 75.3333333333 133.666666667 75.3333333333 133.666666667 75.3333333333 240 c 0,2,3
 75.3333333333 452.666666667 75.3333333333 452.666666667 14 644 c 0,4,5
 11.5499711684 651.350086495 11.5499711684 651.350086495 11.5499711684 660.761878766 c 128,-1,6
 11.5499711684 670.173671038 11.5499711684 670.173671038 19.9283904959 673.970001175 c 128,-1,7
 28.3068098234 677.766331312 28.3068098234 677.766331312 32.5703494335 677.766331312 c 0,8,9
 44.8566412904 677.766331312 44.8566412904 677.766331312 54.1149394743 660.351778892 c 1,10,-1
 60 644 l 1,11,12
 70 582 70 582 84.5 467 c 128,-1,13
 99 352 99 352 105 313 c 1,14,15
 120.272727273 299.636363636 120.272727273 299.636363636 133.863636364 299.636363636 c 128,-1,16
 147.454545455 299.636363636 147.454545455 299.636363636 167.227272727 307.818181818 c 128,-1,17
 187 316 187 316 213 344 c 128,-1,18
 239 372 239 372 267.5 413.5 c 128,-1,19
 296 455 296 455 317.5 492 c 0,20,21
 371.617312073 585.132118451 371.617312073 585.132118451 386.559464082 595.572240111 c 128,-1,22
 401.501616091 606.012361771 401.501616091 606.012361771 406.721064963 606.012361771 c 128,-1,23
 411.940513835 606.012361771 411.940513835 606.012361771 411.940513835 599.412237657 c 0,24,25
 411.940513835 560.797973473 411.940513835 560.797973473 309.29837428 414.705658408 c 0,26,27
 241.87364662 318.738888823 241.87364662 318.738888823 211 299 c 0,28,29
 184 281 184 281 172 275 c 1,30,-1
 172 267 l 2,31,32
 172 264 172 264 208.5 243 c 128,-1,33
 245 222 245 222 271.5 205.5 c 128,-1,34
 298 189 298 189 322.5 174.5 c 128,-1,35
 347 160 347 160 379 142.5 c 0,36,37
 433.665301945 112.604912999 433.665301945 112.604912999 475.112650972 100.662456499 c 128,-1,38
 516.56 88.72 516.56 88.72 529.27 88.72 c 128,-1,39
 541.98 88.72 541.98 88.72 557.49 91.36 c 128,-1,40
 573 94 573 94 592 106.5 c 0,41,42
 631.995749848 132.812993321 631.995749848 132.812993321 634 221 c 1,43,-1
 654 221 l 1,44,45
 659 214 659 214 662.461538462 190.057692308 c 128,-1,46
 665.923076923 166.115384615 665.923076923 166.115384615 665.923076923 159.636094675 c 0,47,48
 665.923076923 124 665.923076923 124 637.095201828 84.2524752475 c 128,-1,49
 608.267326733 44.504950495 608.267326733 44.504950495 554.18115871 44.504950495 c 0,50,51
 477.131144693 44.504950495 477.131144693 44.504950495 373 100.5 c 0,52,53
 320 129 320 129 298 141 c 128,-1,54
 276 153 276 153 211 195 c 2,55,-1
 146 237 l 2,56,57
 144 238 144 238 138.5 239.5 c 128,-1,58
 133 241 133 241 127 243 c 128,-1,59
 121 245 121 245 120 245 c 2,60,-1
 113 245 l 1,61,62
 111 227 111 227 107.5 139 c 128,-1,63
 104 51 104 51 93 7 c 1,64,65
 89.8 3.8 89.8 3.8 80.6 3.8 c 128,-1,66
 71.4 3.8 71.4 3.8 64.2 7.4 c 128,-1,67
 57 11 57 11 60 22 c 1,0,1
EndSplineSet
EndChar

StartChar: l
Encoding: 108 108 37
Width: 141
Flags: HMW
VStem: 54 32
LayerCount: 2
Fore
SplineSet
51.7952420179 775.804124587 m 0,0,1
 86.9193124276 775.804124587 86.9193124276 775.804124587 86.9193124276 541.970836751 c 0,2,3
 86.9193124276 497.065283151 86.9193124276 497.065283151 86 441 c 1,4,5
 87 414 87 414 91.5 278.5 c 128,-1,6
 96 143 96 143 102 71 c 1,7,8
 113.346280696 49.568136463 113.346280696 49.568136463 113.346280696 32.3828505695 c 128,-1,9
 113.346280696 15.197564676 113.346280696 15.197564676 108.038057737 -0.348663774543 c 128,-1,10
 102.729834778 -15.8948922251 102.729834778 -15.8948922251 92.7006194742 -15.8948922251 c 0,11,12
 77.8649446561 -15.8948922251 77.8649446561 -15.8948922251 62 15 c 1,13,14
 54 43.8 54 43.8 54 141.4 c 2,15,-1
 55.6363636364 305.223140496 l 2,16,17
 55.6363636364 371 55.6363636364 371 48.8181818182 483.5 c 0,18,19
 39.2 642.2 39.2 642.2 39.2 688.9 c 128,-1,20
 39.2 735.6 39.2 735.6 41 771 c 1,21,22
 46.7461097998 775.804124587 46.7461097998 775.804124587 51.7952420179 775.804124587 c 0,0,1
EndSplineSet
EndChar

StartChar: m
Encoding: 109 109 38
Width: 890
Flags: HW
LayerCount: 2
Fore
SplineSet
733 71 m 1,0,-1
 740 63 l 2,1,2
 740.774193548 62.2258064516 740.774193548 62.2258064516 742.422476587 62.2258064516 c 0,3,4
 753.548387097 62.2258064516 753.548387097 62.2258064516 805.644980065 98.2926785067 c 128,-1,5
 857.741573034 134.359550562 857.741573034 134.359550562 871.638681985 134.359550562 c 0,6,7
 873.011235955 134.359550562 873.011235955 134.359550562 874 134 c 2,8,-1
 874 118 l 1,9,10
 868 113 868 113 854.5 97 c 128,-1,11
 841 81 841 81 828 66 c 128,-1,12
 815 51 815 51 797.5 35 c 128,-1,13
 780 19 780 19 764.5 10 c 128,-1,14
 749 1 749 1 732 1 c 128,-1,15
 715 1 715 1 701 15 c 1,16,17
 693 25 693 25 685 55 c 1,18,19
 685 61 685 61 690.5 116 c 0,20,21
 701 221 701 221 701 257 c 128,-1,22
 701 293 701 293 700 326 c 0,23,24
 696.974747475 425.833333333 696.974747475 425.833333333 592.375 425.833333333 c 0,25,26
 549.25 425.833333333 549.25 425.833333333 512.125 402.916666667 c 128,-1,27
 475 380 475 380 454 338.5 c 128,-1,28
 433 297 433 297 417 245.5 c 128,-1,29
 401 194 401 194 393.5 148.5 c 0,30,31
 375.320987654 38.2139917695 375.320987654 38.2139917695 354 24 c 1,32,33
 344 19 344 19 337.5 19 c 0,34,35
 323.8 19 323.8 19 315 63 c 1,36,37
 315 76 315 76 321.710526316 166.368421053 c 128,-1,38
 328.421052632 256.736842105 328.421052632 256.736842105 328.421052632 294.407894737 c 0,39,40
 328.421052632 408.38245614 328.421052632 408.38245614 309.960304146 459.154805428 c 128,-1,41
 291.499555661 509.927154716 291.499555661 509.927154716 267.139101772 509.927154716 c 0,42,43
 231.634411968 509.927154716 231.634411968 509.927154716 182.569684369 387.284245402 c 128,-1,44
 133.504956771 264.641336087 133.504956771 264.641336087 99.0402851167 93.5360538661 c 0,45,46
 95.9010028378 77.9505933203 95.9010028378 77.9505933203 95 71 c 0,47,48
 91.7618305767 49.1423563928 91.7618305767 49.1423563928 77.0200795993 49.1423563928 c 0,49,50
 72.3562417679 49.1423563928 72.3562417679 49.1423563928 66.541015625 51.330078125 c 0,51,52
 44.0975004039 59.7734584493 44.0975004039 59.7734584493 38.1179598113 84.1921408348 c 0,53,54
 36.9416510626 88.9958392593 36.9416510626 88.9958392593 36.9416510626 97.9250506238 c 128,-1,55
 36.9416510626 106.854261988 36.9416510626 106.854261988 47 118 c 1,56,57
 47.2857142857 123.142857143 47.2857142857 123.142857143 47.2857142857 143.632653061 c 2,58,-1
 44.9047619048 429.891156463 l 1,59,60
 44.9047619048 554.19047619 44.9047619048 554.19047619 51 574 c 1,61,62
 53.3499248786 589.039519223 53.3499248786 589.039519223 63.1042356971 589.039519223 c 0,63,64
 69.2217501811 589.039519223 69.2217501811 589.039519223 81.7672549801 580.389890355 c 128,-1,65
 94.312759779 571.740261488 94.312759779 571.740261488 99.6563798895 551.370130744 c 128,-1,66
 105 531 105 531 107 479 c 128,-1,67
 109 427 109 427 115 401 c 1,68,69
 135.201342282 445.44295302 135.201342282 445.44295302 163.600671141 486.22147651 c 128,-1,70
 192 527 192 527 213.5 543.5 c 0,71,72
 244.85770751 567.565217391 244.85770751 567.565217391 266.956521739 567.565217391 c 1,73,-1
 298 555 l 1,74,75
 319 538 319 538 335 496 c 0,76,77
 337 490 337 490 352 423.5 c 128,-1,78
 367 357 367 357 382 338 c 1,79,80
 403 351 403 351 436 399.5 c 128,-1,81
 469 448 469 448 500 464 c 1,82,83
 555.379310345 480.689655172 555.379310345 480.689655172 582.965517241 480.689655172 c 128,-1,84
 610.551724138 480.689655172 610.551724138 480.689655172 622.5 479 c 0,85,86
 708.464025026 466.843471208 708.464025026 466.843471208 741.5 355.5 c 0,87,88
 755.538461538 308.185185185 755.538461538 308.185185185 755.538461538 227.498186998 c 128,-1,89
 755.538461538 146.811188811 755.538461538 146.811188811 733 71 c 1,0,-1
EndSplineSet
EndChar

StartChar: n
Encoding: 110 110 39
Width: 567
Flags: HW
LayerCount: 2
Fore
SplineSet
47.7287457904 4.56261263421 m 0,0,1
 43.2221336867 0.350022895966 43.2221336867 0.350022895966 37.385055548 0.350022895966 c 0,2,3
 26.824988552 0.350022895966 26.824988552 0.350022895966 15 24 c 1,4,5
 18 37 18 37 28.5 181 c 0,6,7
 53.627998155 525.612546125 53.627998155 525.612546125 90.0302147302 525.612546125 c 0,8,9
 94.3874538745 525.612546125 94.3874538745 525.612546125 99 521 c 1,10,11
 139 492 139 492 180.5 431 c 128,-1,12
 222 370 222 370 251.5 312.5 c 128,-1,13
 281 255 281 255 324 198 c 128,-1,14
 367 141 367 141 410 118 c 1,15,-1
 417 118 l 1,16,17
 419 142 419 142 426 246.5 c 0,18,19
 442.607843137 494.431372549 442.607843137 494.431372549 461 568 c 1,20,21
 465 579 465 579 473.461538462 590.423076923 c 128,-1,22
 481.923076923 601.846153846 481.923076923 601.846153846 486.230769231 601.846153846 c 128,-1,23
 490.538461538 601.846153846 490.538461538 601.846153846 493 600 c 2,24,-1
 540 552 l 2,25,26
 541.066666667 551.2 541.066666667 551.2 541.066666667 548.1 c 128,-1,27
 541.066666667 545 541.066666667 545 531.533333333 532 c 128,-1,28
 522 519 522 519 508 502.5 c 128,-1,29
 494 486 494 486 493 481 c 0,30,31
 477.37994723 422.424802111 477.37994723 422.424802111 472.189973615 332.712401055 c 128,-1,32
 467 243 467 243 465.5 206.5 c 0,33,34
 461 97 461 97 461 27 c 1,35,36
 381.298430666 28.9925392333 381.298430666 28.9925392333 303.5 134.5 c 0,37,38
 251.655806621 204.809248555 251.655806621 204.809248555 194.327903311 303.904624277 c 128,-1,39
 137 403 137 403 115 434 c 1,40,-1
 106 434 l 2,41,42
 99.4008714831 434 99.4008714831 434 91.0197370865 283.766892429 c 0,43,44
 76.9684035568 31.8946038114 76.9684035568 31.8946038114 47.7287457904 4.56261263421 c 0,0,1
EndSplineSet
EndChar

StartChar: o
Encoding: 111 111 40
Width: 346
Flags: HW
LayerCount: 2
Fore
SplineSet
171.903451916 -3.0919042323 m 0,0,1
 151.99855724 -12.4164149395 151.99855724 -12.4164149395 128.491542673 -12.4164149395 c 128,-1,2
 104.984528105 -12.4164149395 104.984528105 -12.4164149395 73.9922640524 11.7917925303 c 128,-1,3
 43 36 43 36 29.0714285714 72.6785714286 c 128,-1,4
 15.1428571429 109.357142857 15.1428571429 109.357142857 15.1428571429 128.25 c 128,-1,5
 15.1428571429 147.142857143 15.1428571429 147.142857143 16.5714285714 168.571428571 c 128,-1,6
 18 190 18 190 25.5 216.5 c 128,-1,7
 33 243 33 243 45 297.5 c 0,8,9
 68.6514522822 404.917012448 68.6514522822 404.917012448 102 433 c 0,10,11
 122.944444444 451.777777778 122.944444444 451.777777778 175.185185185 451.777777778 c 0,12,13
 195.277777778 451.777777778 195.277777778 451.777777778 220 449 c 0,14,15
 325.325911774 440.898006787 325.325911774 440.898006787 325.325911774 301.180853761 c 0,16,17
 325.325911774 223.302431137 325.325911774 223.302431137 281.122164682 125.333496342 c 128,-1,18
 236.91841759 27.3645615475 236.91841759 27.3645615475 171.903451916 -3.0919042323 c 0,0,1
94 63 m 1,19,20
 110.888888889 49.6296296296 110.888888889 49.6296296296 129.510973937 49.6296296296 c 0,21,22
 163.814814815 49.6296296296 163.814814815 49.6296296296 204 95 c 0,23,24
 266 165 266 165 281 252.5 c 0,25,26
 284.813559322 274.745762712 284.813559322 274.745762712 284.813559322 294.309106579 c 0,27,28
 284.813559322 351.694915254 284.813559322 351.694915254 252 386 c 1,29,30
 224.519480519 404.32034632 224.519480519 404.32034632 198.62513821 404.32034632 c 0,31,32
 159.502164502 404.32034632 159.502164502 404.32034632 124 362.5 c 0,33,34
 60.0235294118 287.137886341 60.0235294118 287.137886341 60.0235294118 182.033356401 c 0,35,36
 60.0235294118 104.129411765 60.0235294118 104.129411765 94 63 c 1,19,20
EndSplineSet
EndChar

StartChar: p
Encoding: 112 112 41
Width: 386
Flags: HW
LayerCount: 2
Fore
SplineSet
161.8872 -26.56 m 0,0,1
 118.88 -26.56 118.88 -26.56 71 16 c 1,2,3
 55.9368421053 -66.0105263158 55.9368421053 -66.0105263158 48.9684210526 -177.505263158 c 128,-1,4
 42 -289 42 -289 39 -323 c 1,5,6
 31.2880434783 -343.565217391 31.2880434783 -343.565217391 24.7092391304 -343.565217391 c 128,-1,7
 18.1304347826 -343.565217391 18.1304347826 -343.565217391 7 -338 c 1,8,9
 -10 -326 -10 -326 -8 -307 c 1,10,11
 -1.15084915085 -154.606393606 -1.15084915085 -154.606393606 23.9245754246 34.1968031968 c 128,-1,12
 49 223 49 223 55 276 c 0,13,14
 55 278 55 278 50.8 308.45 c 128,-1,15
 46.6 338.9 46.6 338.9 46.6 353.18 c 0,16,17
 46.6 405.457142857 46.6 405.457142857 75.627755102 405.457142857 c 0,18,19
 92.1714285714 405.457142857 92.1714285714 405.457142857 101.085714286 397.228571429 c 128,-1,20
 110 389 110 389 110 386 c 1,21,22
 146.151747466 452.987061482 146.151747466 452.987061482 194.846273345 452.987061482 c 0,23,24
 211.743732903 452.987061482 211.743732903 452.987061482 230.151537934 444.920778104 c 0,25,26
 288.713989688 419.25876515 288.713989688 419.25876515 324.283526356 340.286123526 c 128,-1,27
 359.853063024 261.313481902 359.853063024 261.313481902 359.853063024 195.139588118 c 0,28,29
 359.853063024 159.333478364 359.853063024 159.333478364 350.57034151 124.762798788 c 0,30,31
 323.37228376 23.4718855416 323.37228376 23.4718855416 220 -15 c 0,32,33
 187.36 -26.56 187.36 -26.56 161.8872 -26.56 c 0,0,1
126 32 m 1,34,-1
 133 25 l 1,35,36
 149.001638914 23.3719262733 149.001638914 23.3719262733 163.64728228 23.3719262733 c 0,37,38
 274.081390562 23.3719262733 274.081390562 23.3719262733 307.41666449 115.940509398 c 0,39,40
 319.923889892 150.671771448 319.923889892 150.671771448 319.923889892 194.183598853 c 128,-1,41
 319.923889892 237.695426258 319.923889892 237.695426258 300.275729853 292.207662083 c 0,42,43
 271.269526125 372.683035593 271.269526125 372.683035593 225.120479071 392.808438113 c 0,44,45
 213.695157596 397.790972061 213.695157596 397.790972061 202.934655571 397.790972061 c 0,46,47
 168.578808359 397.790972061 168.578808359 397.790972061 141 347 c 0,48,49
 77.7804878049 230.219512195 77.7804878049 230.219512195 77.7804878049 106.500297442 c 0,50,51
 77.7804878049 89.3170731707 77.7804878049 89.3170731707 79 72 c 1,52,53
 112.07654321 108.967901235 112.07654321 108.967901235 119.5 92 c 0,54,55
 125 79.4285714286 125 79.4285714286 125 57.7142857143 c 128,-1,56
 125 36 125 36 126 32 c 1,34,-1
EndSplineSet
EndChar

StartChar: q
Encoding: 113 113 42
Width: 373
Flags: HW
LayerCount: 2
Fore
SplineSet
231.96875 -116.822265625 m 1,0,-1
 235.133333333 -12.9022222222 l 2,1,2
 235.133333333 15.4 235.133333333 15.4 233 41 c 1,3,4
 210 -12 210 -12 162.5 -24 c 0,5,6
 151.538461538 -26.7692307692 151.538461538 -26.7692307692 140.843195266 -26.7692307692 c 0,7,8
 105.192307692 -26.7692307692 105.192307692 -26.7692307692 72.5 4 c 0,9,10
 22.75 50.8235294118 22.75 50.8235294118 22.75 156.375 c 0,11,12
 22.75 204.75 22.75 204.75 35.875 280.875 c 128,-1,13
 49 357 49 357 87.5 442 c 128,-1,14
 126 527 126 527 177 552 c 0,15,16
 189.75 558.020833333 189.75 558.020833333 207.130208333 558.020833333 c 128,-1,17
 224.510416667 558.020833333 224.510416667 558.020833333 251.255208333 532.510416667 c 0,18,19
 298.327607579 487.610589694 298.327607579 487.610589694 323.5 348.5 c 0,20,21
 330.185185185 311.555555556 330.185185185 311.555555556 330.185185185 294.277777778 c 128,-1,22
 330.185185185 277 330.185185185 277 329 269 c 0,23,24
 287 102 287 102 290 99 c 1,25,26
 360 69 360 69 414 12.5 c 128,-1,27
 468 -44 468 -44 496 -108.5 c 0,28,29
 551 -235.196428571 551 -235.196428571 551 -339 c 1,30,31
 536.956284153 -409.218579235 536.956284153 -409.218579235 490.5 -468 c 0,32,33
 454.53313783 -513.509090909 454.53313783 -513.509090909 410.452561983 -513.509090909 c 0,34,35
 389.872727273 -513.509090909 389.872727273 -513.509090909 367 -503 c 1,36,37
 320 -479 320 -479 289.5 -428 c 128,-1,38
 259 -377 259 -377 249 -317.5 c 0,39,40
 231.96875 -216.1640625 231.96875 -216.1640625 231.96875 -116.822265625 c 1,0,-1
290 52 m 1,41,42
 266 -116 266 -116 266 -157.5 c 128,-1,43
 266 -199 266 -199 268.5 -249 c 128,-1,44
 271 -299 271 -299 281 -330 c 0,45,46
 307.920583468 -413.453808752 307.920583468 -413.453808752 354 -451 c 1,47,48
 390.085183935 -477.450790166 390.085183935 -477.450790166 420.552672637 -477.450790166 c 128,-1,49
 451.020161338 -477.450790166 451.020161338 -477.450790166 475.106984189 -437.286944704 c 128,-1,50
 499.19380704 -397.123099242 499.19380704 -397.123099242 499.19380704 -325.175552591 c 0,51,52
 499.19380704 -291.825529558 499.19380704 -291.825529558 493.53272043 -252.456331389 c 0,53,54
 472.570186695 -106.675459008 472.570186695 -106.675459008 391.24051573 -16.8685066129 c 0,55,56
 346.426214127 32.6169493457 346.426214127 32.6169493457 290 52 c 1,41,42
59.8709677419 187.560353798 m 0,57,58
 59.8709677419 101.215053763 59.8709677419 101.215053763 96 41 c 1,59,60
 125.396657827 28.0893056841 125.396657827 28.0893056841 150.31444533 28.0893056841 c 0,61,62
 212.39732498 28.0893056841 212.39732498 28.0893056841 246.677103537 108.233921023 c 0,63,64
 276.232355406 177.332800655 276.232355406 177.332800655 276.232355406 271.664861328 c 0,65,66
 276.232355406 305.541226725 276.232355406 305.541226725 272.420735041 342.671812628 c 0,67,68
 259.953699067 464.118416932 259.953699067 464.118416932 218.066926947 500.885190641 c 0,69,70
 205.126971468 512.243440295 205.126971468 512.243440295 191.652825268 512.243440295 c 0,71,72
 143.46854272 512.243440295 143.46854272 512.243440295 91 373 c 1,73,74
 75.8868778281 323.882352941 75.8868778281 323.882352941 67.878922785 268.360531309 c 128,-1,75
 59.8709677419 212.838709677 59.8709677419 212.838709677 59.8709677419 187.560353798 c 0,57,58
240 60 m 1,76,-1
 233 54 l 1,77,-1
 240 54 l 1,78,-1
 240 60 l 1,76,-1
EndSplineSet
EndChar

StartChar: r
Encoding: 114 114 43
Width: 455
Flags: HW
LayerCount: 2
Fore
SplineSet
409.809573361 53.5483870968 m 0,0,1
 458.792724777 53.5483870968 458.792724777 53.5483870968 495 119 c 1,2,-1
 511 119 l 1,3,4
 512 111.25 512 111.25 512 103.953125 c 0,5,6
 512 52.875 512 52.875 463 24 c 0,7,8
 436.217391304 8.21739130435 436.217391304 8.21739130435 406.304347826 8.21739130435 c 128,-1,9
 376.391304348 8.21739130435 376.391304348 8.21739130435 342.195652174 27.6086956522 c 128,-1,10
 308 47 308 47 280.5 73.5 c 128,-1,11
 253 100 253 100 237.5 120 c 128,-1,12
 222 140 222 140 192 162 c 128,-1,13
 162 184 162 184 120 199 c 1,14,15
 106.380952381 158.142857143 106.380952381 158.142857143 101.19047619 88.0714285714 c 128,-1,16
 96 18 96 18 95 8 c 1,17,18
 83.2950819672 -6.45901639344 83.2950819672 -6.45901639344 75.3114754098 -6.45901639344 c 128,-1,19
 67.3278688525 -6.45901639344 67.3278688525 -6.45901639344 57.1639344262 -0.229508196721 c 128,-1,20
 47 6 47 6 37.5 23 c 128,-1,21
 28 40 28 40 25 54 c 1,22,23
 61.220212766 136.501595745 61.220212766 136.501595745 63 233.5 c 0,24,25
 63.5 260.75 63.5 260.75 63.5 282.25 c 128,-1,26
 63.5 303.75 63.5 303.75 62.75 327.375 c 128,-1,27
 62 351 62 351 56 425 c 128,-1,28
 50 499 50 499 48 526 c 1,29,30
 57.75 541.75 57.75 541.75 66.5 541.75 c 128,-1,31
 75.25 541.75 75.25 541.75 80 540 c 1,32,33
 125.292237443 596.076103501 125.292237443 596.076103501 210 633 c 0,34,35
 231.737704918 642.475409836 231.737704918 642.475409836 249.56557377 642.475409836 c 0,36,37
 310.799421408 642.475409836 310.799421408 642.475409836 326 572 c 1,38,39
 329.088983051 551.978813559 329.088983051 551.978813559 329.088983051 532.258672077 c 0,40,41
 329.088983051 379.610169492 329.088983051 379.610169492 144 245 c 1,42,43
 139 235 139 235 157 225.5 c 128,-1,44
 175 216 175 216 191 212 c 1,45,46
 209 200 209 200 244 166 c 128,-1,47
 279 132 279 132 308 107 c 0,48,49
 370.003870968 53.5483870968 370.003870968 53.5483870968 409.809573361 53.5483870968 c 0,0,1
106 415.5 m 1,50,-1
 112 356 l 2,51,52
 114 346 114 346 120 284 c 1,53,54
 201.266198203 315.656019067 201.266198203 315.656019067 248.102288939 417.322394208 c 0,55,56
 277.193266621 480.469727893 277.193266621 480.469727893 277.193266621 529.958042001 c 0,57,58
 277.193266621 600.909993705 277.193266621 600.909993705 236.374676017 600.909993705 c 0,59,60
 202.901811315 600.909993705 202.901811315 600.909993705 155 557 c 0,61,62
 143 546 143 546 134.5 533 c 128,-1,63
 126 520 126 520 120 512.5 c 128,-1,64
 114 505 114 505 111.5 488.5 c 128,-1,65
 109 472 109 472 106.857142857 467.285714286 c 128,-1,66
 104.714285714 462.571428571 104.714285714 462.571428571 104.714285714 450.989795918 c 2,67,-1
 106 415.5 l 1,50,-1
EndSplineSet
EndChar

StartChar: s
Encoding: 115 115 44
Width: 371
Flags: HW
LayerCount: 2
Fore
SplineSet
255 -11 m 1,0,1
 235.75 -13.45 235.75 -13.45 213.675 -13.45 c 128,-1,2
 191.6 -13.45 191.6 -13.45 182.8 -8.725 c 128,-1,3
 174 -4 174 -4 156 5 c 128,-1,4
 138 14 138 14 128.5 19.5 c 128,-1,5
 119 25 119 25 101 36 c 0,6,7
 75.4714828897 51.6007604563 75.4714828897 51.6007604563 56.5 79.5 c 0,8,9
 49.275 90.125 49.275 90.125 49.275 101.11125 c 0,10,11
 49.275 131.142857143 49.275 131.142857143 61.4005102041 131.142857143 c 0,12,13
 64.75 131.142857143 64.75 131.142857143 88.375 106.071428571 c 128,-1,14
 112 81 112 81 144.5 54.5 c 128,-1,15
 177 28 177 28 216 20 c 0,16,17
 222.782608696 18.6086956522 222.782608696 18.6086956522 229.262759924 18.6086956522 c 0,18,19
 260.043478261 18.6086956522 260.043478261 18.6086956522 284 50 c 1,20,21
 298.0625 72.5 298.0625 72.5 298.0625 102.6875 c 128,-1,22
 298.0625 132.875 298.0625 132.875 285.03125 159.4375 c 128,-1,23
 272 186 272 186 243.5 218 c 128,-1,24
 215 250 215 250 184 277.5 c 0,25,26
 111.524137931 341.793103448 111.524137931 341.793103448 76 401 c 0,27,28
 59.3846153846 428.692307692 59.3846153846 428.692307692 59.3846153846 460.218934911 c 0,29,30
 59.3846153846 498.153846154 59.3846153846 498.153846154 89 532 c 1,31,32
 116.544303797 557.924050633 116.544303797 557.924050633 151.636116007 557.924050633 c 0,33,34
 201.655063291 557.924050633 201.655063291 557.924050633 249.327531646 523.462025316 c 128,-1,35
 297 489 297 489 305 459 c 0,36,37
 307.648648649 450.675675676 307.648648649 450.675675676 307.648648649 440.810810811 c 128,-1,38
 307.648648649 430.945945946 307.648648649 430.945945946 300.666916917 421.232232232 c 128,-1,39
 293.685185185 411.518518519 293.685185185 411.518518519 283.342592593 411.518518519 c 128,-1,40
 273 411.518518519 273 411.518518519 260.5 416.259259259 c 128,-1,41
 248 421 248 421 235.5 441.5 c 128,-1,42
 223 462 223 462 215.5 481.5 c 128,-1,43
 208 501 208 501 193.034883721 509.825581395 c 128,-1,44
 178.069767442 518.651162791 178.069767442 518.651162791 165.779069767 518.651162791 c 128,-1,45
 153.488372093 518.651162791 153.488372093 518.651162791 140 514 c 0,46,47
 101.04299137 501.372555823 101.04299137 501.372555823 101.04299137 469.092661578 c 0,48,49
 101.04299137 422.276549529 101.04299137 422.276549529 182.986033465 334.123035049 c 0,50,51
 206.46872367 308.860589109 206.46872367 308.860589109 256.780852793 259.708899202 c 128,-1,52
 307.092981916 210.557209295 307.092981916 210.557209295 317.046490958 191.778604648 c 0,53,54
 341.117647059 146.365201001 341.117647059 146.365201001 341.117647059 81.9792387543 c 0,55,56
 341.117647059 41.2476060192 341.117647059 41.2476060192 319.058823529 16.6238030096 c 128,-1,57
 297 -8 297 -8 255 -11 c 1,0,1
EndSplineSet
EndChar

StartChar: t
Encoding: 116 116 45
Width: 473
Flags: HMW
HStem: 0 21G<164 165>
VStem: 157 36
LayerCount: 2
Fore
SplineSet
216.714285714 76.7653061224 m 0,0,1
 216.714285714 -0.867469879518 216.714285714 -0.867469879518 174.866163449 -0.867469879518 c 0,2,3
 163.86746988 -0.867469879518 163.86746988 -0.867469879518 160.43373494 2.56626506024 c 128,-1,4
 157 6 157 6 157 8 c 0,5,6
 162 60 162 60 162 207.5 c 128,-1,7
 162 355 162 355 141 378 c 1,8,9
 108.765491989 375.297705915 108.765491989 375.297705915 68.279642968 375.297705915 c 128,-1,10
 27.7937939472 375.297705915 27.7937939472 375.297705915 14.0190473328 389.948429752 c 0,11,12
 11.2858808607 392.855406432 11.2858808607 392.855406432 11.2858808607 395.78193972 c 0,13,14
 11.2858808607 404.89896954 11.2858808607 404.89896954 43.5395783286 416.215552826 c 128,-1,15
 75.7932757966 427.532136111 75.7932757966 427.532136111 150 433 c 1,16,17
 151 458 151 458 151 540 c 128,-1,18
 151 622 151 622 150.5 636 c 128,-1,19
 150 650 150 650 146.5 671 c 0,20,21
 137.869565217 722.782608696 137.869565217 722.782608696 140.434782609 738.891304348 c 0,22,23
 144.009753404 761.340909091 144.009753404 761.340909091 166.469008264 761.340909091 c 0,24,25
 173.909090909 761.340909091 173.909090909 761.340909091 183.454545455 756.170454545 c 128,-1,26
 193 751 193 751 193 740 c 2,27,-1
 193 441 l 2,28,29
 193 432.186249656 193 432.186249656 220.302241816 432.186249656 c 128,-1,30
 247.604483632 432.186249656 247.604483632 432.186249656 309.431984481 439.4435568 c 128,-1,31
 371.259485329 446.700863944 371.259485329 446.700863944 417.535673583 446.700863944 c 128,-1,32
 463.811861838 446.700863944 463.811861838 446.700863944 463.811861838 424.491422671 c 0,33,34
 463.811861838 412.432539176 463.811861838 412.432539176 453.905930919 399.216269588 c 128,-1,35
 444 386 444 386 433 386 c 0,36,37
 395.75 387 395.75 387 330 387 c 128,-1,38
 264.25 387 264.25 387 205 378 c 0,39,40
 185.487804878 375.073170732 185.487804878 375.073170732 185.487804878 333.983536585 c 128,-1,41
 185.487804878 292.893902439 185.487804878 292.893902439 195.743902439 234.94695122 c 0,42,43
 216.714285714 116.464285714 216.714285714 116.464285714 216.714285714 76.7653061224 c 0,0,1
EndSplineSet
EndChar

StartChar: u
Encoding: 117 117 46
Width: 663
Flags: HMW
VStem: 32 47
LayerCount: 2
Fore
SplineSet
63.1666666667 570 m 0,0,1
 79 570 79 570 79 544 c 2,2,-1
 79 213 l 2,3,4
 79 192 79 192 90 166.5 c 128,-1,5
 101 141 101 141 117.703125 134.0546875 c 128,-1,6
 134.40625 127.109375 134.40625 127.109375 150.058837891 127.109375 c 0,7,8
 182.109375 127.109375 182.109375 127.109375 211 156 c 0,9,10
 254 199 254 199 278.5 263 c 128,-1,11
 303 327 303 327 329.5 401.5 c 128,-1,12
 356 476 356 476 370 497 c 0,13,14
 371 497 371 497 372.5 495 c 128,-1,15
 374 493 374 493 385 479.5 c 128,-1,16
 396 466 396 466 401 457 c 1,17,18
 401 325.846153846 401 325.846153846 410.5 275.423076923 c 128,-1,19
 420 225 420 225 430 183.5 c 0,20,21
 447.012278308 112.89904502 447.012278308 112.89904502 497 72 c 0,22,23
 515.857142857 56.5714285714 515.857142857 56.5714285714 543.163265306 56.5714285714 c 0,24,25
 580.514285714 56.5714285714 580.514285714 56.5714285714 626 85 c 0,26,27
 664.896551724 109.310344828 664.896551724 109.310344828 652.5 146.5 c 0,28,29
 651.6 149.2 651.6 149.2 651.6 157 c 128,-1,30
 651.6 164.8 651.6 164.8 666 184 c 1,31,32
 675.366986773 187.154189424 675.366986773 187.154189424 683.124074092 187.154189424 c 0,33,34
 706.95928264 187.154189424 706.95928264 187.154189424 715.594641086 157.373940529 c 0,35,36
 719.327308056 144.501313167 719.327308056 144.501313167 719.327308056 131.154700536 c 0,37,38
 719.327308056 98.7134525217 719.327308056 98.7134525217 697.274076454 63.4718188812 c 0,39,40
 656.564215509 -1.58359027423 656.564215509 -1.58359027423 576.496549428 -1.58359027423 c 0,41,42
 484.02467606 -1.58359027423 484.02467606 -1.58359027423 439 68 c 0,43,44
 410.418032787 112.172131148 410.418032787 112.172131148 398.209016393 146.086065574 c 128,-1,45
 386 180 386 180 378.5 203.5 c 128,-1,46
 371 227 371 227 368.5 236 c 128,-1,47
 366 245 366 245 360.5 267 c 128,-1,48
 355 289 355 289 354 292 c 1,49,-1
 346 292 l 1,50,51
 313.247018364 219.670498887 313.247018364 219.670498887 241.360073309 144.403436682 c 128,-1,52
 169.473128254 69.1363744775 169.473128254 69.1363744775 118.788158246 69.1363744775 c 0,53,54
 57.9225228685 69.1363744775 57.9225228685 69.1363744775 39 173 c 1,55,56
 30.9333333333 321.133333333 30.9333333333 321.133333333 30.9333333333 412.6 c 128,-1,57
 30.9333333333 504.066666667 30.9333333333 504.066666667 32 551 c 1,58,59
 40.6086956522 562.47826087 40.6086956522 562.47826087 50.6376811594 566.239130435 c 128,-1,60
 60.6666666667 570 60.6666666667 570 63.1666666667 570 c 0,0,1
EndSplineSet
EndChar

StartChar: v
Encoding: 118 118 47
Width: 544
Flags: HW
LayerCount: 2
Fore
SplineSet
324 24 m 0,0,1
 280.507462687 80.1194029851 280.507462687 80.1194029851 186.5 233.5 c 0,2,3
 158 280 158 280 114.5 332 c 128,-1,4
 71 384 71 384 35.8579825102 409.206668067 c 128,-1,5
 0.715965020485 434.413336133 0.715965020485 434.413336133 0.715965020485 445.287698688 c 0,6,7
 0.715965020485 451.656493467 0.715965020485 451.656493467 9.40521271101 456.518492366 c 128,-1,8
 18.0944604015 461.380491264 18.0944604015 461.380491264 32.2927834317 461.380491264 c 0,9,10
 60.2142114815 461.380491264 60.2142114815 461.380491264 87 441 c 1,11,12
 168 344 168 344 331 94 c 0,13,14
 338 82 338 82 347 87 c 1,15,16
 360.847107438 110.078512397 360.847107438 110.078512397 381.423553719 216.539256198 c 128,-1,17
 402 323 402 323 415.5 379.5 c 0,18,19
 443.860781351 498.195121951 443.860781351 498.195121951 474.882807852 498.195121951 c 0,20,21
 478.766550523 498.195121951 478.766550523 498.195121951 494.383275261 490.097560976 c 128,-1,22
 510 482 510 482 514.769230769 478.307692308 c 128,-1,23
 519.538461538 474.615384615 519.538461538 474.615384615 519.538461538 468.980769231 c 128,-1,24
 519.538461538 463.346153846 519.538461538 463.346153846 513.769230769 455.173076923 c 128,-1,25
 508 447 508 447 501.5 440 c 0,26,27
 482.609375 419.65625 482.609375 419.65625 481 410 c 0,28,29
 445 221 445 221 441.5 203.5 c 128,-1,30
 438 186 438 186 411.69895288 94.277486911 c 128,-1,31
 385.397905759 2.55497382199 385.397905759 2.55497382199 355.490364847 2.55497382199 c 0,32,33
 340.418848168 2.55497382199 340.418848168 2.55497382199 324 24 c 0,0,1
EndSplineSet
EndChar

StartChar: w
Encoding: 119 119 48
Width: 787
Flags: HW
LayerCount: 2
Fore
SplineSet
186.212239583 33.9895833333 m 0,0,1
 153.278688525 33.9895833333 153.278688525 33.9895833333 153.278688525 66.1494221983 c 0,2,3
 153.278688525 77.868852459 153.278688525 77.868852459 158 94 c 1,4,5
 129.04587156 173.623853211 129.04587156 173.623853211 104.52293578 261.311926606 c 128,-1,6
 80 349 80 349 73.5 369.5 c 128,-1,7
 67 390 67 390 53.5 419 c 128,-1,8
 40 448 40 448 33.125 466.333333333 c 128,-1,9
 26.25 484.666666667 26.25 484.666666667 26.25 496.541666667 c 128,-1,10
 26.25 508.416666667 26.25 508.416666667 26.5 512.5 c 0,11,12
 28 537 28 537 47 551 c 0,13,14
 48.4224137931 552.043103448 48.4224137931 552.043103448 50.0336652794 552.043103448 c 0,15,16
 76.3604617183 552.043103448 76.3604617183 552.043103448 168 234 c 0,17,18
 202 116 202 116 205 111 c 1,19,20
 247.83359306 139.300766843 247.83359306 139.300766843 290.939539353 279.565546905 c 128,-1,21
 334.045485646 419.830326966 334.045485646 419.830326966 343.135611466 440.464096595 c 0,22,23
 360.622978618 480.158850262 360.622978618 480.158850262 378.495260189 480.158850262 c 0,24,25
 406.300866893 480.158850262 406.300866893 480.158850262 441 371 c 0,26,27
 505 167 505 167 630 63 c 1,28,29
 640.128361438 56.9438663569 640.128361438 56.9438663569 648.645622709 56.9438663569 c 0,30,31
 675.878556343 56.9438663569 675.878556343 56.9438663569 686.640812669 118.857225346 c 0,32,33
 693.528321611 158.479847291 693.528321611 158.479847291 693.528321611 217.8744419 c 128,-1,34
 693.528321611 277.269036508 693.528321611 277.269036508 680.486937827 357.985360087 c 128,-1,35
 667.445554043 438.701683666 667.445554043 438.701683666 657.222777021 456.850841833 c 128,-1,36
 647 475 647 475 638.5 482.5 c 128,-1,37
 630 490 630 490 626.5 492.5 c 128,-1,38
 623 495 623 495 622.5 501 c 0,39,40
 621.857142857 508.714285714 621.857142857 508.714285714 646 544 c 1,41,42
 652.881247277 549.124333078 652.881247277 549.124333078 659.66726887 549.124333078 c 0,43,44
 684.022890045 549.124333078 684.022890045 549.124333078 707.151857318 483.115007238 c 0,45,46
 747.471224331 368.044835557 747.471224331 368.044835557 747.471224331 203.952513339 c 128,-1,47
 747.471224331 39.8601911214 747.471224331 39.8601911214 695.570507769 3.5607200424 c 0,48,49
 683.513784226 -4.87177793744 683.513784226 -4.87177793744 667.428366129 -4.87177793744 c 128,-1,50
 651.342948033 -4.87177793744 651.342948033 -4.87177793744 630 8 c 0,51,52
 580 38 580 38 543 85 c 128,-1,53
 506 132 506 132 487 175.5 c 0,54,55
 422.4 323.4 422.4 323.4 386 378 c 0,56,57
 385 380 385 380 382.5 380 c 128,-1,58
 380 380 380 380 378 378 c 0,59,60
 354 335 354 335 319 227.5 c 128,-1,61
 284 120 284 120 252 71 c 0,62,63
 238 51 238 51 217.661458333 42.4947916667 c 128,-1,64
 197.322916667 33.9895833333 197.322916667 33.9895833333 186.212239583 33.9895833333 c 0,0,1
EndSplineSet
EndChar

StartChar: x
Encoding: 120 120 49
Width: 449
Flags: HW
LayerCount: 2
Fore
SplineSet
89 -7 m 1,0,1
 87 0 87 0 86 5 c 128,-1,2
 85 10 85 10 90 19.5 c 128,-1,3
 95 29 95 29 98 34 c 0,4,5
 108.5 51.5 108.5 51.5 113 56 c 1,6,7
 129 86 129 86 155 141 c 128,-1,8
 181 196 181 196 181 197 c 2,9,-1
 181 205 l 1,10,-1
 161 238 l 2,11,12
 85.4444444444 362.666666667 85.4444444444 362.666666667 71.7222222222 385.333333333 c 128,-1,13
 58 408 58 408 42.0283018868 429.398584906 c 0,14,15
 22.0330955362 456.187791524 22.0330955362 456.187791524 22.0330955362 486.122273331 c 0,16,17
 22.0330955362 502.573353996 22.0330955362 502.573353996 34.8734625071 502.573353996 c 0,18,19
 74.3813988468 502.573353996 74.3813988468 502.573353996 119.5 405.5 c 0,20,21
 136 370 136 370 141 362 c 128,-1,22
 146 354 146 354 173 307 c 128,-1,23
 200 260 200 260 205 252 c 0,24,25
 206.305714432 251.314499923 206.305714432 251.314499923 207.805830723 251.314499923 c 0,26,27
 218.429447988 251.314499923 218.429447988 251.314499923 238.80285817 285.694231754 c 0,28,29
 245.512806232 297.017138076 245.512806232 297.017138076 310.421724702 427.562292713 c 128,-1,30
 375.330643172 558.107447351 375.330643172 558.107447351 402.538884976 558.215980661 c 0,31,32
 417.144322747 558.215980661 417.144322747 558.215980661 425 527 c 0,33,34
 426 526 426 526 426 520 c 0,35,36
 426 498.597014925 426 498.597014925 385.5 444.798507463 c 128,-1,37
 345 391 345 391 323 339 c 0,38,39
 318 329 318 329 298 295 c 128,-1,40
 278 261 278 261 271.5 245.5 c 0,41,42
 252.586206897 200.397877984 252.586206897 200.397877984 252.586206897 182.629973475 c 0,43,44
 252.586206897 136.494252874 252.586206897 136.494252874 300 87.5 c 0,45,46
 315 72 315 72 317 72 c 2,47,-1
 326 72 l 2,48,49
 335.365759074 72 335.365759074 72 349.495398807 139.194132369 c 128,-1,50
 363.62503854 206.388264737 363.62503854 206.388264737 379.005802176 207.127822091 c 0,51,52
 382.358370102 207.289024507 382.358370102 207.289024507 386 205 c 1,53,54
 386.255005078 199.134883205 386.255005078 199.134883205 386.255005078 173.491658211 c 128,-1,55
 386.255005078 147.848433217 386.255005078 147.848433217 372.814470374 84.6434723202 c 0,56,57
 354.963400631 0.697692642378 354.963400631 0.697692642378 323.111948997 0.697692642378 c 0,58,59
 296.326988543 0.697692642378 296.326988543 0.697692642378 258.5 64 c 0,60,61
 234 105 234 105 215 119 c 1,62,63
 207.760213114 113.709386506 207.760213114 113.709386506 174.958357193 44.6879732302 c 128,-1,64
 142.156501273 -24.3334400459 142.156501273 -24.3334400459 115.696091491 -24.3334400459 c 0,65,66
 102.05944113 -24.3334400459 102.05944113 -24.3334400459 89 -7 c 1,0,1
EndSplineSet
EndChar

StartChar: y
Encoding: 121 121 50
Width: 583
Flags: HMW
HStem: 508 20G<457 457>
VStem: 440 48<151 355 355 355>
LayerCount: 2
Fore
SplineSet
488 87 m 1,0,-1
 538.670812216 89.6861888979 l 1,1,2
 560.422426993 89.6861888979 560.422426993 89.6861888979 560.422426993 83.5666291933 c 128,-1,3
 560.422426993 77.4470694886 560.422426993 77.4470694886 524.211213496 56.2235347443 c 128,-1,4
 488 35 488 35 480 32 c 1,5,6
 460 -151 460 -151 443 -251.5 c 128,-1,7
 426 -352 426 -352 386 -504 c 0,8,9
 385 -506 385 -506 377 -527 c 128,-1,10
 369 -548 369 -548 365.5 -554.5 c 128,-1,11
 362 -561 362 -561 353 -578.5 c 128,-1,12
 344 -596 344 -596 337 -601.5 c 0,13,14
 310.767676768 -622.111111111 310.767676768 -622.111111111 297.265432099 -622.111111111 c 0,15,16
 284.380952381 -622.111111111 284.380952381 -622.111111111 267 -614 c 0,17,18
 211.892307692 -586.446153846 211.892307692 -586.446153846 211.892307692 -448.594319527 c 0,19,20
 211.892307692 -362.953846154 211.892307692 -362.953846154 235.946153846 -259.476923077 c 128,-1,21
 260 -156 260 -156 315.5 -58 c 128,-1,22
 371 40 371 40 433 55 c 1,23,24
 440 107 440 107 440 151 c 1,25,26
 442 195 442 195 442 274.5 c 128,-1,27
 442 354 442 354 440 355 c 2,28,-1
 433 362 l 1,29,30
 380.647058824 278.235294118 380.647058824 278.235294118 303.5 193.5 c 0,31,32
 188.669776119 67.375 188.669776119 67.375 104.663194444 67.375 c 0,33,34
 66.625 67.375 66.625 67.375 39 95 c 0,35,36
 12 122 12 122 12 200.25 c 0,37,38
 12 269.846153846 12 269.846153846 23 329.923076923 c 128,-1,39
 34 390 34 390 38 409.5 c 128,-1,40
 42 429 42 429 47.5 457 c 128,-1,41
 53 485 53 485 54 488 c 0,42,43
 61.619047619 506.285714286 61.619047619 506.285714286 78.5260770975 506.285714286 c 0,44,45
 83.8095238095 506.285714286 83.8095238095 506.285714286 90 504.5 c 0,46,47
 111.125 498.40625 111.125 498.40625 111.125 481.419921875 c 0,48,49
 111.125 477.5 111.125 477.5 98.0625 424.75 c 0,50,51
 68.75 306.377990431 68.75 306.377990431 68.75 210.203125 c 0,52,53
 68.75 181.375 68.75 181.375 71 151 c 1,54,55
 91.5714285714 127.489795918 91.5714285714 127.489795918 118.860058309 127.489795918 c 0,56,57
 167.489795918 127.489795918 167.489795918 127.489795918 249 209 c 0,58,59
 303.411764706 263.411764706 303.411764706 263.411764706 362.5 347 c 0,60,61
 383 376 383 376 391 390.5 c 128,-1,62
 399 405 399 405 417.5 458.5 c 128,-1,63
 436 512 436 512 457 528 c 1,64,-1
 488 497 l 1,65,-1
 488 87 l 1,0,-1
275 -536 m 1,66,-1
 299 -551 l 2,67,68
 300.802919708 -552.233576642 300.802919708 -552.233576642 302.722894134 -552.233576642 c 0,69,70
 321.03649635 -552.233576642 321.03649635 -552.233576642 351.518248175 -434.116788321 c 128,-1,71
 382 -316 382 -316 403.581632653 -183.632653061 c 128,-1,72
 425.163265306 -51.2653061224 425.163265306 -51.2653061224 425.163265306 -30.4795918367 c 128,-1,73
 425.163265306 -9.69387755102 425.163265306 -9.69387755102 425 -7 c 1,74,75
 336 -84 336 -84 291.5 -205.5 c 0,76,77
 256.451327434 -301.194690265 256.451327434 -301.194690265 256.451327434 -397.199545775 c 0,78,79
 256.451327434 -423.088495575 256.451327434 -423.088495575 262.725663717 -476.544247788 c 128,-1,80
 269 -530 269 -530 275 -536 c 1,66,-1
EndSplineSet
EndChar

StartChar: z
Encoding: 122 122 51
Width: 685
Flags: HW
LayerCount: 2
Fore
SplineSet
663.844444444 337.390617284 m 0,0,1
 663.844444444 295.2 663.844444444 295.2 521.62 295.2 c 0,2,3
 465.7 295.2 465.7 295.2 402.5375 299.85 c 128,-1,4
 339.375 304.5 339.375 304.5 316.0625 304.5 c 128,-1,5
 292.75 304.5 292.75 304.5 284 304 c 1,6,7
 187.873816278 191.080687796 187.873816278 191.080687796 187.873816278 131.703469338 c 0,8,9
 187.873816278 100.388459807 187.873816278 100.388459807 214.141847287 84.2535640102 c 128,-1,10
 240.409878296 68.1186682136 240.409878296 68.1186682136 286.70706462 68.1186682136 c 128,-1,11
 333.004250944 68.1186682136 333.004250944 68.1186682136 405.278246236 88.9782660176 c 0,12,13
 526.600626823 123.994125504 526.600626823 123.994125504 588.464001384 179.331101899 c 0,14,15
 613.92300338 202.104256492 613.92300338 202.104256492 618 222 c 1,16,17
 625.114827309 224.98822747 625.114827309 224.98822747 630.182693297 224.98822747 c 0,18,19
 642.729713801 224.98822747 642.729713801 224.98822747 642.729713801 206.671637439 c 0,20,21
 642.729713801 172.265395435 642.729713801 172.265395435 620 133 c 1,22,23
 591 100 591 100 528 72.5 c 0,24,25
 411.753719008 21.7575757576 411.753719008 21.7575757576 288.824609734 21.7575757576 c 0,26,27
 200.27140975 21.7575757576 200.27140975 21.7575757576 165.635704875 45.3787878788 c 0,28,29
 124.717948718 73.2842975602 124.717948718 73.2842975602 124.717948718 110.010519395 c 0,30,31
 124.717948718 144.418572419 124.717948718 144.418572419 168.5 209.5 c 0,32,33
 187 237 187 237 206 266.5 c 128,-1,34
 225 296 225 296 228 315 c 1,35,36
 222 319 222 319 200.5 318.5 c 128,-1,37
 179 318 179 318 174 326 c 1,38,39
 162 339 162 339 162.5 354 c 128,-1,40
 163 369 163 369 173.416666667 377.083333333 c 128,-1,41
 183.833333333 385.166666667 183.833333333 385.166666667 194.479166667 385.166666667 c 128,-1,42
 205.125 385.166666667 205.125 385.166666667 227.283088235 375.318627451 c 128,-1,43
 249.441176471 365.470588235 249.441176471 365.470588235 257.161764706 365.470588235 c 128,-1,44
 264.882352941 365.470588235 264.882352941 365.470588235 267 366 c 0,45,46
 281 369 281 369 352 451.5 c 128,-1,47
 423 534 423 534 444 564 c 1,48,49
 394.75462963 590.861111111 394.75462963 590.861111111 299.552469136 590.861111111 c 0,50,51
 266.481481481 590.861111111 266.481481481 590.861111111 181.740740741 580.930555556 c 0,52,53
 77.7383901053 568.74278009 77.7383901053 568.74278009 68.1296189937 568.74278009 c 0,54,55
 45.8179101264 568.74278009 45.8179101264 568.74278009 45.8179101264 581.208429696 c 0,56,57
 45.8179101264 598.783265635 45.8179101264 598.783265635 73.7922838942 613.603841801 c 0,58,59
 101.437437439 628.25 101.437437439 628.25 230 628.25 c 0,60,61
 263.107142857 628.25 263.107142857 628.25 343.053571429 623.625 c 128,-1,62
 423 619 423 619 449 618 c 0,63,64
 513.012823346 616.332999392 513.012823346 616.332999392 513.030789786 590.555121181 c 128,-1,65
 513.048756227 564.777242969 513.048756227 564.777242969 439.578844407 494.080301622 c 128,-1,66
 366.108932587 423.383360276 366.108932587 423.383360276 350.02772743 399.827876592 c 128,-1,67
 333.946522273 376.272392909 333.946522273 376.272392909 332 361 c 1,68,69
 355.551948052 346.607142857 355.551948052 346.607142857 404.472402597 346.607142857 c 128,-1,70
 453.392857143 346.607142857 453.392857143 346.607142857 495.696428571 350.303571429 c 0,71,72
 582.254752852 357.866920152 582.254752852 357.866920152 639 368 c 1,73,74
 657 368 657 368 662.5 347 c 0,75,76
 663.844444444 341.866666667 663.844444444 341.866666667 663.844444444 337.390617284 c 0,0,1
EndSplineSet
EndChar

StartChar: zero
Encoding: 48 48 52
Width: 410
Flags: HW
LayerCount: 2
Fore
SplineSet
134 8 m 0,0,1
 86 22 86 22 56 99 c 128,-1,2
 26 176 26 176 20.9895833333 247.302083333 c 128,-1,3
 15.9791666667 318.604166667 15.9791666667 318.604166667 15.9791666667 362.416666667 c 0,4,5
 15.9791666667 511.423611111 15.9791666667 511.423611111 39 559 c 0,6,7
 45 571 45 571 65 567 c 128,-1,8
 85 563 85 563 87.0416666667 550.333333333 c 128,-1,9
 89.0833333333 537.666666667 89.0833333333 537.666666667 89.0833333333 516.458333333 c 128,-1,10
 89.0833333333 495.25 89.0833333333 495.25 83.5416666667 450.125 c 128,-1,11
 78 405 78 405 70.5 351 c 0,12,13
 61.402173913 285.495652174 61.402173913 285.495652174 61.402173913 233.742438563 c 128,-1,14
 61.402173913 182.065217391 61.402173913 182.065217391 82.2010869565 138.532608696 c 128,-1,15
 103 95 103 95 150 71 c 0,16,17
 169.53526078 61.2323696098 169.53526078 61.2323696098 188.119058448 61.2323696098 c 0,18,19
 236.809228454 61.2323696098 236.809228454 61.2323696098 278.968008702 128.282999563 c 0,20,21
 345.269472036 233.730900504 345.269472036 233.730900504 345.269472036 394.702262589 c 0,22,23
 345.269472036 515.808029585 345.269472036 515.808029585 292.845383897 576.919680391 c 0,24,25
 256.423081271 619.377777778 256.423081271 619.377777778 204.668148148 619.377777778 c 0,26,27
 189.266666667 619.377777778 189.266666667 619.377777778 171.133333333 610.688888889 c 128,-1,28
 153 602 153 602 126 567 c 1,29,30
 113.515523001 560.7577615 113.515523001 560.7577615 114.246692449 574.016486872 c 0,31,32
 115.645982509 599.390636015 115.645982509 599.390636015 147.344543792 630.950242901 c 128,-1,33
 179.043105075 662.509849787 179.043105075 662.509849787 218.128401859 662.509849787 c 0,34,35
 223.014802083 662.509849787 223.014802083 662.509849787 228 662 c 0,36,37
 325.575550988 652.390286645 325.575550988 652.390286645 365.92745896 528.309515849 c 0,38,39
 387.921854934 460.677482005 387.921854934 460.677482005 387.921854934 390.833765731 c 128,-1,40
 387.921854934 320.990049457 387.921854934 320.990049457 373.923138386 252.594526832 c 0,41,42
 342.588399429 99.4979311531 342.588399429 99.4979311531 262.976085885 35.0310416815 c 0,43,44
 204.458042523 -12.3545456178 204.458042523 -12.3545456178 134 8 c 0,0,1
EndSplineSet
EndChar

StartChar: one
Encoding: 49 49 53
Width: 141
Flags: HMW
VStem: 24 47
LayerCount: 2
Fore
SplineSet
71 559 m 1,0,1
 70.0216381241 497.689322446 70.0216381241 497.689322446 93.7375878826 319.190283676 c 128,-1,2
 117.453537641 140.691244905 117.453537641 140.691244905 117.453537641 73.8679057851 c 128,-1,3
 117.453537641 7.04456666474 117.453537641 7.04456666474 93.6722116337 7.04456666474 c 0,4,5
 81.134089082 7.04456666474 81.134089082 7.04456666474 62 24 c 1,6,7
 45 228 45 228 34.3918918919 383.297297297 c 128,-1,8
 23.7837837838 538.594594595 23.7837837838 538.594594595 23.7837837838 541.03725347 c 0,9,10
 23.7837837838 561.189189189 23.7837837838 561.189189189 38.5 571 c 0,11,12
 43.8382352941 574.558823529 43.8382352941 574.558823529 52.0073529412 574.558823529 c 128,-1,13
 60.1764705882 574.558823529 60.1764705882 574.558823529 71 559 c 1,0,1
EndSplineSet
EndChar

StartChar: two
Encoding: 50 50 54
Width: 678
Flags: HW
LayerCount: 2
Fore
SplineSet
152.43877551 591.714285714 m 1,0,-1
 204.18861454 595.185185185 l 1,1,2
 277.705026455 595.185185185 277.705026455 595.185185185 314 551 c 1,3,4
 315.333333333 535.666666667 315.333333333 535.666666667 315.333333333 512.166666667 c 128,-1,5
 315.333333333 488.666666667 315.333333333 488.666666667 308.666666667 447.833333333 c 128,-1,6
 302 407 302 407 280.5 354 c 128,-1,7
 259 301 259 301 242 265 c 128,-1,8
 225 229 225 229 193 169.5 c 128,-1,9
 161 110 161 110 150 87 c 1,10,-1
 150 71 l 1,11,12
 171.052631579 69.6842105263 171.052631579 69.6842105263 211.315789474 69.6842105263 c 128,-1,13
 251.578947368 69.6842105263 251.578947368 69.6842105263 322.789473684 81.8421052632 c 128,-1,14
 394 94 394 94 450 112.5 c 128,-1,15
 506 131 506 131 557 150.5 c 128,-1,16
 608 170 608 170 612.5 171.5 c 128,-1,17
 617 173 617 173 624.5 176 c 128,-1,18
 632 179 632 179 636 180.5 c 128,-1,19
 640 182 640 182 646 182 c 128,-1,20
 652 182 652 182 653 181 c 0,21,22
 657.567135423 173.17062499 657.567135423 173.17062499 657.567135423 165.225718528 c 0,23,24
 657.567135423 129.050305997 657.567135423 129.050305997 562.879494384 90.4796501493 c 0,25,26
 430.658149836 36.6197807907 430.658149836 36.6197807907 232.096815565 11.0552773516 c 0,27,28
 161.450485318 1.95965780808 161.450485318 1.95965780808 117.822019254 1.95965780808 c 128,-1,29
 74.1935531899 1.95965780808 74.1935531899 1.95965780808 71 15 c 0,30,31
 70 22 70 22 70 40 c 128,-1,32
 70 58 70 58 71.1944062655 62.374896917 c 128,-1,33
 72.3888125311 66.7497938339 72.3888125311 66.7497938339 93.05513737 102.355933722 c 0,34,35
 268.188133286 404.093664074 268.188133286 404.093664074 268.188133286 503.864972009 c 0,36,37
 268.188133286 553.637427216 268.188133286 553.637427216 224.253630703 553.637427216 c 0,38,39
 198.248821716 553.637427216 198.248821716 553.637427216 159.624410858 536.818713608 c 128,-1,40
 121 520 121 520 98.5 469 c 128,-1,41
 76 418 76 418 54 401 c 1,42,43
 24.9259259259 422.805555556 24.9259259259 422.805555556 24.9259259259 456.032407407 c 128,-1,44
 24.9259259259 489.259259259 24.9259259259 489.259259259 36.1008939974 528.595146871 c 128,-1,45
 47.275862069 567.931034483 47.275862069 567.931034483 47.275862069 581.74137931 c 128,-1,46
 47.275862069 595.551724138 47.275862069 595.551724138 47 599 c 1,47,48
 51.8888888889 617.333333333 51.8888888889 617.333333333 84 617.333333333 c 0,49,50
 95.3333333333 617.333333333 95.3333333333 617.333333333 102 614 c 1,51,52
 105.714285714 591.714285714 105.714285714 591.714285714 152.43877551 591.714285714 c 1,0,-1
EndSplineSet
EndChar

StartChar: three
Encoding: 51 51 55
Width: 457
Flags: HW
LayerCount: 2
Fore
SplineSet
141 8 m 0,0,1
 94.1456998184 18.6950033023 94.1456998184 18.6950033023 94.1456998184 70.1384416538 c 0,2,3
 94.1456998184 121.338568037 94.1456998184 121.338568037 126.390114639 150.571846502 c 0,4,5
 138.912132294 161.92449877 138.912132294 161.92449877 148.489425567 161.92449877 c 128,-1,6
 158.06671884 161.92449877 158.06671884 161.92449877 165 158 c 1,7,8
 166.6 154 166.6 154 166.6 144.833333333 c 128,-1,9
 166.6 135.666666667 166.6 135.666666667 155.773684211 117.622807018 c 128,-1,10
 144.947368421 99.5789473684 144.947368421 99.5789473684 144.947368421 88.8684210526 c 128,-1,11
 144.947368421 78.1578947368 144.947368421 78.1578947368 150 71 c 0,12,13
 169.373327759 44.4891304348 169.373327759 44.4891304348 199.556229097 44.4891304348 c 128,-1,14
 229.739130435 44.4891304348 229.739130435 44.4891304348 263.369565217 66.7445652174 c 0,15,16
 338.43129419 116.417768214 338.43129419 116.417768214 371.5 183.5 c 0,17,18
 386.43902439 213.804878049 386.43902439 213.804878049 386.43902439 227.073170732 c 0,19,20
 386.43902439 278.120516499 386.43902439 278.120516499 347 299 c 0,21,22
 315.615384615 315.615384615 315.615384615 315.615384615 279.544378698 315.615384615 c 0,23,24
 237.123076923 315.615384615 237.123076923 315.615384615 212.561538462 303.307692308 c 128,-1,25
 188 291 188 291 168.5 260 c 128,-1,26
 149 229 149 229 137.3 222.322222222 c 128,-1,27
 125.6 215.644444444 125.6 215.644444444 118.942222222 215.644444444 c 0,28,29
 104.2 215.644444444 104.2 215.644444444 98 237 c 0,30,31
 94.3181818182 249.681818182 94.3181818182 249.681818182 94.3181818182 262.113636364 c 128,-1,32
 94.3181818182 274.545454545 94.3181818182 274.545454545 99.6590909091 281.272727273 c 128,-1,33
 105 288 105 288 119 306.5 c 128,-1,34
 133 325 133 325 142 337 c 128,-1,35
 151 349 151 349 166.5 371 c 128,-1,36
 182 393 182 393 192 409.5 c 128,-1,37
 202 426 202 426 214 448 c 0,38,39
 243.25 501.625 243.25 501.625 243.25 541.25 c 0,40,41
 243.25 566.225 243.25 566.225 228 583 c 1,42,43
 216.571428571 585.380952381 216.571428571 585.380952381 205.166666667 585.380952381 c 128,-1,44
 193.761904762 585.380952381 193.761904762 585.380952381 177.380952381 581.19047619 c 128,-1,45
 161 577 161 577 146 565 c 128,-1,46
 131 553 131 553 117.5 532.5 c 0,47,48
 95.1232876712 498.520547945 95.1232876712 498.520547945 84.0616438356 469.760273973 c 128,-1,49
 73 441 73 441 72 438.5 c 128,-1,50
 71 436 71 436 68.5 432 c 128,-1,51
 66 428 66 428 63.5 427 c 128,-1,52
 61 426 61 426 56.5 424.5 c 0,53,54
 50.9090909091 422.636363636 50.9090909091 422.636363636 32 425 c 1,55,56
 25.4666666667 428.733333333 25.4666666667 428.733333333 25.4666666667 446.444444444 c 128,-1,57
 25.4666666667 464.155555556 25.4666666667 464.155555556 31.7333333333 497.577777778 c 128,-1,58
 38 531 38 531 44.5 559.5 c 128,-1,59
 51 588 51 588 56.5 612 c 128,-1,60
 62 636 62 636 62 638 c 1,61,62
 79.1428571429 656 79.1428571429 656 90.4081632653 656 c 0,63,64
 112.285714286 656 112.285714286 656 112.285714286 616.663265306 c 0,65,66
 112.285714286 608.428571429 112.285714286 608.428571429 111 599 c 1,67,68
 138 621 138 621 168.42 631.92 c 128,-1,69
 198.84 642.84 198.84 642.84 215.26 642.84 c 128,-1,70
 231.68 642.84 231.68 642.84 247.34 636.42 c 128,-1,71
 263 630 263 630 273.5 615 c 128,-1,72
 284 600 284 600 284 578.5 c 128,-1,73
 284 557 284 557 282 537.5 c 128,-1,74
 280 518 280 518 270.5 490.5 c 0,75,76
 253.986577181 442.697986577 253.986577181 442.697986577 239 410 c 2,77,-1
 228 386 l 1,78,-1
 228 371 l 1,79,80
 387.41950005 365.111153032 387.41950005 365.111153032 423.476250104 274.651389932 c 0,81,82
 432.885437466 251.04546709 432.885437466 251.04546709 432.885437466 225.977120094 c 0,83,84
 432.885437466 177.185456576 432.885437466 177.185456576 397.240983013 122.853749152 c 0,85,86
 344.595913614 42.6085454648 344.595913614 42.6085454648 255.7957608 14.0504368202 c 0,87,88
 221.301911562 2.95722286872 221.301911562 2.95722286872 192.637281469 2.95722286872 c 128,-1,89
 163.972651376 2.95722286872 163.972651376 2.95722286872 141 8 c 0,0,1
EndSplineSet
EndChar

StartChar: four
Encoding: 52 52 56
Width: 630
Flags: HW
LayerCount: 2
Fore
SplineSet
568.8 464.86 m 2,0,-1
 567.2 354.3 l 1,1,2
 567.2 207.236363636 567.2 207.236363636 583 111 c 1,3,4
 600.125 98.7678571429 600.125 98.7678571429 600.125 76.3839285714 c 0,5,6
 600.125 28.9431818182 600.125 28.9431818182 570.5 6.5 c 0,7,8
 559.351351351 -1.94594594595 559.351351351 -1.94594594595 550.594594595 -1.94594594595 c 128,-1,9
 541.837837838 -1.94594594595 541.837837838 -1.94594594595 536 0 c 1,10,11
 536 2 536 2 532 16 c 128,-1,12
 528 30 528 30 525.5 42.5 c 128,-1,13
 523 55 523 55 521.055555556 137.833333333 c 128,-1,14
 519.111111111 220.666666667 519.111111111 220.666666667 519.111111111 252.944444444 c 128,-1,15
 519.111111111 285.222222222 519.111111111 285.222222222 520 299 c 1,16,17
 517.857142857 301.142857143 517.857142857 301.142857143 505.428571429 284.571428571 c 128,-1,18
 493 268 493 268 485 258 c 0,19,20
 467 235.5 467 235.5 457 228 c 1,21,22
 438 217 438 217 410 213 c 1,23,-1
 272 210 l 1,24,25
 173.5 210 173.5 210 136.75 217 c 0,26,27
 65.6363636364 230.545454545 65.6363636364 230.545454545 32 244 c 0,28,29
 8.10344827586 253.293103448 8.10344827586 253.293103448 8.10344827586 463.009512485 c 0,30,31
 8.10344827586 533.75862069 8.10344827586 533.75862069 13.8284273318 548.754079288 c 128,-1,32
 19.5534063878 563.749537886 19.5534063878 563.749537886 41.2767031939 568.995738042 c 128,-1,33
 63 574.241938198 63 574.241938198 63 559 c 2,34,-1
 63 339 l 2,35,36
 63 305 63 305 120 284 c 0,37,38
 184.678571429 260.171052632 184.678571429 260.171052632 257.378759398 260.171052632 c 128,-1,39
 330.078947368 260.171052632 330.078947368 260.171052632 394.539473684 275.585526316 c 128,-1,40
 459 291 459 291 480 323 c 0,41,42
 489.421844424 336.260373634 489.421844424 336.260373634 499.216122031 454.674111336 c 0,43,44
 510.117685913 586.475044265 510.117685913 586.475044265 537.927957864 586.475044265 c 0,45,46
 547.038337581 586.475044265 547.038337581 586.475044265 559 575 c 0,47,48
 567 567 567 567 567 559 c 0,49,50
 568.8 508.6 568.8 508.6 568.8 464.86 c 2,0,-1
EndSplineSet
EndChar

StartChar: five
Encoding: 53 53 57
Width: 480
Flags: HW
LayerCount: 2
Fore
SplineSet
108.904761905 407.619047619 m 1,0,-1
 224.257369615 418.19047619 l 1,1,2
 257.238095238 418.19047619 257.238095238 418.19047619 307 401 c 1,3,4
 420.369516709 355.973808966 420.369516709 355.973808966 443.153099774 253.050300895 c 0,5,6
 448.429030435 229.216591751 448.429030435 229.216591751 448.429030435 205.989479691 c 0,7,8
 448.429030435 141.922131999 448.429030435 141.922131999 408.288589479 82.469908349 c 0,9,10
 345.304286714 -10.8164822653 345.304286714 -10.8164822653 238.587466125 -10.8164822653 c 0,11,12
 187.2095436 -10.8164822653 187.2095436 -10.8164822653 134 15 c 1,13,14
 121.340659341 30.8241758242 121.340659341 30.8241758242 121.340659341 44.2417582418 c 128,-1,15
 121.340659341 57.6593406593 121.340659341 57.6593406593 137.17032967 75.3296703297 c 128,-1,16
 153 93 153 93 187.337837838 105.932432432 c 128,-1,17
 221.675675676 118.864864865 221.675675676 118.864864865 234.459459459 118.864864865 c 128,-1,18
 247.243243243 118.864864865 247.243243243 118.864864865 252 118 c 1,19,20
 260.57 99.146 260.57 99.146 218.5 71.5 c 0,21,22
 201 60 201 60 197 55 c 1,23,24
 223.788131094 40.9766830513 223.788131094 40.9766830513 256.66227865 40.9766830513 c 128,-1,25
 289.536426205 40.9766830513 289.536426205 40.9766830513 328.894947865 69.2087342442 c 0,26,27
 388.06812088 111.653927288 388.06812088 111.653927288 401.042446307 180.975669887 c 0,28,29
 403.906014828 196.275699246 403.906014828 196.275699246 403.906014828 210.548281867 c 0,30,31
 403.906014828 278.402077724 403.906014828 278.402077724 339.184191465 323.033720606 c 0,32,33
 312.183003779 341.653519981 312.183003779 341.653519981 272.879173122 355.717170949 c 128,-1,34
 233.575342466 369.780821918 233.575342466 369.780821918 205.363013699 369.780821918 c 128,-1,35
 177.150684932 369.780821918 177.150684932 369.780821918 159 365.5 c 0,36,37
 106 353 106 353 62 299 c 1,38,39
 55.8475147846 297.430488465 55.8475147846 297.430488465 50.6854876069 297.430488465 c 0,40,41
 23.7694940756 297.430488465 23.7694940756 297.430488465 23.7694940756 340.995527794 c 0,42,43
 23.7694940756 406.818878484 23.7694940756 406.818878484 75.5293373253 516.141981272 c 0,44,45
 109.054125309 586.950422963 109.054125309 586.950422963 134 606 c 0,46,47
 172.656642417 636.28103656 172.656642417 636.28103656 284.721811467 648.230503833 c 0,48,49
 321.662992503 652.16952822 321.662992503 652.16952822 350.623678297 652.16952822 c 0,50,51
 418.788526877 652.16952822 418.788526877 652.16952822 442.742093494 630.347659709 c 0,52,53
 451.639473768 622.242083386 451.639473768 622.242083386 451.639473768 613.940379916 c 128,-1,54
 451.639473768 605.638676446 451.639473768 605.638676446 449 599 c 0,55,56
 439.545454545 575.888888889 439.545454545 575.888888889 407.522727273 575.888888889 c 128,-1,57
 375.5 575.888888889 375.5 575.888888889 337.25 583.444444444 c 0,58,59
 281.9140625 594.375 281.9140625 594.375 245.45703125 594.375 c 128,-1,60
 209 594.375 209 594.375 171.5 574.6875 c 128,-1,61
 134 555 134 555 111 504 c 1,62,63
 86 453.166666667 86 453.166666667 86 421.777777778 c 0,64,65
 86 415.5 86 415.5 87 410 c 1,66,67
 95.5714285714 407.619047619 95.5714285714 407.619047619 108.904761905 407.619047619 c 1,0,-1
EndSplineSet
EndChar

StartChar: six
Encoding: 54 54 58
Width: 520
Flags: HW
LayerCount: 2
Fore
SplineSet
71 315 m 2,0,-1
 69.2631578947 228.087257618 l 1,1,2
 69.2631578947 160.894736842 69.2631578947 160.894736842 98 106.5 c 0,3,4
 125.487236404 54.4705882353 125.487236404 54.4705882353 204.538062284 54.4705882353 c 0,5,6
 241.030588235 54.4705882353 241.030588235 54.4705882353 273.515294118 68.2352941176 c 128,-1,7
 306 82 306 82 316 104.5 c 128,-1,8
 326 127 326 127 331.5 177 c 128,-1,9
 337 227 337 227 340.5 266 c 128,-1,10
 344 305 344 305 366.5 340.5 c 128,-1,11
 389 376 389 376 433 386 c 0,12,13
 440.014925373 387.492537313 440.014925373 387.492537313 446.517487191 387.492537313 c 0,14,15
 483.582089552 387.492537313 483.582089552 387.492537313 504 339 c 1,16,17
 504.444444444 331.777777778 504.444444444 331.777777778 504.444444444 324.469135802 c 0,18,19
 504.444444444 266 504.444444444 266 474.222222222 198 c 128,-1,20
 444 130 444 130 388.5 78 c 128,-1,21
 333 26 333 26 262 2 c 0,22,23
 230.444444444 -8.66666666667 230.444444444 -8.66666666667 194.5 -8.66666666667 c 128,-1,24
 158.555555556 -8.66666666667 158.555555556 -8.66666666667 118 8 c 0,25,26
 49 36 49 36 27.5 172.5 c 0,27,28
 18.255 231.195 18.255 231.195 18.255 296.3275 c 128,-1,29
 18.255 361.46 18.255 361.46 34.5 431 c 0,30,31
 61.0419847328 544.618320611 61.0419847328 544.618320611 110.567828215 544.618320611 c 0,32,33
 114.221374046 544.618320611 114.221374046 544.618320611 118 544 c 1,34,35
 119.462686567 536.47761194 119.462686567 536.47761194 119.462686567 526.903096458 c 0,36,37
 119.462686567 490.656716418 119.462686567 490.656716418 95.7313432836 416.328358209 c 128,-1,38
 72 342 72 342 71 315 c 2,0,-1
378 173 m 1,39,40
 378 169 378 169 394 166 c 1,41,-1
 401 166 l 1,42,43
 431.813186813 199.380952381 431.813186813 199.380952381 450.165521978 234.726190476 c 128,-1,44
 468.517857143 270.071428571 468.517857143 270.071428571 468.517857143 293.858552632 c 128,-1,45
 468.517857143 317.645676692 468.517857143 317.645676692 449 331 c 1,46,47
 412 309 412 309 387 260 c 0,48,49
 371.756097561 230.12195122 371.756097561 230.12195122 371.756097561 208.975609756 c 128,-1,50
 371.756097561 187.829268293 371.756097561 187.829268293 378 173 c 1,39,40
EndSplineSet
EndChar

StartChar: seven
Encoding: 55 55 59
Width: 630
Flags: HMW
VStem: 314 47
LayerCount: 2
Fore
SplineSet
252.379612633 7.42462417066 m 0,0,1
 239.100312241 -2.66664123112 239.100312241 -2.66664123112 229.550156121 -2.66664123112 c 128,-1,2
 220 -2.66664123112 220 -2.66664123112 220 8 c 2,3,-1
 220 94 l 1,4,5
 245 111 245 111 256.5 158.5 c 128,-1,6
 268 206 268 206 273 263.5 c 128,-1,7
 278 321 278 321 284 339 c 1,8,-1
 275 339 l 1,9,10
 176 307 176 307 121.046884052 281.912689681 c 128,-1,11
 66.093768104 256.825379361 66.093768104 256.825379361 62.0328423225 256.825379361 c 0,12,13
 51.8055649708 256.825379361 51.8055649708 256.825379361 48.0743097613 272.265900174 c 128,-1,14
 44.3430545519 287.706420987 44.3430545519 287.706420987 44.3430545519 301.791394367 c 128,-1,15
 44.3430545519 315.876367747 44.3430545519 315.876367747 53.1566387748 325.467293296 c 128,-1,16
 61.9702229977 335.058218845 61.9702229977 335.058218845 69.851740453 335.058218845 c 128,-1,17
 77.7332579084 335.058218845 77.7332579084 335.058218845 86 331 c 1,18,19
 214.973215749 371.264808819 214.973215749 371.264808819 232.252821173 378.820109846 c 0,20,21
 287.639693638 403.037358106 287.639693638 403.037358106 304.056403602 447.519083749 c 0,22,23
 316.229971717 480.50384855 316.229971717 480.50384855 316.229971717 532.513183072 c 128,-1,24
 316.229971717 584.522517593 316.229971717 584.522517593 314 623 c 1,25,26
 235.948305572 601.860999426 235.948305572 601.860999426 133.5 535 c 0,27,28
 57.3807800965 485.322193326 57.3807800965 485.322193326 43.909903543 485.322193326 c 128,-1,29
 30.2749387652 485.322193326 30.2749387652 485.322193326 20.3558245866 503.31976132 c 128,-1,30
 10.4367104079 521.317329315 10.4367104079 521.317329315 10.4367104079 531.192635581 c 128,-1,31
 10.4367104079 541.067941848 10.4367104079 541.067941848 16.1016298325 546.990278186 c 1,32,-1
 24 551 l 1,33,34
 233 660 233 660 331 693 c 0,35,36
 335.586206897 694.689655172 335.586206897 694.689655172 339.706302021 694.689655172 c 0,37,38
 352.655172414 694.689655172 352.655172414 694.689655172 361 678 c 1,39,40
 361.642857143 668.571428571 361.642857143 668.571428571 361.642857143 642.017857143 c 128,-1,41
 361.642857143 615.464285714 361.642857143 615.464285714 353.288095238 549.76547619 c 128,-1,42
 344.933333333 484.066666667 344.933333333 484.066666667 344.933333333 456.766666667 c 128,-1,43
 344.933333333 429.466666667 344.933333333 429.466666667 346 418 c 1,44,45
 368 424 368 424 423.5 438.5 c 0,46,47
 529.264150943 466.132075472 529.264150943 466.132075472 591 497 c 0,48,49
 594 498 594 498 604 476.75 c 128,-1,50
 614 455.5 614 455.5 614 441.166666667 c 0,51,52
 614 414.610169492 614 414.610169492 589.21172077 414.610169492 c 0,53,54
 579.559322034 414.610169492 579.559322034 414.610169492 566 418 c 1,55,-1
 559 418 l 1,56,57
 553 417 553 417 370 371 c 1,58,59
 337 361 337 361 333 357 c 128,-1,60
 329 353 329 353 324 328.5 c 128,-1,61
 319 304 319 304 299 197 c 128,-1,62
 279 90 279 90 275 71 c 1,63,64
 277.463118511 61.8043575596 277.463118511 61.8043575596 277.463118511 53.3775772218 c 0,65,66
 277.463118511 26.4861942503 277.463118511 26.4861942503 252.379612633 7.42462417066 c 0,0,1
EndSplineSet
EndChar

StartChar: eight
Encoding: 56 56 60
Width: 465
Flags: HW
LayerCount: 2
Fore
SplineSet
71 15 m 0,0,1
 23.880888706 48.6565080671 23.880888706 48.6565080671 23.880888706 147.968772258 c 0,2,3
 23.880888706 180.786606865 23.880888706 180.786606865 29.0261942298 220.773908709 c 0,4,5
 43.4874099552 333.160820539 43.4874099552 333.160820539 78.3971515677 396.574911111 c 0,6,7
 90.547887842 418.646913223 90.547887842 418.646913223 99.15630975 418.646913223 c 0,8,9
 100.630066115 418.646913223 100.630066115 418.646913223 102 418 c 0,10,11
 112.227272727 413.227272727 112.227272727 413.227272727 112.227272727 403.590909091 c 128,-1,12
 112.227272727 393.954545455 112.227272727 393.954545455 110 386 c 0,13,14
 66.68 261.36 66.68 261.36 66.68 162.1344 c 0,15,16
 66.68 130.8 66.68 130.8 71 102 c 1,17,18
 101.460089669 58.2482348397 101.460089669 58.2482348397 141.30829388 58.2482348397 c 0,19,20
 164.207804991 58.2482348397 164.207804991 58.2482348397 190.207684432 72.6969919891 c 0,21,22
 250.387115822 106.140146658 250.387115822 106.140146658 287.093925246 190.034058997 c 0,23,24
 312.599605827 248.327638973 312.599605827 248.327638973 312.599605827 293.843005116 c 0,25,26
 312.599605827 364.010410763 312.599605827 364.010410763 275 410 c 1,27,28
 259 423.473684211 259 423.473684211 250.973684211 423.473684211 c 0,29,30
 236.909774436 423.473684211 236.909774436 423.473684211 211.318523582 416.009569378 c 128,-1,31
 185.727272727 408.545454545 185.727272727 408.545454545 177.545454545 408.545454545 c 128,-1,32
 169.363636364 408.545454545 169.363636364 408.545454545 165.181818182 409.772727273 c 128,-1,33
 161 411 161 411 157 420 c 128,-1,34
 153 429 153 429 149 441.5 c 128,-1,35
 145 454 145 454 141.5 464.5 c 128,-1,36
 138 475 138 475 135.5 486 c 2,37,-1
 133 497 l 1,38,39
 128.275 523.775 128.275 523.775 128.275 554.9625 c 128,-1,40
 128.275 586.15 128.275 586.15 136.1375 624.075 c 128,-1,41
 144 662 144 662 156 697 c 128,-1,42
 168 732 168 732 190.222222222 750.666666667 c 128,-1,43
 212.444444444 769.333333333 212.444444444 769.333333333 236.12345679 769.333333333 c 0,44,45
 242.888888889 769.333333333 242.888888889 769.333333333 250.444444444 767.666666667 c 128,-1,46
 258 766 258 766 245.5 742.5 c 128,-1,47
 233 719 233 719 213 684 c 128,-1,48
 193 649 193 649 176.242857143 613.021428571 c 128,-1,49
 159.485714286 577.042857143 159.485714286 577.042857143 159.485714286 544.15 c 128,-1,50
 159.485714286 511.257142857 159.485714286 511.257142857 188 497 c 1,51,52
 237.583333333 489.916666667 237.583333333 489.916666667 253.208333333 489.916666667 c 128,-1,53
 268.833333333 489.916666667 268.833333333 489.916666667 289.916666667 500.458333333 c 128,-1,54
 311 511 311 511 323 523.5 c 128,-1,55
 335 536 335 536 355.5 559 c 128,-1,56
 376 582 376 582 385.5 590 c 128,-1,57
 395 598 395 598 400.5 603 c 128,-1,58
 406 608 406 608 410.5 614.5 c 0,59,60
 418.774193548 626.451612903 418.774193548 626.451612903 407 650 c 0,61,62
 401.900549996 659.47040715 401.900549996 659.47040715 340.287422333 672.84354572 c 128,-1,63
 278.67429467 686.21668429 278.67429467 686.21668429 278.67429467 693.219905179 c 0,64,65
 278.67429467 701.804982147 278.67429467 701.804982147 325.275246425 708.328792332 c 128,-1,66
 371.87619818 714.852602517 371.87619818 714.852602517 387.916072337 714.852602517 c 0,67,68
 454.979636671 714.852602517 454.979636671 714.852602517 454.979636671 664.985674902 c 0,69,70
 454.979636671 604.436557879 454.979636671 604.436557879 373.88352839 511.185842874 c 0,71,72
 337.216061597 469.022691419 337.216061597 469.022691419 307 449 c 1,73,74
 332 391 332 391 339.5 371 c 0,75,76
 355.125 329.333333333 355.125 329.333333333 355.125 258.859375 c 0,77,78
 355.125 240.625 355.125 240.625 353.5625 211.3125 c 128,-1,79
 352 182 352 182 322.5 134 c 128,-1,80
 293 86 293 86 250 50.5 c 128,-1,81
 207 15 207 15 159 0.5 c 0,82,83
 143 -4.33333333333 143 -4.33333333333 120.333333333 -4.33333333333 c 128,-1,84
 97.6666666667 -4.33333333333 97.6666666667 -4.33333333333 71 15 c 0,0,1
EndSplineSet
EndChar

StartChar: nine
Encoding: 57 57 61
Width: 394
Flags: HW
LayerCount: 2
Fore
SplineSet
244 8 m 0,0,1
 242.863636364 9.59090909091 242.863636364 9.59090909091 242.863636364 22.6363636364 c 128,-1,2
 242.863636364 35.6818181818 242.863636364 35.6818181818 257.931818182 116.340909091 c 0,3,4
 307.418604651 381.240766074 307.418604651 381.240766074 307.418604651 423.206598161 c 0,5,6
 307.418604651 428.813953488 307.418604651 428.813953488 307 433 c 1,7,8
 281 414 281 414 238.5 358.5 c 128,-1,9
 196 303 196 303 173 284 c 0,10,11
 128.829427307 246.482735328 128.829427307 246.482735328 97.5399963795 246.482735328 c 128,-1,12
 66.2505654523 246.482735328 66.2505654523 246.482735328 43.3961251102 282.975125398 c 128,-1,13
 20.5416847682 319.467515468 20.5416847682 319.467515468 20.5416847682 389.147493231 c 0,14,15
 20.5416847682 420.419197538 20.5416847682 420.419197538 25.7005127558 457.488082355 c 0,16,17
 44.0858223288 589.59617445 44.0858223288 589.59617445 111.359227192 663.131447088 c 0,18,19
 159.975797652 716.273290745 159.975797652 716.273290745 220.546873624 716.273290745 c 0,20,21
 311.319958717 716.273290745 311.319958717 716.273290745 344.5 636.5 c 0,22,23
 364.581818182 588.218181818 364.581818182 588.218181818 364.581818182 525.331404959 c 0,24,25
 364.581818182 456.483003953 364.581818182 456.483003953 350.790909091 367.741501976 c 128,-1,26
 337 279 337 279 325.362068966 213.362068966 c 128,-1,27
 313.724137931 147.724137931 313.724137931 147.724137931 313.724137931 131.224137931 c 128,-1,28
 313.724137931 114.724137931 313.724137931 114.724137931 314 111 c 1,29,30
 336.258064516 145.129032258 336.258064516 145.129032258 356.314255983 145.129032258 c 0,31,32
 363.290322581 145.129032258 363.290322581 145.129032258 370 141 c 1,33,34
 363 100 363 100 316.5 34.5 c 0,35,36
 287.354066986 -6.55502392344 287.354066986 -6.55502392344 266.261990339 -6.55502392344 c 0,37,38
 253.703349282 -6.55502392344 253.703349282 -6.55502392344 244 8 c 0,0,1
52.4545454545 382.94214876 m 2,39,40
 52.4545454545 355.727272727 52.4545454545 355.727272727 66.7272727273 336.863636364 c 128,-1,41
 81 318 81 318 90.6923076923 316.269230769 c 128,-1,42
 100.384615385 314.538461538 100.384615385 314.538461538 106.903846154 314.538461538 c 0,43,44
 120.369230769 314.538461538 120.369230769 314.538461538 150 331 c 0,45,46
 277.116369892 400.516764785 277.116369892 400.516764785 300.174890856 510.674117768 c 0,47,48
 304.830627383 532.915943804 304.830627383 532.915943804 304.830627383 553.023403342 c 0,49,50
 304.830627383 602.235351798 304.830627383 602.235351798 278.047435044 637.219538751 c 128,-1,51
 251.264242704 672.203725704 251.264242704 672.203725704 218.200435237 672.203725704 c 0,52,53
 205.197918148 672.203725704 205.197918148 672.203725704 191.053269938 667.016576496 c 0,54,55
 128.483853645 642.509317891 128.483853645 642.509317891 86 527 c 0,56,57
 86 526 86 526 77.5 503 c 128,-1,58
 69 480 69 480 67 473.5 c 0,59,60
 53 428 53 428 53 414 c 2,61,-1
 52.4545454545 382.94214876 l 2,39,40
EndSplineSet
EndChar

StartChar: grave
Encoding: 96 96 62
Width: 252
Flags: HW
LayerCount: 2
Fore
SplineSet
49.6111111111 721.708333333 m 0,0,1
 49.6111111111 758.753424658 49.6111111111 758.753424658 71.611559392 758.753424658 c 0,2,3
 76.301369863 758.753424658 76.301369863 758.753424658 81.6506849315 756.876712329 c 128,-1,4
 87 755 87 755 147.5 705 c 128,-1,5
 208 655 208 655 236 638 c 0,6,7
 244.711111111 633.022222222 244.711111111 633.022222222 244.711111111 624.511111111 c 128,-1,8
 244.711111111 616 244.711111111 616 238.855555556 600.5 c 128,-1,9
 233 585 233 585 219.604651163 577.186046512 c 128,-1,10
 206.209302326 569.372093023 206.209302326 569.372093023 197.697674419 569.372093023 c 128,-1,11
 189.186046512 569.372093023 189.186046512 569.372093023 181 575 c 1,12,13
 161 595 161 595 137.5 613.5 c 0,14,15
 86.9293286219 653.310954064 86.9293286219 653.310954064 59 693 c 1,16,17
 49.6111111111 703.833333333 49.6111111111 703.833333333 49.6111111111 721.708333333 c 0,0,1
EndSplineSet
EndChar

StartChar: hyphen
Encoding: 45 45 63
Width: 567
Flags: HW
LayerCount: 2
Fore
SplineSet
464 267 m 1,0,1
 456 267.285714286 456 267.285714286 421.464285714 267.285714286 c 128,-1,2
 386.928571429 267.285714286 386.928571429 267.285714286 277.135338346 258.353383459 c 128,-1,3
 167.342105263 249.421052632 167.342105263 249.421052632 104.035087719 249.421052632 c 128,-1,4
 40.7280701754 249.421052632 40.7280701754 249.421052632 30.078320802 255.230006835 c 128,-1,5
 19.4285714286 261.038961039 19.4285714286 261.038961039 19.4285714286 273.805194805 c 0,6,7
 19.4285714286 315.744360902 19.4285714286 315.744360902 47 323 c 1,8,9
 87 332 87 332 300.5 332 c 128,-1,10
 514 332 514 332 527.0298451 323.146769933 c 128,-1,11
 540.059690201 314.293539866 540.059690201 314.293539866 540.059690201 303.652606821 c 128,-1,12
 540.059690201 293.011673775 540.059690201 293.011673775 521.844333058 277.462687558 c 128,-1,13
 503.628975915 261.913701341 503.628975915 261.913701341 482.99881679 261.913701341 c 0,14,15
 475.39117082 261.913701341 475.39117082 261.913701341 464 267 c 1,0,1
EndSplineSet
EndChar

StartChar: equal
Encoding: 61 61 64
Width: 457
Flags: HW
LayerCount: 2
Fore
SplineSet
2.11299638402 181.342087429 m 0,0,1
 2.11299638402 219.393724733 2.11299638402 219.393724733 113.133108741 219.393724733 c 0,2,3
 200.90548519 219.393724733 200.90548519 219.393724733 294.962731057 196.488029598 c 128,-1,4
 389.019976924 173.582334464 389.019976924 173.582334464 389.019976924 161.096005476 c 0,5,6
 389.019976924 152.142857143 389.019976924 152.142857143 362.224274176 152.142857143 c 0,7,8
 329.350649351 152.142857143 329.350649351 152.142857143 232.800324675 141.930803571 c 128,-1,9
 136.25 131.71875 136.25 131.71875 111.96875 131.71875 c 128,-1,10
 87.6875 131.71875 87.6875 131.71875 73 132.5 c 0,11,12
 26 135 26 135 14.056498192 151.880337549 c 128,-1,13
 2.11299638402 168.760675099 2.11299638402 168.760675099 2.11299638402 181.342087429 c 0,0,1
47 299 m 1,14,15
 14.9737361142 312.549573182 14.9737361142 312.549573182 14.9737361142 338.811021285 c 0,16,17
 14.9737361142 373.224784917 14.9737361142 373.224784917 103.469114088 373.224784917 c 0,18,19
 204.389930096 373.224784917 204.389930096 373.224784917 311.990301849 346.864604882 c 1,20,-1
 315 346 l 1,21,22
 345.846089773 324.109226612 345.846089773 324.109226612 345.846089773 300.91804055 c 0,23,24
 345.846089773 295.93350163 345.846089773 295.93350163 344.421124829 290.888888889 c 0,25,26
 340.074384995 275.500707429 340.074384995 275.500707429 328.449921287 275.500707429 c 0,27,28
 315.249646285 275.500707429 315.249646285 275.500707429 307 292 c 1,29,30
 205.8 300.066666667 205.8 300.066666667 142.666666667 300.066666667 c 128,-1,31
 79.5333333333 300.066666667 79.5333333333 300.066666667 47 299 c 1,14,15
EndSplineSet
EndChar

StartChar: bracketleft
Encoding: 91 91 65
Width: 623
Flags: HMW
VStem: 40 62<-12 -12>
LayerCount: 2
Fore
SplineSet
467.845 -126.1 m 1,0,-1
 427.055555556 -129 l 2,1,2
 419.666666667 -129 419.666666667 -129 404.333333333 -128 c 128,-1,3
 389 -127 389 -127 378 -114 c 1,4,5
 303 -112 303 -112 234 -105 c 128,-1,6
 165 -98 165 -98 146 -97.5 c 128,-1,7
 127 -97 127 -97 113 -96 c 128,-1,8
 99 -95 99 -95 81 -92.5 c 0,9,10
 50.1971830986 -88.2218309859 50.1971830986 -88.2218309859 34 -70 c 0,11,12
 27.2631578947 -62.4210526316 27.2631578947 -62.4210526316 27.2631578947 -48.7894736842 c 128,-1,13
 27.2631578947 -35.1578947368 27.2631578947 -35.1578947368 40 -12 c 1,14,15
 40 6 40 6 37 149.5 c 128,-1,16
 34 293 34 293 34 415.5 c 128,-1,17
 34 538 34 538 51 658 c 128,-1,18
 68 778 68 778 104 800 c 0,19,20
 105.575757576 799.939393939 105.575757576 799.939393939 120.939393939 799.939393939 c 128,-1,21
 136.303030303 799.939393939 136.303030303 799.939393939 212.47354905 811.291730868 c 128,-1,22
 288.644067797 822.644067797 288.644067797 822.644067797 324.093220339 822.644067797 c 128,-1,23
 359.542372881 822.644067797 359.542372881 822.644067797 383.42148469 814.672650188 c 128,-1,24
 407.300596498 806.701232579 407.300596498 806.701232579 407.300596498 793.297195299 c 0,25,26
 407.300596498 787.205987712 407.300596498 787.205987712 401.456314869 780.267011662 c 0,27,28
 382.29045801 757.511191501 382.29045801 757.511191501 337.812797878 757.171653075 c 0,29,30
 322.586887173 757.055419853 322.586887173 757.055419853 309 761 c 1,31,32
 305 761 305 761 268.5 758 c 128,-1,33
 232 755 232 755 195.5 752 c 128,-1,34
 159 749 159 749 144 745.5 c 128,-1,35
 129 742 129 742 119 716.5 c 128,-1,36
 109 691 109 691 103 648 c 0,37,38
 90.4229137199 557.864214993 90.4229137199 557.864214993 89.83645686 484.557107496 c 128,-1,39
 89.25 411.25 89.25 411.25 89.25 382 c 128,-1,40
 89.25 352.75 89.25 352.75 89.625 311.875 c 128,-1,41
 90 271 90 271 92 209 c 128,-1,42
 94 147 94 147 96 109 c 0,43,44
 102 -5 102 -5 102 -12 c 1,45,46
 112.56231003 -31.0121580547 112.56231003 -31.0121580547 143.281155015 -37.0060790274 c 0,47,48
 197.461111111 -47.5777777778 197.461111111 -47.5777777778 223.5 -50 c 2,49,-1
 245 -52 l 2,50,51
 259 -53 259 -53 307 -57 c 128,-1,52
 355 -61 355 -61 371 -62 c 128,-1,53
 387 -63 387 -63 425.5 -65 c 128,-1,54
 464 -67 464 -67 486.5 -67.5 c 128,-1,55
 509 -68 509 -68 542 -68 c 128,-1,56
 575 -68 575 -68 607 -67 c 1,57,-1
 607 -99 l 1,58,-1
 544 -146 l 2,59,60
 542 -147 542 -147 536 -147 c 128,-1,61
 530 -147 530 -147 528 -146.5 c 128,-1,62
 526 -146 526 -146 512 -139 c 0,63,64
 486.2 -126.1 486.2 -126.1 467.845 -126.1 c 1,0,-1
EndSplineSet
EndChar

StartChar: bracketright
Encoding: 93 93 66
Width: 614
Flags: HW
LayerCount: 2
Fore
SplineSet
180 -135 m 0,0,1
 179 -131 179 -131 179 -118.5 c 128,-1,2
 179 -106 179 -106 180 -103 c 1,3,4
 203 -93 203 -93 280.5 -82 c 128,-1,5
 358 -71 358 -71 421.5 -56 c 128,-1,6
 485 -41 485 -41 495 -16 c 1,7,8
 500.538461538 13.5384615385 500.538461538 13.5384615385 500.538461538 31.573964497 c 128,-1,9
 500.538461538 49.5448717949 500.538461538 49.5448717949 494.269230769 89.7724358974 c 128,-1,10
 488 130 488 130 486.5 148.5 c 128,-1,11
 485 167 485 167 482.5 303.5 c 128,-1,12
 480 440 480 440 477.5 567 c 128,-1,13
 475 694 475 694 475 698 c 0,14,15
 469.319806607 786.042997589 469.319806607 786.042997589 443.98549775 798.681447425 c 0,16,17
 436.813887652 802.259126807 436.813887652 802.259126807 423.406943826 800.629563404 c 128,-1,18
 410 799 410 799 262 777 c 0,19,20
 247 775 247 775 166.992753623 751.572463768 c 128,-1,21
 86.9855072464 728.144927536 86.9855072464 728.144927536 43.1361058601 728.144927536 c 0,22,23
 29.8985507246 728.144927536 29.8985507246 728.144927536 19 730 c 1,24,25
 -6 758 -6 758 17.5 777 c 128,-1,26
 41 796 41 796 74 801 c 1,27,28
 179 821 179 821 238 831.5 c 128,-1,29
 297 842 297 842 342.5 852 c 0,30,31
 437.810526316 872.947368421 437.810526316 872.947368421 461.247368421 872.947368421 c 128,-1,32
 484.684210526 872.947368421 484.684210526 872.947368421 491 872 c 1,33,34
 511 830 511 830 532.919753086 456.12345679 c 128,-1,35
 554.839506173 82.2469135802 554.839506173 82.2469135802 554.839506173 2.48765432099 c 128,-1,36
 554.839506173 -77.2716049383 554.839506173 -77.2716049383 550.419753086 -78.1358024691 c 128,-1,37
 546 -79 546 -79 451.5 -99.5 c 0,38,39
 261.822094692 -140.647058824 261.822094692 -140.647058824 202.034602076 -140.647058824 c 0,40,41
 181.882352941 -140.647058824 181.882352941 -140.647058824 180 -135 c 0,0,1
EndSplineSet
EndChar

StartChar: semicolon
Encoding: 59 59 67
Width: 261
Flags: HW
LayerCount: 2
Fore
SplineSet
117 -293 m 2,0,-1
 92 -296 l 1,1,2
 75 -296 75 -296 70 -286 c 0,3,4
 69 -284 69 -284 69 -281.5 c 128,-1,5
 69 -279 69 -279 70 -278 c 0,6,7
 111 -265 111 -265 132.5 -244 c 128,-1,8
 154 -223 154 -223 155.818181818 -205.181818182 c 128,-1,9
 157.636363636 -187.363636364 157.636363636 -187.363636364 157.636363636 -174.204545455 c 128,-1,10
 157.636363636 -161.045454545 157.636363636 -161.045454545 155.318181818 -139.022727273 c 128,-1,11
 153 -117 153 -117 144.5 -89 c 0,12,13
 134.857142857 -57.2352941176 134.857142857 -57.2352941176 134.857142857 -23.7959183673 c 0,14,15
 134.857142857 35.237907204 134.857142857 35.237907204 151.530675641 35.237907204 c 0,16,17
 160.287687122 35.237907204 160.287687122 35.237907204 172.828034154 14.2843837838 c 0,18,19
 212.200394752 -51.5024463434 212.200394752 -51.5024463434 212.200394752 -153.462422197 c 128,-1,20
 212.200394752 -255.42239805 212.200394752 -255.42239805 146.694561527 -284.650462459 c 0,21,22
 133.153483539 -290.692359494 133.153483539 -290.692359494 117 -293 c 2,0,-1
77 305 m 1,23,24
 47.49 328.404482759 47.49 328.404482759 47.49 358.902241379 c 128,-1,25
 47.49 389.4 47.49 389.4 69.295 407.2 c 128,-1,26
 91.1 425 91.1 425 118.06 425 c 0,27,28
 124.8 425 124.8 425 132 424 c 1,29,30
 154.321428571 391.857142857 154.321428571 391.857142857 154.321428571 363.700255102 c 0,31,32
 154.321428571 328.283482143 154.321428571 328.283482143 127 309.5 c 0,33,34
 113.105263158 299.947368421 113.105263158 299.947368421 100.526315789 299.947368421 c 128,-1,35
 87.9473684211 299.947368421 87.9473684211 299.947368421 77 305 c 1,23,24
EndSplineSet
EndChar

StartChar: quotesingle
Encoding: 39 39 68
Width: 173
Flags: HW
LayerCount: 2
Fore
SplineSet
122.301020321 446.872355226 m 0,0,1
 98.7315830072 446.872355226 98.7315830072 446.872355226 91 472 c 1,2,3
 90 480 90 480 74.5 538.5 c 0,4,5
 46.3714285714 644.662672811 46.3714285714 644.662672811 46.3714285714 673.231336406 c 0,6,7
 46.3714285714 718.174734421 46.3714285714 718.174734421 63.6014595933 718.174734421 c 128,-1,8
 80.8314906152 718.174734421 80.8314906152 718.174734421 102.467252157 670.532687855 c 0,9,10
 143.677376946 579.78780326 143.677376946 579.78780326 143.677376946 493.463788323 c 0,11,12
 143.677376946 446.872355226 143.677376946 446.872355226 122.301020321 446.872355226 c 0,0,1
EndSplineSet
EndChar

StartChar: comma
Encoding: 44 44 69
Width: 200
Flags: HW
LayerCount: 2
Fore
SplineSet
144.630084578 -249.236327922 m 0,0,1
 131.505360653 -271.797855739 131.505360653 -271.797855739 126.699108898 -273.720356441 c 128,-1,2
 121.892857143 -275.642857143 121.892857143 -275.642857143 116.803571429 -275.642857143 c 128,-1,3
 111.714285714 -275.642857143 111.714285714 -275.642857143 100.19047619 -269.654761905 c 128,-1,4
 88.6666666667 -263.666666667 88.6666666667 -263.666666667 88.6666666667 -252.833333333 c 128,-1,5
 88.6666666667 -242 88.6666666667 -242 92.3333333333 -222 c 128,-1,6
 96 -202 96 -202 107 -172 c 0,7,8
 141.849557522 -76.9557522124 141.849557522 -76.9557522124 142.824778761 -66.0778761062 c 128,-1,9
 143.8 -55.2 143.8 -55.2 143.8 -43.4 c 0,10,11
 143.8 10 143.8 10 137.9 25 c 128,-1,12
 132 40 132 40 105.5 66 c 0,13,14
 40.0566037736 130.208615166 40.0566037736 130.208615166 40.0566037736 145.728017088 c 0,15,16
 40.0566037736 148.113207547 40.0566037736 148.113207547 41 150 c 0,17,18
 53.2494034608 174.717546269 53.2494034608 174.717546269 69.5069377638 174.717546269 c 128,-1,19
 85.7644720668 174.717546269 85.7644720668 174.717546269 104.689299844 156.356239889 c 0,20,21
 151.490315237 110.948810418 151.490315237 110.948810418 174.251138426 9.7251669316 c 0,22,23
 185.974303143 -42.410972258 185.974303143 -42.410972258 185.974303143 -89.5813719842 c 0,24,25
 185.974303143 -178.165214922 185.974303143 -178.165214922 144.630084578 -249.236327922 c 0,0,1
EndSplineSet
EndChar

StartChar: period
Encoding: 46 46 70
Width: 217
Flags: HMW
HStem: 130 20G
LayerCount: 2
Fore
SplineSet
195.066501994 67.0633032184 m 0,0,1
 195.066501994 39.2133794428 195.066501994 39.2133794428 180.063092589 22.1398855613 c 128,-1,2
 165.059683183 5.06639167991 165.059683183 5.06639167991 150.692365755 5.06639167991 c 0,3,4
 126.638676093 5.06639167991 126.638676093 5.06639167991 103.5 85 c 0,5,6
 98.4583333333 102.416666667 98.4583333333 102.416666667 98.4583333333 120.907407407 c 128,-1,7
 98.4583333333 139.398148148 98.4583333333 139.398148148 108 150 c 1,8,9
 182.932436665 141.40902 182.932436665 141.40902 193.395814567 84.5665525687 c 0,10,11
 195.066501994 75.490516462 195.066501994 75.490516462 195.066501994 67.0633032184 c 0,0,1
EndSplineSet
EndChar

StartChar: slash
Encoding: 47 47 71
Width: 433
Flags: HW
LayerCount: 2
Fore
SplineSet
63 24 m 128,-1,1
 58 15 58 15 51.2333333333 8.23333333333 c 128,-1,2
 44.4666666667 1.46666666667 44.4666666667 1.46666666667 36.2666666667 1.46666666667 c 128,-1,3
 28.0666666667 1.46666666667 28.0666666667 1.46666666667 15 8 c 1,4,5
 4.45 15.385 4.45 15.385 4.45 28.1175 c 128,-1,6
 4.45 40.85 4.45 40.85 8.725 48.925 c 128,-1,7
 13 57 13 57 22 71 c 128,-1,8
 31 85 31 85 41 104 c 128,-1,9
 51 123 51 123 88.5 199 c 128,-1,10
 126 275 126 275 145 312 c 0,11,12
 197.22513089 413.701570681 197.22513089 413.701570681 268 512 c 1,13,-1
 335.931692516 593.98574506 l 1,14,15
 394.872847426 660.680974096 394.872847426 660.680974096 410.69461154 660.680974096 c 0,16,17
 416.500078988 660.680974096 416.500078988 660.680974096 416.500078988 651.701325405 c 0,18,19
 416.500078988 642.19790771 416.500078988 642.19790771 407.250039494 615.598953855 c 128,-1,20
 398 589 398 589 346 534.5 c 128,-1,21
 294 480 294 480 284 465 c 0,22,23
 225 379 225 379 186.5 306 c 128,-1,24
 148 233 148 233 87 102 c 1,25,26
 83.5 91.5 83.5 91.5 80.25 75.25 c 128,-1,27
 77 59 77 59 72.5 46 c 128,-1,0
 68 33 68 33 63 24 c 128,-1,1
EndSplineSet
EndChar

StartChar: asciitilde
Encoding: 126 126 72
Width: 749
Flags: HW
LayerCount: 2
Fore
SplineSet
488 562 m 128,-1,1
 468 550 468 550 449.386363636 545.227272727 c 128,-1,2
 430.772727273 540.454545455 430.772727273 540.454545455 406.738636364 540.454545455 c 128,-1,3
 382.704545455 540.454545455 382.704545455 540.454545455 356 549 c 1,4,5
 319 557 319 557 294.5 578 c 128,-1,6
 270 599 270 599 260.5 619.5 c 128,-1,7
 251 640 251 640 237 676.5 c 128,-1,8
 223 713 223 713 213 733 c 0,9,10
 212 734 212 734 209 734 c 128,-1,11
 206 734 206 734 205 733 c 0,12,13
 140.973119818 681.940589222 140.973119818 681.940589222 124.514393937 661.516198451 c 128,-1,14
 108.055668056 641.091807681 108.055668056 641.091807681 84 576 c 1,15,16
 60.8730965674 569.411521697 60.8730965674 569.411521697 41.7267011916 569.411521697 c 128,-1,17
 22.5803058159 569.411521697 22.5803058159 569.411521697 22.5803058159 587.474284683 c 0,18,19
 22.5803058159 630.933641529 22.5803058159 630.933641529 129.360524373 737.003025851 c 0,20,21
 172.863050168 779.973625861 172.863050168 779.973625861 185.752953655 786.647527216 c 128,-1,22
 198.642857143 793.321428571 198.642857143 793.321428571 208.660714286 793.321428571 c 128,-1,23
 218.678571429 793.321428571 218.678571429 793.321428571 232.339285714 779.660714286 c 128,-1,24
 246 766 246 766 259 735 c 128,-1,25
 272 704 272 704 287 668 c 0,26,27
 319.692307692 589.538461538 319.692307692 589.538461538 380 582 c 0,28,29
 383.282051282 581.58974359 383.282051282 581.58974359 386.779750164 581.58974359 c 0,30,31
 417.384615385 581.58974359 417.384615385 581.58974359 467.192307692 614.794871795 c 128,-1,32
 517 648 517 648 586 725 c 0,33,34
 595.252173913 735.408695652 595.252173913 735.408695652 610.626086957 769.704347826 c 128,-1,35
 626 804 626 804 632.238636364 809.892045455 c 128,-1,36
 638.477272727 815.784090909 638.477272727 815.784090909 643.363636364 815.784090909 c 0,37,38
 657.757371007 815.784090909 657.757371007 815.784090909 680 757 c 0,39,40
 681.653061224 752.408163265 681.653061224 752.408163265 681.653061224 748.423573511 c 0,41,42
 681.653061224 730.714285714 681.653061224 730.714285714 649 725 c 1,43,44
 636 712 636 712 619 691.5 c 128,-1,45
 602 671 602 671 588.5 655 c 128,-1,46
 575 639 575 639 557 620 c 128,-1,47
 539 601 539 601 523.5 587.5 c 128,-1,0
 508 574 508 574 488 562 c 128,-1,1
EndSplineSet
EndChar

StartChar: exclam
Encoding: 33 33 73
Width: 142
Flags: HMW
VStem: 71 48
LayerCount: 2
Fore
SplineSet
87.6214900571 95.9885647577 m 0,0,1
 118.452043672 95.9885647577 118.452043672 95.9885647577 118.452043672 62.9596025982 c 0,2,3
 118.452043672 41.3708816123 118.452043672 41.3708816123 101.653062552 23.5528827146 c 0,4,5
 68.6673939697 -11.4336799963 68.6673939697 -11.4336799963 41 24 c 0,6,7
 32.4375 33.6328125 32.4375 33.6328125 32.4375 44.81640625 c 0,8,9
 32.4375 59.3333333333 32.4375 59.3333333333 48 87 c 1,10,11
 71.8472126226 95.9885647577 71.8472126226 95.9885647577 87.6214900571 95.9885647577 c 0,0,1
69.4 677.72 m 1,12,-1
 70 733 l 2,13,14
 70 739 70 739 67 751 c 0,15,16
 61.375 773.5 61.375 773.5 61.375 781.1875 c 128,-1,17
 61.375 788.875 61.375 788.875 61.6875 795.4375 c 0,18,19
 62.5903614458 814.397590361 62.5903614458 814.397590361 85 820 c 0,20,21
 89.5 821.285714286 89.5 821.285714286 93.5408163265 821.285714286 c 0,22,23
 108.357142857 821.285714286 108.357142857 821.285714286 117 804 c 1,24,25
 118 772 118 772 118 639 c 128,-1,26
 118 506 118 506 118.5 479.458128834 c 128,-1,27
 119 452.916257668 119 452.916257668 102.559032165 414.336243046 c 128,-1,28
 86.11806433 375.756228424 86.11806433 375.756228424 75.2105036704 375.756228424 c 0,29,30
 69.1218857882 375.756228424 69.1218857882 375.756228424 64 386 c 1,31,32
 63.8461538462 391.384615385 63.8461538462 391.384615385 63.8461538462 397.857988166 c 2,33,-1
 72.0588235294 589.657439446 l 1,34,-1
 69.4 677.72 l 1,12,-1
EndSplineSet
EndChar

StartChar: at
Encoding: 64 64 74
Width: 1130
Flags: HW
LayerCount: 2
Fore
SplineSet
290.12 -137.6 m 0,0,1
 356.4 -137.6 356.4 -137.6 384 -110 c 1,2,3
 397.363636364 -114.454545455 397.363636364 -114.454545455 394.5 -134.5 c 0,4,5
 394 -138 394 -138 394 -141.5 c 128,-1,6
 394 -145 394 -145 393 -149 c 1,7,8
 391.344827586 -148.379310345 391.344827586 -148.379310345 380.724137931 -148.379310345 c 128,-1,9
 370.103448276 -148.379310345 370.103448276 -148.379310345 314.842046719 -157.205784205 c 128,-1,10
 259.580645161 -166.032258065 259.580645161 -166.032258065 242.5 -166.032258065 c 0,11,12
 171.477897252 -166.032258065 171.477897252 -166.032258065 117 -113.5 c 0,13,14
 75 -73 75 -73 59 -20 c 0,15,16
 39.55 44.428125 39.55 44.428125 39.55 103.0390625 c 128,-1,17
 39.55 161.65 39.55 161.65 54 205 c 1,18,19
 114 415 114 415 252.5 608 c 128,-1,20
 391 801 391 801 550 883 c 1,21,22
 655.143872344 933.67589913 655.143872344 933.67589913 747.561783341 933.67589913 c 128,-1,23
 839.979694338 933.67589913 839.979694338 933.67589913 917.984250251 877.360693094 c 0,24,25
 1030.6453827 796.02525298 1030.6453827 796.02525298 1071.92280702 627.793981243 c 0,26,27
 1090.28164218 552.970267378 1090.28164218 552.970267378 1090.28164218 472.663154568 c 128,-1,28
 1090.28164218 392.356041757 1090.28164218 392.356041757 1062.27741664 308.122004648 c 0,29,30
 1009.59144515 149.647631898 1009.59144515 149.647631898 880.34542473 95.1161240837 c 0,31,32
 823.187403785 71 823.187403785 71 756.593701893 71 c 128,-1,33
 690 71 690 71 640 107 c 128,-1,34
 590 143 590 143 574 205 c 1,35,36
 571.283018868 206.358490566 571.283018868 206.358490566 563.811320755 206.358490566 c 128,-1,37
 556.339622642 206.358490566 556.339622642 206.358490566 534.169811321 188.179245283 c 128,-1,38
 512 170 512 170 485 145 c 128,-1,39
 458 120 458 120 434.164285714 111.942857143 c 128,-1,40
 410.328571429 103.885714286 410.328571429 103.885714286 393.007142857 103.885714286 c 128,-1,41
 375.685714286 103.885714286 375.685714286 103.885714286 354 119 c 0,42,43
 301.6649977 153.344845259 301.6649977 153.344845259 301.6649977 260.507703992 c 0,44,45
 301.6649977 287.264346981 301.6649977 287.264346981 304.927620857 318.56054718 c 0,46,47
 319.800829543 461.229465477 319.800829543 461.229465477 381.053028936 576.763960797 c 128,-1,48
 442.305228329 692.298456117 442.305228329 692.298456117 498.755534123 692.298456117 c 0,49,50
 542.016097177 692.298456117 542.016097177 692.298456117 574 623 c 0,51,52
 629.901408451 503.211267606 629.901408451 503.211267606 629.901408451 397.594723269 c 0,53,54
 629.901408451 384.183098592 629.901408451 384.183098592 629 371 c 1,55,56
 603.210526316 361.175438596 603.210526316 361.175438596 603.210526316 303.55401662 c 0,57,58
 603.210526316 255.25 603.210526316 255.25 623.605263158 208.625 c 128,-1,59
 644 162 644 162 696.5 139 c 0,60,61
 733.090909091 122.96969697 733.090909091 122.96969697 761.083333333 122.96969697 c 0,62,63
 849.561015561 122.96969697 849.561015561 122.96969697 905 173 c 0,64,65
 1049.68376068 303.52991453 1049.68376068 303.52991453 1049.68376068 501.773175542 c 0,66,67
 1049.68376068 553.153846154 1049.68376068 553.153846154 1039 607 c 0,68,69
 1016 720 1016 720 948 797 c 128,-1,70
 880 874 880 874 771 883 c 0,71,72
 758.233282161 883.908092901 758.233282161 883.908092901 745.438751088 883.908092901 c 0,73,74
 575.791178477 883.908092901 575.791178477 883.908092901 401.253727651 724.255184826 c 0,75,76
 245.853158762 582.107166608 245.853158762 582.107166608 151.385110253 377.913179713 c 0,77,78
 75.7439829188 214.413842029 75.7439829188 214.413842029 75.7439829188 89.938242398 c 0,79,80
 75.7439829188 -113.474520522 75.7439829188 -113.474520522 251 -134 c 1,81,82
 268.4 -137.6 268.4 -137.6 290.12 -137.6 c 0,0,1
361 189 m 2,83,-1
 377 173 l 1,84,85
 383.694736842 172.242105263 383.694736842 172.242105263 390.221939058 172.242105263 c 0,86,87
 435.368421053 172.242105263 435.368421053 172.242105263 475.184210526 211.121052632 c 128,-1,88
 515 250 515 250 530 299.166666667 c 128,-1,89
 545 348.333333333 545 348.333333333 545 374.833333333 c 128,-1,90
 545 401.333333333 545 401.333333333 542 418 c 1,91,92
 565.877381148 429.938690574 565.877381148 429.938690574 565.877381148 501.245198138 c 0,93,94
 565.877381148 592.883710724 565.877381148 592.883710724 534.01690752 631.368038467 c 0,95,96
 521.506935412 646.478857981 521.506935412 646.478857981 507.159743987 646.478857981 c 0,97,98
 464.776390787 646.478857981 464.776390787 646.478857981 409 520 c 1,99,100
 345 379.555555556 345 379.555555556 345 246.222222222 c 0,101,102
 345 229.555555556 345 229.555555556 346 213 c 0,103,104
 347 211 347 211 353.5 201 c 128,-1,105
 360 191 360 191 361 189 c 2,83,-1
572 229 m 128,-1,107
 572 237 572 237 566.5 237 c 128,-1,108
 561 237 561 237 561 229 c 128,-1,109
 561 221 561 221 566.5 221 c 128,-1,106
 572 221 572 221 572 229 c 128,-1,107
EndSplineSet
EndChar

StartChar: numbersign
Encoding: 35 35 75
Width: 1016
Flags: HW
LayerCount: 2
Fore
SplineSet
1008.24242424 345.325068871 m 0,0,1
 1008.24242424 342.272727273 1008.24242424 342.272727273 1008 339 c 1,2,3
 993.393103448 314.655172414 993.393103448 314.655172414 960.051129608 314.655172414 c 0,4,5
 942.655172414 314.655172414 942.655172414 314.655172414 929 323 c 1,6,7
 721 287 721 287 622 252 c 1,8,9
 616 215 616 215 610 173 c 0,10,11
 599.296296296 98.0740740741 599.296296296 98.0740740741 583 24 c 1,12,13
 569.139705882 0.4375 569.139705882 0.4375 543.083984375 0.4375 c 0,14,15
 530.6875 0.4375 530.6875 0.4375 519 8 c 1,16,17
 513 19 513 19 512 24 c 1,18,-1
 512 32 l 1,19,20
 547 34 547 34 563 121.5 c 0,21,22
 575.19047619 188.166666667 575.19047619 188.166666667 575.19047619 209.25 c 128,-1,23
 575.19047619 230.333333333 575.19047619 230.333333333 574 237 c 1,24,-1
 566 237 l 1,25,26
 563 236 563 236 541 231.5 c 128,-1,27
 519 227 519 227 500 223 c 128,-1,28
 481 219 481 219 454 212 c 128,-1,29
 427 205 427 205 407 198.5 c 0,30,31
 356.787234043 182.180851064 356.787234043 182.180851064 346 166 c 0,32,33
 343.058823529 160.117647059 343.058823529 160.117647059 343.058823529 145.411764706 c 2,34,-1
 345.48 100.8552 l 1,35,36
 345.48 75.9 345.48 75.9 338.953483146 52.3320224719 c 128,-1,37
 332.426966292 28.7640449438 332.426966292 28.7640449438 318.386441106 28.7640449438 c 0,38,39
 307.235955056 28.7640449438 307.235955056 28.7640449438 299.117977528 36.8820224719 c 128,-1,40
 291 45 291 45 291 47 c 2,41,-1
 291 150 l 1,42,43
 283 146 283 146 236.5 126 c 128,-1,44
 190 106 190 106 183.5 103 c 128,-1,45
 177 100 177 100 159 90.5 c 128,-1,46
 141 81 141 81 129.5 77 c 128,-1,47
 118 73 118 73 105 70.5 c 128,-1,48
 92 68 92 68 88.1111111111 76.1666666667 c 128,-1,49
 84.2222222222 84.3333333333 84.2222222222 84.3333333333 84.2222222222 92.7777777778 c 128,-1,50
 84.2222222222 101.222222222 84.2222222222 101.222222222 86 111 c 1,51,52
 139 142.8 139 142.8 203 168.4 c 128,-1,53
 267 194 267 194 291 205 c 1,54,55
 327.129032258 249.8 327.129032258 249.8 327.129032258 439.808532778 c 0,56,57
 327.129032258 483.096774194 327.129032258 483.096774194 323 512 c 1,58,59
 271 499 271 499 182.5 448.5 c 128,-1,60
 94 398 94 398 47 386 c 0,61,62
 43.1538461538 385.038461538 43.1538461538 385.038461538 39.9548816568 385.038461538 c 0,63,64
 23.9565217391 385.038461538 23.9565217391 385.038461538 23.9565217391 405.106187291 c 128,-1,65
 23.9565217391 425.173913043 23.9565217391 425.173913043 31 433 c 1,66,67
 59 471 59 471 117.5 493 c 128,-1,68
 176 515 176 515 241.5 533.5 c 128,-1,69
 307 552 307 552 338 575 c 1,70,71
 336.980020296 587.57974968 336.980020296 587.57974968 336.980020296 598.73604797 c 0,72,73
 336.980020296 656.892998761 336.980020296 656.892998761 364.697551871 676.36823978 c 0,74,75
 382.465738529 688.852746804 382.465738529 688.852746804 390.608512487 673.096903347 c 0,76,77
 393 668.46949958 393 668.46949958 393 662 c 2,78,-1
 393 591 l 1,79,-1
 401 591 l 1,80,81
 461 606 461 606 472 606 c 1,82,83
 550 622 550 622 606 630 c 1,84,85
 621.073426573 633.34965035 621.073426573 633.34965035 622.5 679 c 0,86,87
 623 695 623 695 630.71875 703.125 c 128,-1,88
 638.4375 711.25 638.4375 711.25 646.46875 711.25 c 128,-1,89
 654.5 711.25 654.5 711.25 658.75 710.125 c 128,-1,90
 663 709 663 709 666 705.5 c 128,-1,91
 669 702 669 702 669 701 c 2,92,-1
 669 646 l 1,93,94
 672.176470588 645.764705882 672.176470588 645.764705882 688.294117647 645.764705882 c 128,-1,95
 704.411764706 645.764705882 704.411764706 645.764705882 755.816993464 656.549019608 c 128,-1,96
 807.222222222 667.333333333 807.222222222 667.333333333 835.37037037 667.333333333 c 0,97,98
 896.233686083 667.333333333 896.233686083 667.333333333 896.233686083 634.512106143 c 0,99,100
 896.233686083 616.829552582 896.233686083 616.829552582 875.788179184 590.160883572 c 0,101,102
 841.640122198 545.618909944 841.640122198 545.618909944 795.593806625 525.006088115 c 0,103,104
 781.250591218 518.585288971 781.250591218 518.585288971 774.305264956 518.585288971 c 128,-1,105
 767.359938694 518.585288971 767.359938694 518.585288971 764 520 c 1,106,-1
 764 536 l 1,107,-1
 826 599 l 1,108,109
 796.342105263 600.289473684 796.342105263 600.289473684 771.740304709 600.289473684 c 0,110,111
 662.789473684 600.289473684 662.789473684 600.289473684 653 575 c 1,112,113
 629 387.8 629 387.8 629 354.9 c 128,-1,114
 629 322 629 322 630 315 c 1,115,-1
 645 315 l 1,116,117
 728 336 728 336 819 354 c 0,118,119
 824 355 824 355 853.5 365 c 0,120,121
 921.146551724 387.931034483 921.146551724 387.931034483 964.694487983 387.931034483 c 128,-1,122
 1008.24242424 387.931034483 1008.24242424 387.931034483 1008.24242424 345.325068871 c 0,0,1
346 284 m 0,123,124
 345 277 345 277 345 256.5 c 128,-1,125
 345 236 345 236 346 228 c 1,126,127
 358.698412698 225.968253968 358.698412698 225.968253968 386.238095238 225.968253968 c 128,-1,128
 413.777777778 225.968253968 413.777777778 225.968253968 474.888888889 246.484126984 c 128,-1,129
 536 267 536 267 583 299 c 1,130,131
 607 503 607 503 607 532.5 c 128,-1,132
 607 562 607 562 606 567 c 1,133,134
 589.578947368 568.894736842 589.578947368 568.894736842 561.052631579 568.894736842 c 128,-1,135
 532.526315789 568.894736842 532.526315789 568.894736842 475.263157895 557.947368421 c 128,-1,136
 418 547 418 547 378 520 c 1,137,138
 358 446 358 446 346 284 c 0,123,124
EndSplineSet
EndChar

StartChar: dollar
Encoding: 36 36 76
Width: 497
Flags: HW
LayerCount: 2
Fore
SplineSet
320.05 531.95 m 2,0,-1
 322 481 l 1,1,2
 327 442 327 442 379.5 362.5 c 128,-1,3
 432 283 432 283 439.630434783 250.195652174 c 128,-1,4
 447.260869565 217.391304348 447.260869565 217.391304348 447.260869565 186.413043478 c 0,5,6
 447.260869565 80.2513586957 447.260869565 80.2513586957 399 -12.5 c 0,7,8
 367 -74 367 -74 314 -100 c 0,9,10
 292.8 -110.4 292.8 -110.4 262.5 -110.4 c 128,-1,11
 232.2 -110.4 232.2 -110.4 189 -87 c 1,12,13
 101 -36 101 -36 59 50 c 0,14,15
 26.0280373832 117.514018692 26.0280373832 117.514018692 26.0280373832 190.2665735 c 0,16,17
 26.0280373832 307.647723847 26.0280373832 307.647723847 102 402 c 0,18,19
 112 414 112 414 126 410 c 1,20,21
 128.722222222 403.388888889 128.722222222 403.388888889 128.722222222 392.555555556 c 128,-1,22
 128.722222222 381.722222222 128.722222222 381.722222222 119.861111111 358.361111111 c 128,-1,23
 111 335 111 335 95 301 c 0,24,25
 59.4210526316 225.394736842 59.4210526316 225.394736842 59.4210526316 177.808864266 c 0,26,27
 59.4210526316 111.481658692 59.4210526316 111.481658692 106.710526316 48.2408293461 c 128,-1,28
 154 -15 154 -15 158 -15 c 2,29,-1
 165 -15 l 1,30,31
 191 138 191 138 275 442 c 1,32,-1
 275 473 l 1,33,34
 219.191176471 562.294117647 219.191176471 562.294117647 197.5 656 c 0,35,36
 188.819444444 693.5 188.819444444 693.5 188.819444444 716.506944444 c 128,-1,37
 188.819444444 739.513888889 188.819444444 739.513888889 190.5 752.5 c 0,38,39
 196 795 196 795 233 825.5 c 128,-1,40
 270 856 270 856 339 859 c 1,41,42
 340 866 340 866 356 921 c 1,43,44
 373.283072561 934.978955748 373.283072561 934.978955748 383.076960268 934.978955748 c 0,45,46
 395.884794272 934.978955748 395.884794272 934.978955748 395.884794272 911.072462816 c 0,47,48
 395.884102495 906.589802522 395.884102495 906.589802522 390.781865932 872.316661752 c 128,-1,49
 385.67962937 838.043520982 385.67962937 838.043520982 386 835 c 1,50,51
 422 795 422 795 439 772 c 0,52,53
 474.117647059 724.487889273 474.117647059 724.487889273 474.117647059 660.249134948 c 0,54,55
 474.117647059 645.529411765 474.117647059 645.529411765 472 630 c 1,56,57
 460 608 460 608 423 599 c 0,58,59
 413.205882353 596.617647059 413.205882353 596.617647059 404.813148789 596.617647059 c 0,60,61
 381.5 596.617647059 381.5 596.617647059 369 615 c 1,62,63
 362 630 362 630 365.5 636.5 c 128,-1,64
 369 643 369 643 376.5 649 c 128,-1,65
 384 655 384 655 395.5 657.5 c 128,-1,66
 407 660 407 660 414.5 667 c 128,-1,67
 422 674 422 674 425.5 683 c 0,68,69
 433.778597786 704.287822878 433.778597786 704.287822878 394 756 c 0,70,71
 381.25 774 381.25 774 373.5 774 c 128,-1,72
 365.75 774 365.75 774 362 772 c 1,73,74
 359 760 359 760 352.5 731.5 c 128,-1,75
 346 703 346 703 343 690 c 128,-1,76
 340 677 340 677 334.5 648.5 c 128,-1,77
 329 620 329 620 327.5 606.5 c 128,-1,78
 326 593 326 593 323.025 568.775 c 128,-1,79
 320.05 544.55 320.05 544.55 320.05 531.95 c 2,0,-1
213 -47 m 1,80,81
 235.33275627 -70.2953750753 235.33275627 -70.2953750753 261.052476448 -70.2953750753 c 128,-1,82
 286.772196625 -70.2953750753 286.772196625 -70.2953750753 316.19560132 -44.2316055029 c 0,83,84
 373.599739367 6.61798998341 373.599739367 6.61798998341 396.585536341 109.242255963 c 0,85,86
 406.523947043 153.614095864 406.523947043 153.614095864 406.523947043 194.215914167 c 0,87,88
 406.523947043 279.69489785 406.523947043 279.69489785 362.474072792 348.46406924 c 0,89,90
 339.362206111 383.71026171 339.362206111 383.71026171 307 410 c 1,91,92
 278 357 278 357 268.5 265.5 c 128,-1,93
 259 174 259 174 249.5 86.5 c 128,-1,94
 240 -1 240 -1 213 -47 c 1,80,81
238.477962536 732.190157899 m 0,95,96
 228.923531254 706.147663784 228.923531254 706.147663784 228.923531254 676.840976438 c 128,-1,97
 228.923531254 647.534289093 228.923531254 647.534289093 237.961765627 628.267144547 c 0,98,99
 254.590844099 592.818311802 254.590844099 592.818311802 283 536 c 1,100,-1
 292 544 l 1,101,102
 294 561 294 561 307 651.5 c 128,-1,103
 320 742 320 742 323 762.5 c 128,-1,104
 326 783 326 783 331 796 c 1,105,106
 327.664432838 811.565980091 327.664432838 811.565980091 315.271594342 811.565980091 c 0,107,108
 307.13840415 811.565980091 307.13840415 811.565980091 295.104198649 804.861629032 c 0,109,110
 257.441688123 783.879546562 257.441688123 783.879546562 238.477962536 732.190157899 c 0,95,96
EndSplineSet
EndChar

StartChar: percent
Encoding: 37 37 77
Width: 740
Flags: HW
LayerCount: 2
Fore
SplineSet
108.692231405 0.872727272727 m 0,0,1
 101 0.872727272727 101 0.872727272727 101 21.9363636364 c 128,-1,2
 101 43 101 43 102 47 c 1,3,4
 136 88 136 88 205 185.5 c 128,-1,5
 274 283 274 283 315 331 c 0,6,7
 449 488 449 488 574 559 c 0,8,9
 598.664270757 573.339692301 598.664270757 573.339692301 620.630667714 573.339692301 c 128,-1,10
 642.597064672 573.339692301 642.597064672 573.339692301 642.597064672 558.095621171 c 0,11,12
 642.597064672 530.812477369 642.597064672 530.812477369 508 440 c 0,13,14
 425 384 425 384 394 354 c 0,15,16
 393 353 393 353 319 248.5 c 128,-1,17
 245 144 245 144 184.781818182 72.4363636364 c 128,-1,18
 124.563636364 0.872727272727 124.563636364 0.872727272727 108.692231405 0.872727272727 c 0,0,1
578.918552812 101.092592593 m 0,19,20
 536.907407407 101.092592593 536.907407407 101.092592593 525.248965638 112.751034362 c 128,-1,21
 513.590523869 124.409476131 513.590523869 124.409476131 513.590523869 146.436293636 c 128,-1,22
 513.590523869 168.463111141 513.590523869 168.463111141 531.740752643 205.347978332 c 128,-1,23
 549.890981416 242.232845523 549.890981416 242.232845523 569.486931 247.673670796 c 0,24,25
 583.01580101 251.429968369 583.01580101 251.429968369 583.01580101 229.560601344 c 128,-1,26
 583.01580101 207.691234319 583.01580101 207.691234319 574 173 c 1,27,-1
 574 158 l 1,28,29
 590.12371134 152.041237113 590.12371134 152.041237113 610.582474227 152.041237113 c 128,-1,30
 631.041237113 152.041237113 631.041237113 152.041237113 653.520618557 174.520618557 c 128,-1,31
 676 197 676 197 676 228.456790123 c 0,32,33
 676 288.058823529 676 288.058823529 614 299 c 0,34,35
 602 302 602 302 584.5 293 c 128,-1,36
 567 284 567 284 559 284 c 0,37,38
 542.25395453 284 542.25395453 284 561.203216936 303.583254063 c 0,39,40
 599.949759604 343.626152455 599.949759604 343.626152455 650.197569372 343.626152455 c 0,41,42
 705.183413679 343.626152455 705.183413679 343.626152455 717 268 c 0,43,44
 719.504347826 251.513043478 719.504347826 251.513043478 719.504347826 236.419810964 c 0,45,46
 719.504347826 179.191304348 719.504347826 179.191304348 681.701247987 140.14194847 c 128,-1,47
 643.898148148 101.092592593 643.898148148 101.092592593 578.918552812 101.092592593 c 0,19,20
62 378 m 0,48,49
 17.829770758 407.446819495 17.829770758 407.446819495 17.829770758 452.8295322 c 0,50,51
 17.829770758 476.189366805 17.829770758 476.189366805 29.5325301648 503.771364785 c 0,52,53
 57.1241291459 568.801448795 57.1241291459 568.801448795 126.21181857 611.966979403 c 0,54,55
 175.398347675 642.6983969 175.398347675 642.6983969 207.823762984 642.6983969 c 0,56,57
 295.182605347 642.6983969 295.182605347 642.6983969 315 544 c 0,58,59
 316.441176471 537 316.441176471 537 316.441176471 529.788062284 c 0,60,61
 316.441176471 501.970588235 316.441176471 501.970588235 292.220588235 466.985294118 c 128,-1,62
 268 432 268 432 226.5 406 c 0,63,64
 160.149112426 364.430769231 160.149112426 364.430769231 108.324260355 364.430769231 c 0,65,66
 82.0307692308 364.430769231 82.0307692308 364.430769231 62 378 c 0,48,49
79.5 505.5 m 0,67,68
 69.6233766234 484.987012987 69.6233766234 484.987012987 69.6233766234 466.88961039 c 128,-1,69
 69.6233766234 448.792207792 69.6233766234 448.792207792 79.3405997879 432.475600959 c 128,-1,70
 89.0578229525 416.158994126 89.0578229525 416.158994126 110.819677685 416.158994126 c 128,-1,71
 132.581532417 416.158994126 132.581532417 416.158994126 163.7037638 429.917182261 c 0,72,73
 225.224494184 457.113618547 225.224494184 457.113618547 255.843710938 502.79423305 c 0,74,75
 270.235688582 524.265532854 270.235688582 524.265532854 270.235688582 541.05749701 c 0,76,77
 270.235688582 577.952862284 270.235688582 577.952862284 205 591 c 0,78,79
 199.095238095 592.142857143 199.095238095 592.142857143 192.954648526 592.142857143 c 0,80,81
 166.857142857 592.142857143 166.857142857 592.142857143 132.928571429 569.071428571 c 128,-1,82
 99 546 99 546 79.5 505.5 c 0,67,68
EndSplineSet
EndChar

StartChar: asciicircum
Encoding: 94 94 78
Width: 425
Flags: HMW
HStem: 797 20G<242 250 249.5 250>
LayerCount: 2
Fore
SplineSet
82 619 m 1,0,1
 57.9701492537 635.820895522 57.9701492537 635.820895522 57.9701492537 643.080641568 c 0,2,3
 57.9701492537 644.731343284 57.9701492537 644.731343284 89.9850746269 668.865671642 c 0,4,5
 192.716612378 746.309446254 192.716612378 746.309446254 198.858306189 755.654723127 c 128,-1,6
 205 765 205 765 210.5 774.5 c 128,-1,7
 216 784 216 784 219.5 790.5 c 0,8,9
 228.625 807.446428571 228.625 807.446428571 242 817 c 1,10,-1
 250 817 l 1,11,12
 289 790 289 790 337 695.5 c 0,13,14
 366.922077922 636.590909091 366.922077922 636.590909091 366.922077922 614.12012987 c 0,15,16
 366.922077922 583.76744186 366.922077922 583.76744186 346.344759891 583.76744186 c 128,-1,17
 325.76744186 583.76744186 325.76744186 583.76744186 295.38372093 631.38372093 c 128,-1,18
 265 679 265 679 250 721 c 1,19,20
 245.333333333 723.512820513 245.333333333 723.512820513 238.294871795 723.512820513 c 128,-1,21
 231.256410256 723.512820513 231.256410256 723.512820513 218.128205128 713.256410256 c 128,-1,22
 205 703 205 703 191 682 c 0,23,24
 155.821917808 629.232876712 155.821917808 629.232876712 122.5 614 c 0,25,26
 115.833333333 610.952380952 115.833333333 610.952380952 106.035714286 610.952380952 c 128,-1,27
 96.2380952381 610.952380952 96.2380952381 610.952380952 82 619 c 1,0,1
EndSplineSet
EndChar

